{
.appVersion = "3436";
.formatVersion = 3;
DisplayStrings = (
avw,
ty,
"asf¹",
"⁴",
"",
"/f_f_l",
"asfdʼasdf",
j,
"",
"́",
"ȷ",
"±",
"AÁĂÂÄÀĀĄÅÃÆBCĆČÇĊDĎĐÐEÉĚÊËĖÈĒĘFGĞĢĠHĦIÍÎÏİÌĪĮJKĶLĹĽĻŁMNŃŇŅÑŊOÓÔÖÒŐŌØÕŒPÞQRŔŘŖSŚŠŞȘẞTŦŤŢȚUÚÛÜÙŰŪŲŮVWẂŴẄẀXYÝŶŸỲZŹŽŻaáăâäàāąåãæbcćčçċdďđðeéěêëėèēęfgğģġhħiıíîï/idotaccent ìīįjȷkķlĺľļłmnńňņñŋoóôöòőōøõœpþqrŕřŗsśšşșßtŧťţțuúûüùűūųůvwẃŵẅẁxyýŷÿỳzźžż/f_f_i/f_f_l ﬁﬂªºΔΩμπ0123456789⁄½¼¾¹²³⁴ /nbspace/.notdef .,:;…!¡?¿·•*#///backslash -–—_(){}[]‚„“”‘’«»‹›\"'ƒ@&¶§©®™°|¦†‡¢¤$€£¥+−×÷=≠><≥≤±≈~¬^∞∅∫∏∑√µ∂%‰↑↗→↘↓↙←↖↔↕◌◊̧̨̦̈̇̀́̋̂̌̆̊̃̄̒¨˙`´˝ˆˇ˘˚˜¯¸˛/caron.alt ʼ",
"’ʼ",
"Ąą",
"Ęę",
"̇EĖeė",
"̇Iİ/idotaccent",
"̧̦̈̇̀́̋̂̌̆̊̃̄̒asdf̨",
"Įį",
"Jjȷ",
"◌",
"̨",
"¨˙`´˝ˆˇ˘˚˜¯¸˛/caron.alt",
"¯Ā",
"ˇČ",
"˘Ă",
"́LĹ",
"/caron.alt Ľ",
"Ŗ",
"Ř",
"Ŕ",
"˝ű",
"()/parenleft.caps/parenright.caps {}/braceleft.caps/braceright.caps []/bracketleft.caps/bracketright.caps"
);
axes = (
{
name = Weight;
tag = wght;
}
);
classes = (
{
automatic = 1;
code = "A Aacute Abreve Acircumflex Adieresis Agrave Amacron Aogonek Aring Atilde AE B C Cacute Ccaron Ccedilla Cdotaccent D Dcaron Dcroat Eth E Eacute Ecaron Ecircumflex Edieresis Edotaccent Egrave Emacron Eogonek F G Gbreve Gcommaaccent Gdotaccent H Hbar I Iacute Icircumflex Idieresis Idotaccent Igrave Imacron Iogonek J K Kcommaaccent L Lacute Lcaron Lcommaaccent Lslash M N Nacute Ncaron Ncommaaccent Ntilde Eng O Oacute Ocircumflex Odieresis Ograve Ohungarumlaut Omacron Oslash Otilde OE P Thorn Q R Racute Rcaron Rcommaaccent S Sacute Scaron Scedilla Scommaaccent Germandbls T Tbar Tcaron Tcedilla Tcommaaccent U Uacute Ucircumflex Udieresis Ugrave Uhungarumlaut Umacron Uogonek Uring V W Wacute Wcircumflex Wdieresis Wgrave X Y Yacute Ycircumflex Ydieresis Ygrave Z Zacute Zcaron Zdotaccent Delta Omega";
name = Uppercase;
}
);
customParameters = (
{
name = "Write kern Table";
value = true;
},
{
name = fsType;
value = (
);
},
{
name = "Use Typo Metrics";
value = 1;
},
{
name = "Prefer Typo Metrics";
value = true;
},
{
name = "Has WWS Names";

glyphs = (
{
glyphname = A;
kernLeft = A;
kernRight = A;
lastChange = "2026-01-08 00:01:50 +0000";
layers = (
{
anchors = (
{
name = bottom;
pos = (524,0);
},
{
name = ogonek;
pos = (574,10);
},
{
name = top;
pos = (423,720);
}
);
hints = (
{
horizontal = 1;
origin = (1,5);
target = up;
type = BottomGhost;
},
{
horizontal = 1;
origin = (2,2);
target = (2,3);
type = Stem;
},
{
horizontal = 1;
origin = (0,2);
target = down;
type = TopGhost;
},
{
horizontal = 1;
origin = (0,2);
target = (0,3);
type = Stem;
}
);
layerId = "05246BF3-0764-4143-87C4-5D2B296D3790";
shapes = (
{
closed = 1;
nodes = (
(618,0,l),
(470,720,l),
(376,720,l),
(402,612,l),
(406,612,l),
(524,0,l)
);
},
{
closed = 1;
nodes = (
(68,0,l),
(402,612,l),
(406,612,l),
(470,720,l),
(376,720,l),
(-26,0,l)
);
},
{
closed = 1;
nodes = (
(510,210,l),
(524,290,l),
(164,290,l),
(150,210,l)
);
}
);
width = 684;
},
{
anchors = (
{
name = bottom;
pos = (517,0);
},
{
name = ogonek;
pos = (563,10);
},
{
name = top;
pos = (442,720);
}
);
hints = (
{
horizontal = 1;
origin = (1,5);
target = up;
type = BottomGhost;
},
{
horizontal = 1;
origin = (2,2);
target = (2,3);
type = Stem;
},
{
horizontal = 1;
origin = (0,2);
target = (0,3);
type = Stem;
}
);
layerId = "B51EB05F-9FBB-4087-814F-400611B2D4B0";
shapes = (
{
closed = 1;
nodes = (
(667,0,l),
(519,720,l),
(365,720,l),
(407,548,l),
(417,548,l),
(517,0,l)
);
},
{
closed = 1;
nodes = (
(113,0,l),
(407,548,l),
(417,548,l),
(519,720,l),
(365,720,l),
(-37,0,l)
);
},
{
closed = 1;
nodes = (
(546,195,l),
(568,315,l),
(168,315,l),
(146,195,l)
);
}
);
width = 724;
}
);
subCategory = Uppercase;
unicode = 65;
},
{
glyphname = Aogonek;
kernLeft = A;
kernRight = A;
lastChange = "2026-01-08 00:01:50 +0000";
layers = (
{
anchors = (
{
name = top;
pos = (423,720);
}
);
hints = (
{
horizontal = 1;
origin = (0,6);
target = up;
type = BottomGhost;
},
{
horizontal = 1;
origin = (1,3);
target = (0,8);
type = Stem;
},
{
horizontal = 1;
origin = (0,5);
target = down;
type = TopGhost;
},
{
horizontal = 1;
origin = (0,5);
target = (1,0);
type = Stem;
},
{
horizontal = 1;
place = (-322,-56);
type = Stem;
},
{
place = (351,-41);
type = Stem;
}
);
layerId = "05246BF3-0764-4143-87C4-5D2B296D3790";
shapes = (
{
closed = 1;
nodes = (
(577,-121,l),
(465,-143,o),
(496,-67,o),
(618,0,c),
(470,720,l),
(376,720,l),
(-26,0,l),
(68,0,l),
(183,210,l),
(484,210,l),
(524,0,l),
(362,-80,o),
(391,-224,o),
(564,-191,c)
);
},
{
closed = 1;
nodes = (
(402,612,l),
(406,612,l),
(468,290,l),
(226,290,l)
);
}
);
width = 684;
},
{
anchors = (
{
name = top;
pos = (442,720);
}
);
hints = (
{
horizontal = 1;
origin = (0,6);
target = up;
type = BottomGhost;
},
{
horizontal = 1;
origin = (1,3);
target = (0,8);
type = Stem;
},
{
horizontal = 1;
origin = (0,5);
target = (1,0);
type = Stem;
},
{
horizontal = 1;
place = (-325,-39);
type = Stem;
},
{
place = (354,19);
type = Stem;
}
);
layerId = "B51EB05F-9FBB-4087-814F-400611B2D4B0";
shapes = (
{
closed = 1;
nodes = (
(643,-105,l),
(531,-127,o),
(545,-67,o),
(667,0,c),
(519,720,l),
(365,720,l),
(-37,0,l),
(113,0,l),
(218,195,l),
(481,195,l),
(517,0,l),
(343,-86,o),
(404,-233,o),
(628,-190,c)
);
},
{
closed = 1;
nodes = (
(407,548,l),
(417,548,l),
(460,315,l),
(282,315,l)
);
}
);
width = 724;
}
);
subCategory = Uppercase;
unicode = 260;
},
{
glyphname = AE;
kernLeft = A;
kernRight = E;
lastChange = "2026-01-08 00:01:50 +0000";
layers = (
{
hints = (
{
horizontal = 1;
origin = (0,3);
target = (2,2);
type = Stem;
},
{
horizontal = 1;
origin = (1,3);
target = (1,2);
type = Stem;
},
{
horizontal = 1;
origin = (4,3);
target = (4,2);
type = Stem;
},
{
horizontal = 1;
origin = (0,2);
target = (5,3);
type = Stem;
},
{
origin = (3,3);
target = (3,0);
type = Stem;
}
);
layerId = "05246BF3-0764-4143-87C4-5D2B296D3790";
shapes = (
{
closed = 1;
nodes = (
(68,0,l),
(470,720,l),
(376,720,l),
(-26,0,l)
);
},
{
closed = 1;
nodes = (
(506,210,l),
(520,290,l),
(160,290,l),
(146,210,l)
);
},
{
closed = 1;
nodes = (
(883,0,l),
(897,80,l),
(507,80,l),
(493,0,l)
);
},
{
closed = 1;
nodes = (
(528,0,l),
(655,720,l),
(565,720,l),
(438,0,l)
);
},
{
closed = 1;
nodes = (
(891,330,l),
(905,410,l),
(565,410,l),
(551,330,l)
);
},
{
closed = 1;
nodes = (
(996,640,l),
(1010,720,l),
(377,720,l),
(363,640,l)
);
}
);
width = 999;
},
{
hints = (
{
horizontal = 1;
place = (-127,-7);
type = Stem;
},
{
horizontal = 1;
place = (183,-7);
type = Stem;
},
{
horizontal = 1;
place = (593,-7);
type = Stem;
},
{
horizontal = 1;
place = (68,-7);
type = Stem;
},
{
place = (343,23);
type = Stem;
}
);
layerId = "B51EB05F-9FBB-4087-814F-400611B2D4B0";
shapes = (
{
closed = 1;
nodes = (
(103,0,l),
(505,720,l),
(355,720,l),
(-47,0,l)
);
},
{
closed = 1;
nodes = (
(502,195,l),
(524,315,l),
(164,315,l),
(142,195,l)
);
},
{
closed = 1;
nodes = (
(882,0,l),
(903,120,l),
(513,120,l),
(492,0,l)
);
},
{
closed = 1;
nodes = (
(572,0,l),
(699,720,l),
(549,720,l),
(422,0,l)
);
},
{
closed = 1;
nodes = (
(887,310,l),
(908,430,l),
(568,430,l),
(547,310,l)
);
},
{
closed = 1;
nodes = (
(988,600,l),
(1009,720,l),
(356,720,l),
(335,600,l)
);
}
);
width = 989;
}
);
subCategory = Uppercase;
unicode = 198;
},
{
glyphname = B;
kernLeft = I;
kernRight = B;
lastChange = "2026-01-08 00:01:50 +0000";
layers = (
{
anchors = (
{
name = bottom;
pos = (274,0);
},
{
name = top;
pos = (397,700);
}
);
hints = (
{
horizontal = 1;
origin = (1,3);
target = (0,20);
type = Stem;
},
{
horizontal = 1;
origin = (0,12);
target = (2,20);
type = Stem;
},
{
horizontal = 1;
origin = (1,2);
target = (2,12);
type = Stem;
},
{
origin = (1,3);
target = (1,0);
type = Stem;
},
{
origin = (0,16);
target = (0,3);
type = Stem;
},
{
origin = (2,16);
target = (2,7);
type = Stem;
}
);
layerId = "05246BF3-0764-4143-87C4-5D2B296D3790";
shapes = (
{
closed = 1;
nodes = (
(309,0,l),
(479,0,o),
(573,78,o),
(596,208,cs),
(612,298,o),
(570,363,o),
(475,380,c),
(477,390,l),
(450,395,o),
(414,390,o),
(378,390,c),
(163,390,l),
(154,340,l),
(369,340,l),
(459,340,o),
(523,308,o),
(506,208,cs),
(488,108,o),
(413,80,o),
(323,80,c),
(108,80,l),
(94,0,l)
);
},
{
closed = 1;
nodes = (
(134,0,l),
(261,720,l),
(171,720,l),
(44,0,l)
);
},
{
closed = 1;
nodes = (
(344,370,l),
(391,370,o),
(438,368,o),
(475,380,c),
(477,390,l),
(542,410,o),
(588,450,o),
(603,532,cs),
(624,652,o),
(556,720,o),
(406,720,c),
(221,720,l),
(207,640,l),
(392,640,l),
(472,640,o),
(529,622,o),
(513,532,cs),
(497,442,o),
(443,420,o),
(353,420,c),
(168,420,l),
(159,370,l)
);
}
);
width = 645;
},
{
anchors = (
{
name = bottom;
pos = (273,0);
},
{
name = top;
pos = (396,700);
}
);
hints = (
{
horizontal = 1;
origin = (1,3);
target = (0,20);
type = Stem;
},
{
horizontal = 1;
origin = (0,12);
target = (2,20);
type = Stem;
},
{
horizontal = 1;
origin = (1,2);
target = (2,12);
type = Stem;
},
{
origin = (1,3);
target = (1,0);
type = Stem;
},
{
origin = (0,16);
target = (0,3);
type = Stem;
},
{
origin = (2,16);
target = (2,7);
type = Stem;
}
);
layerId = "B51EB05F-9FBB-4087-814F-400611B2D4B0";
shapes = (
{
closed = 1;
nodes = (
(298,0,l),
(503,0,o),
(592,78,o),
(616,218,cs),
(633,313,o),
(565,368,o),
(474,380,c),
(476,390,l),
(449,395,o),
(403,390,o),
(367,390,c),
(152,390,l),
(139,320,l),
(354,320,l),
(419,320,o),
(481,303,o),
(466,218,cs),
(451,133,o),
(394,120,o),
(319,120,c),
(104,120,l),
(83,0,l)
);
},
{
closed = 1;
nodes = (
(153,0,l),
(280,720,l),
(150,720,l),
(23,0,l)
);
},
{
closed = 1;
nodes = (
(333,370,l),
(380,370,o),
(437,368,o),
(474,380,c),
(476,390,l),
(540,405,o),
(606,440,o),
(620,522,cs),
(645,662,o),
(565,720,o),
(395,720,c),
(210,720,l),
(189,600,l),
(374,600,l),
(429,600,o),
(485,607,o),
(470,522,cs),
(459,457,o),
(421,440,o),
(346,440,c),
(161,440,l),
(148,370,l)
);
}
);
width = 664;
}
);
subCategory = Uppercase;
unicode = 66;
},
{
glyphname = C;
kernLeft = C;
kernRight = C;
lastChange = "2026-01-08 00:01:50 +0000";
layers = (
{
anchors = (
{
name = bottom;
pos = (329,0);
},
{
name = top;
pos = (458,730);
}
);
hints = (
{
horizontal = 1;
origin = (0,6);
target = (0,25);
type = Stem;
},
{
horizontal = 1;
origin = (0,19);
target = (0,12);
type = Stem;
},
{
origin = (0,22);
target = (0,9);
type = Stem;
}
);
layerId = "05246BF3-0764-4143-87C4-5D2B296D3790";
shapes = (
{
closed = 1;
nodes = (
(487,-10,o),
(592,79,o),
(650,205,c),
(558,205,l),
(514,120,o),
(442,70,o),
(341,70,cs),
(181,70,o),
(139,200,o),
(168,360,cs),
(196,520,o),
(284,650,o),
(444,650,cs),
(545,650,o),
(599,600,o),
(613,515,c),
(705,515,l),
(691,641,o),
(618,730,o),
(458,730,cs),
(238,730,o),
(113,560,o),
(78,360,cs),
(42,160,o),
(107,-10,o),
(327,-10,cs)
);
}
);
width = 710;
},
{
anchors = (
{
name = bottom;
pos = (318,0);
},
{
name = top;
pos = (447,730);
}
);
hints = (
{
horizontal = 1;
origin = (0,6);
target = (0,25);
type = Stem;
},
{
horizontal = 1;
origin = (0,19);
target = (0,12);
type = Stem;
},
{
origin = (0,22);
target = (0,9);
type = Stem;
}
);
layerId = "B51EB05F-9FBB-4087-814F-400611B2D4B0";
shapes = (
{
closed = 1;
nodes = (
(490,-10,o),
(598,83,o),
(658,225,c),
(506,225,l),
(472,153,o),
(426,110,o),
(337,110,cs),
(197,110,o),
(184,230,o),
(207,360,cs),
(229,490,o),
(286,610,o),
(426,610,cs),
(515,610,o),
(545,567,o),
(553,495,c),
(705,495,l),
(695,637,o),
(621,730,o),
(447,730,cs),
(222,730,o),
(94,575,o),
(57,360,cs),
(19,145,o),
(91,-10,o),
(316,-10,cs)
);
}
);
width = 695;
}
);
subCategory = Uppercase;
unicode = 67;
},
{
glyphname = D;
kernLeft = I;
kernRight = O;
lastChange = "2026-01-08 00:01:50 +0000";
layers = (
{
anchors = (
{
name = bottom;
pos = (308,0);
},
{
name = center;
pos = (370,350);
},
{
name = top;
pos = (431,700);
}
);
hints = (
{
horizontal = 1;
origin = (1,3);
target = (0,16);
type = Stem;
},
{
horizontal = 1;
origin = (1,2);
target = (0,8);
type = Stem;
},
{
origin = (1,3);
target = (1,0);
type = Stem;
},
{
origin = (0,12);
target = (0,3);
type = Stem;
}
);
layerId = "05246BF3-0764-4143-87C4-5D2B296D3790";
shapes = (
{
closed = 1;
nodes = (
(272,0,l),
(505,0,o),
(636,167,o),
(671,360,cs),
(705,553,o),
(632,720,o),
(399,720,c),
(211,720,l),
(197,640,l),
(385,640,l),
(567,640,o),
(607,512,o),
(581,360,cs),
(554,208,o),
(468,80,o),
(286,80,c),
(101,80,l),
(87,0,l)
);
},
{
closed = 1;
nodes = (
(134,0,l),
(261,720,l),
(171,720,l),
(44,0,l)
);
}
);
width = 713;
},
{
anchors = (
{
name = bottom;
pos = (317,0);
},
{
name = center;
pos = (379,350);
},
{
name = top;
pos = (440,700);
}
);
hints = (
{
horizontal = 1;
origin = (1,3);
target = (0,16);
type = Stem;
},
{
horizontal = 1;
origin = (1,2);
target = (0,8);
type = Stem;
},
{
origin = (1,3);
target = (1,0);
type = Stem;
},
{
origin = (0,12);
target = (0,3);
type = Stem;
}
);
layerId = "B51EB05F-9FBB-4087-814F-400611B2D4B0";
shapes = (
{
closed = 1;
nodes = (
(271,0,l),
(524,0,o),
(650,137,o),
(690,360,cs),
(729,583,o),
(651,720,o),
(398,720,c),
(220,720,l),
(199,600,l),
(377,600,l),
(529,600,o),
(563,492,o),
(540,360,cs),
(516,228,o),
(444,120,o),
(292,120,c),
(117,120,l),
(96,0,l)
);
},
{
closed = 1;
nodes = (
(173,0,l),
(300,720,l),
(150,720,l),
(23,0,l)
);
}
);
width = 713;
}
);
subCategory = Uppercase;
unicode = 68;
},
{
glyphname = Dcaron;
kernLeft = I;
kernRight = O;
lastChange = "2026-01-08 00:01:50 +0000";
layers = (
{
anchors = (
{
name = top;
pos = (382,880);
}
);
hints = (
{
horizontal = 1;
origin = (0,4);
target = (0,5);
type = Stem;
},
{
horizontal = 1;
origin = (0,5);
target = (1,4);
type = Stem;
}
);
layerId = "05246BF3-0764-4143-87C4-5D2B296D3790";
shapes = (
{
closed = 1;
nodes = (
(403,770,l),
(538,910,l),
(458,910,l),
(377,823,l),
(367,823,l),
(323,770,l)
);
},
{
closed = 1;
nodes = (
(403,770,l),
(377,823,l),
(367,823,l),
(318,910,l),
(238,910,l),
(323,770,l)
);
},
{
ref = D;
}
);
width = 713;
},
{
anchors = (
{
name = top;
pos = (390,870);
}
);
hints = (
{
horizontal = 1;
origin = (0,5);
target = (0,4);
type = Stem;
},
{
horizontal = 1;
origin = (1,4);
target = (0,5);
type = Stem;
},
{
origin = (1,4);
target = (0,1);
type = Stem;
}
);
layerId = "B51EB05F-9FBB-4087-814F-400611B2D4B0";
shapes = (
{
closed = 1;
nodes = (
(431,760,l),
(566,900,l),
(446,900,l),
(390,839,l),
(380,839,l),
(311,760,l)
);
},
{
closed = 1;
nodes = (
(431,760,l),
(390,839,l),
(380,839,l),
(346,900,l),
(226,900,l),
(311,760,l)
);
},
{
ref = D;
}
);
width = 713;
}
);
subCategory = Uppercase;
unicode = 270;
},
{
glyphname = Eth;
kernLeft = B;
kernRight = D;
lastChange = "2026-01-08 00:01:50 +0000";
layers = (
{
hints = (
{
horizontal = 1;
origin = (0,3);
target = (0,2);
type = Stem;
}
);
layerId = "05246BF3-0764-4143-87C4-5D2B296D3790";
shapes = (
{
closed = 1;
nodes = (
(364,335,l),
(376,405,l),
(56,405,l),
(44,335,l)
);
},
{
pos = (89,0);
ref = D;
}
);
width = 802;
},
{
hints = (
{
horizontal = 1;
origin = (0,3);
target = (0,2);
type = Stem;
},
{
origin = (0,3);
target = (0,0);
type = Stem;
}
);
layerId = "B51EB05F-9FBB-4087-814F-400611B2D4B0";
shapes = (
{
closed = 1;
nodes = (
(404,315,l),
(423,425,l),
(43,425,l),
(24,315,l)
);
},
{
pos = (92,0);
ref = D;
}
);
width = 815;
}
);
subCategory = Uppercase;
unicode = 208;
},
{
glyphname = E;
kernLeft = I;
kernRight = E;
lastChange = "2026-01-08 00:01:50 +0000";
layers = (
{
anchors = (
{
name = bottom;
pos = (257,0);
},
{
name = ogonek;
pos = (501,10);
},
{
name = top;
pos = (384,720);
},
{
name = topleft;
pos = (101,720);
}
);
hints = (
{
horizontal = 1;
origin = (0,3);
target = (1,2);
type = Stem;
},
{
horizontal = 1;
origin = (2,3);
target = (2,2);
type = Stem;
},
{
horizontal = 1;
origin = (0,2);
target = (3,3);
type = Stem;
},
{
origin = (0,3);
target = (0,0);
type = Stem;
}
);
layerId = "05246BF3-0764-4143-87C4-5D2B296D3790";
shapes = (
{
closed = 1;
nodes = (
(134,0,l),
(261,720,l),
(171,720,l),
(44,0,l)
);
},
{
closed = 1;
nodes = (
(489,0,l),
(503,80,l),
(113,80,l),
(99,0,l)
);
},
{
closed = 1;
nodes = (
(499,340,l),
(513,420,l),
(173,420,l),
(159,340,l)
);
},
{
closed = 1;
nodes = (
(602,640,l),
(616,720,l),
(226,720,l),
(212,640,l)
);
}
);
width = 605;
},
{
anchors = (
{
name = bottom;
pos = (251,0);
},
{
name = ogonek;
pos = (491,10);
},
{
name = top;
pos = (378,720);
},
{
name = topleft;
pos = (100,720);
}
);
hints = (
{
horizontal = 1;
origin = (0,3);
target = (1,2);
type = Stem;
},
{
horizontal = 1;
origin = (2,3);
target = (2,2);
type = Stem;
},
{
horizontal = 1;
origin = (0,2);
target = (3,3);
type = Stem;
},
{
origin = (0,3);
target = (0,0);
type = Stem;
}
);
layerId = "B51EB05F-9FBB-4087-814F-400611B2D4B0";
shapes = (
{
closed = 1;
nodes = (
(173,0,l),
(300,720,l),
(150,720,l),
(23,0,l)
);
},
{
closed = 1;
nodes = (
(498,0,l),
(519,120,l),
(129,120,l),
(108,0,l)
);
},
{
closed = 1;
nodes = (
(504,320,l),
(526,440,l),
(186,440,l),
(164,320,l)
);
},
{
closed = 1;
nodes = (
(604,600,l),
(625,720,l),
(235,720,l),
(214,600,l)
);
}
);
width = 595;
}
);
subCategory = Uppercase;
unicode = 69;
},
{
glyphname = Eogonek;
kernLeft = B;
kernRight = E;
lastChange = "2026-01-08 00:01:50 +0000";
layers = (
{
anchors = (
{
name = top;
pos = (394,720);
}
);
hints = (
{
horizontal = 1;
origin = (0,14);
target = (0,5);
type = Stem;
},
{
horizontal = 1;
origin = (0,6);
target = (0,9);
type = Stem;
},
{
horizontal = 1;
origin = (0,13);
target = (0,10);
type = Stem;
},
{
origin = (0,14);
target = (0,5);
type = Stem;
},
{
horizontal = 1;
place = (-322,-56);
type = Stem;
},
{
place = (232,-41);
type = Stem;
}
);
layerId = "05246BF3-0764-4143-87C4-5D2B296D3790";
shapes = (
{
closed = 1;
nodes = (
(452,-121,l),
(340,-143,o),
(367,-67,o),
(489,0,c),
(503,80,l),
(148,80,l),
(194,340,l),
(499,340,l),
(513,420,l),
(208,420,l),
(247,640,l),
(602,640,l),
(616,720,l),
(171,720,l),
(44,0,l),
(399,0,l),
(237,-80,o),
(266,-224,o),
(439,-191,c)
);
}
);
width = 605;
},
{
anchors = (
{
name = top;
pos = (388,720);
}
);
hints = (
{
horizontal = 1;
origin = (0,14);
target = (0,5);
type = Stem;
},
{
horizontal = 1;
origin = (0,6);
target = (0,9);
type = Stem;
},
{
horizontal = 1;
origin = (0,13);
target = (0,10);
type = Stem;
},
{
origin = (0,14);
target = (0,5);
type = Stem;
},
{
horizontal = 1;
place = (-325,-39);
type = Stem;
},
{
place = (187,19);
type = Stem;
}
);
layerId = "B51EB05F-9FBB-4087-814F-400611B2D4B0";
shapes = (
{
closed = 1;
nodes = (
(474,-105,l),
(362,-127,o),
(376,-67,o),
(498,0,c),
(519,120,l),
(194,120,l),
(229,320,l),
(504,320,l),
(526,440,l),
(251,440,l),
(279,600,l),
(604,600,l),
(625,720,l),
(150,720,l),
(23,0,l),
(348,0,l),
(174,-86,o),
(235,-233,o),
(459,-190,c)
);
}
);
width = 595;
}
);
subCategory = Uppercase;
unicode = 280;
},
{
glyphname = F;
kernLeft = I;
kernRight = F;
lastChange = "2026-01-08 00:01:50 +0000";
layers = (
{
anchors = (
{
name = bottom;
pos = (224,0);
},
{
name = top;
pos = (347,700);
}
);
hints = (
{
horizontal = 1;
origin = (0,3);
target = up;
type = BottomGhost;
},
{
horizontal = 1;
origin = (1,3);
target = (1,2);
type = Stem;
},
{
horizontal = 1;
origin = (0,2);
target = (2,3);
type = Stem;
},
{
origin = (0,3);
target = (0,0);
type = Stem;
}
);
layerId = "05246BF3-0764-4143-87C4-5D2B296D3790";
shapes = (
{
closed = 1;
nodes = (
(134,0,l),
(261,720,l),
(171,720,l),
(44,0,l)
);
},
{
closed = 1;
nodes = (
(499,340,l),
(513,420,l),
(173,420,l),
(159,340,l)
);
},
{
closed = 1;
nodes = (
(602,640,l),
(616,720,l),
(226,720,l),
(212,640,l)
);
}
);
width = 595;
},
{
anchors = (
{
name = bottom;
pos = (233,0);
},
{
name = top;
pos = (356,700);
}
);
hints = (
{
horizontal = 1;
origin = (0,3);
target = up;
type = BottomGhost;
},
{
horizontal = 1;
origin = (1,3);
target = (1,2);
type = Stem;
},
{
horizontal = 1;
origin = (0,2);
target = (2,3);
type = Stem;
},
{
origin = (0,3);
target = (0,0);
type = Stem;
}
);
layerId = "B51EB05F-9FBB-4087-814F-400611B2D4B0";
shapes = (
{
closed = 1;
nodes = (
(173,0,l),
(300,720,l),
(150,720,l),
(23,0,l)
);
},
{
closed = 1;
nodes = (
(504,320,l),
(526,440,l),
(186,440,l),
(164,320,l)
);
},
{
closed = 1;
nodes = (
(604,600,l),
(625,720,l),
(235,720,l),
(214,600,l)
);
}
);
width = 585;
}
);
subCategory = Uppercase;
unicode = 70;
},
{
glyphname = G;
kernLeft = C;
kernRight = G;
lastChange = "2026-01-08 00:01:50 +0000";
layers = (
{
anchors = (
{
name = bottom;
pos = (329,0);
},
{
name = top;
pos = (458,730);
}
);
hints = (
{
horizontal = 1;
origin = (0,6);
target = (0,25);
type = Stem;
},
{
horizontal = 1;
origin = (1,2);
target = (1,3);
type = Stem;
},
{
horizontal = 1;
origin = (0,19);
target = (0,12);
type = Stem;
},
{
origin = (0,22);
target = (0,9);
type = Stem;
},
{
origin = (0,3);
target = (0,2);
type = Stem;
}
);
layerId = "05246BF3-0764-4143-87C4-5D2B296D3790";
shapes = (
{
closed = 1;
nodes = (
(537,-10,o),
(639,105,o),
(673,275,c),
(583,275,l),
(552,125,o),
(491,70,o),
(341,70,cs),
(181,70,o),
(139,200,o),
(168,360,cs),
(196,520,o),
(284,650,o),
(444,650,cs),
(545,650,o),
(599,600,o),
(613,515,c),
(705,515,l),
(691,641,o),
(618,730,o),
(458,730,cs),
(238,730,o),
(113,560,o),
(78,360,cs),
(42,160,o),
(107,-10,o),
(327,-10,cs)
);
},
{
closed = 1;
nodes = (
(673,275,l),
(687,355,l),
(417,355,l),
(403,275,l)
);
}
);
width = 730;
},
{
anchors = (
{
name = bottom;
pos = (318,0);
},
{
name = top;
pos = (447,730);
}
);
hints = (
{
horizontal = 1;
origin = (0,6);
target = (0,25);
type = Stem;
},
{
horizontal = 1;
origin = (1,2);
target = (1,3);
type = Stem;
},
{
horizontal = 1;
origin = (0,19);
target = (0,12);
type = Stem;
},
{
origin = (0,22);
target = (0,9);
type = Stem;
},
{
origin = (0,3);
target = (0,2);
type = Stem;
}
);
layerId = "B51EB05F-9FBB-4087-814F-400611B2D4B0";
shapes = (
{
closed = 1;
nodes = (
(526,-10,o),
(636,75,o),
(670,265,c),
(520,265,l),
(499,145,o),
(457,110,o),
(337,110,cs),
(197,110,o),
(184,230,o),
(207,360,cs),
(229,490,o),
(286,610,o),
(426,610,cs),
(515,610,o),
(545,567,o),
(553,495,c),
(705,495,l),
(695,637,o),
(621,730,o),
(447,730,cs),
(222,730,o),
(94,575,o),
(57,360,cs),
(19,145,o),
(91,-10,o),
(316,-10,cs)
);
},
{
closed = 1;
nodes = (
(670,265,l),
(689,375,l),
(379,375,l),
(360,265,l)
);
}
);
width = 710;
}
);
subCategory = Uppercase;
unicode = 71;
},
{
glyphname = H;
kernLeft = I;
kernRight = I;
lastChange = "2026-01-08 00:01:50 +0000";
layers = (
{
anchors = (
{
name = bottom;
pos = (312,0);
},
{
name = center;
pos = (374,350);
},
{
name = top;
pos = (435,700);
},
{
name = topleft;
pos = (117,700);
}
);
hints = (
{
horizontal = 1;
origin = (1,3);
target = up;
type = BottomGhost;
},
{
horizontal = 1;
origin = (2,3);
target = (2,2);
type = Stem;
},
{
horizontal = 1;
origin = (1,2);
target = down;
type = TopGhost;
},
{
origin = (1,3);
target = (1,0);
type = Stem;
},
{
origin = (0,3);
target = (0,0);
type = Stem;
}
);
layerId = "05246BF3-0764-4143-87C4-5D2B296D3790";
shapes = (
{
closed = 1;
nodes = (
(579,0,l),
(706,720,l),
(616,720,l),
(489,0,l)
);
},
{
closed = 1;
nodes = (
(134,0,l),
(261,720,l),
(171,720,l),
(44,0,l)
);
},
{
closed = 1;
nodes = (
(577,330,l),
(591,410,l),
(171,410,l),
(157,330,l)
);
}
);
width = 715;
},
{
anchors = (
{
name = bottom;
pos = (321,0);
},
{
name = center;
pos = (383,350);
},
{
name = top;
pos = (444,700);
},
{
name = topleft;
pos = (126,700);
}
);
hints = (
{
horizontal = 1;
origin = (1,3);
target = up;
type = BottomGhost;
},
{
horizontal = 1;
origin = (2,3);
target = (2,2);
type = Stem;
},
{
horizontal = 1;
origin = (1,2);
target = down;
type = TopGhost;
},
{
origin = (1,3);
target = (1,0);
type = Stem;
},
{
origin = (0,3);
target = (0,0);
type = Stem;
}
);
layerId = "B51EB05F-9FBB-4087-814F-400611B2D4B0";
shapes = (
{
closed = 1;
nodes = (
(618,0,l),
(745,720,l),
(595,720,l),
(468,0,l)
);
},
{
closed = 1;
nodes = (
(173,0,l),
(300,720,l),
(150,720,l),
(23,0,l)
);
},
{
closed = 1;
nodes = (
(583,310,l),
(604,430,l),
(184,430,l),
(163,310,l)
);
}
);
width = 735;
}
);
subCategory = Uppercase;
unicode = 72;
},
{
glyphname = Hbar;
kernLeft = I;
kernRight = I;
lastChange = "2026-01-08 00:01:50 +0000";
layers = (
{
hints = (
{
horizontal = 1;
origin = (1,3);
target = up;
type = BottomGhost;
},
{
horizontal = 1;
origin = (2,3);
target = (2,2);
type = Stem;
},
{
horizontal = 1;
origin = (3,3);
target = (3,2);
type = Stem;
},
{
horizontal = 1;
origin = (3,3);
target = (1,2);
type = Stem;
},
{
origin = (1,3);
target = (1,0);
type = Stem;
},
{
origin = (0,3);
target = (0,0);
type = Stem;
}
);
layerId = "05246BF3-0764-4143-87C4-5D2B296D3790";
shapes = (
{
closed = 1;
nodes = (
(579,0,l),
(706,720,l),
(616,720,l),
(489,0,l)
);
},
{
closed = 1;
nodes = (
(134,0,l),
(261,720,l),
(171,720,l),
(44,0,l)
);
},
{
closed = 1;
nodes = (
(577,330,l),
(591,410,l),
(171,410,l),
(157,330,l)
);
},
{
closed = 1;
nodes = (
(741,520,l),
(755,600,l),
(80,600,l),
(66,520,l)
);
}
);
width = 715;
},
{
hints = (
{
horizontal = 1;
origin = (1,3);
target = up;
type = BottomGhost;
},
{
horizontal = 1;
origin = (2,3);
target = (2,2);
type = Stem;
},
{
horizontal = 1;
origin = (3,3);
target = (3,2);
type = Stem;
},
{
horizontal = 1;
origin = (1,2);
target = (3,3);
type = Stem;
},
{
origin = (1,3);
target = (1,0);
type = Stem;
},
{
origin = (0,3);
target = (0,0);
type = Stem;
}
);
layerId = "B51EB05F-9FBB-4087-814F-400611B2D4B0";
shapes = (
{
closed = 1;
nodes = (
(619,0,l),
(746,720,l),
(596,720,l),
(469,0,l)
);
},
{
closed = 1;
nodes = (
(174,0,l),
(301,720,l),
(151,720,l),
(24,0,l)
);
},
{
closed = 1;
nodes = (
(584,310,l),
(605,430,l),
(185,430,l),
(164,310,l)
);
},
{
closed = 1;
nodes = (
(778,505,l),
(797,615,l),
(62,615,l),
(43,505,l)
);
}
);
width = 736;
}
);
subCategory = Uppercase;
unicode = 294;
},
{
glyphname = I;
kernLeft = I;
kernRight = I;
lastChange = "2026-01-08 00:01:50 +0000";
layers = (
{
anchors = (
{
name = bottom;
pos = (89,0);
},
{
name = ogonek;
pos = (199,10);
},
{
name = top;
pos = (216,720);
},
{
name = topleft;
pos = (101,720);
}
);
hints = (
{
horizontal = 1;
origin = (0,3);
target = up;
type = BottomGhost;
},
{
horizontal = 1;
origin = (0,2);
target = down;
type = TopGhost;
},
{
origin = (0,3);
target = (0,0);
type = Stem;
}
);
layerId = "05246BF3-0764-4143-87C4-5D2B296D3790";
shapes = (
{
closed = 1;
nodes = (
(134,0,l),
(261,720,l),
(171,720,l),
(44,0,l)
);
}
);
width = 270;
},
{
anchors = (
{
name = bottom;
pos = (98,0);
},
{
name = ogonek;
pos = (216,10);
},
{
name = top;
pos = (225,720);
},
{
name = topleft;
pos = (100,720);
}
);
hints = (
{
horizontal = 1;
origin = (0,3);
target = up;
type = BottomGhost;
},
{
horizontal = 1;
origin = (0,2);
target = down;
type = TopGhost;
},
{
origin = (0,3);
target = (0,0);
type = Stem;
}
);
layerId = "B51EB05F-9FBB-4087-814F-400611B2D4B0";
shapes = (
{
closed = 1;
nodes = (
(173,0,l),
(300,720,l),
(150,720,l),
(23,0,l)
);
}
);
width = 290;
}
);
subCategory = Uppercase;
unicode = 73;
},
{
glyphname = Iogonek;
lastChange = "2026-01-08 00:01:50 +0000";
layers = (
{
hints = (
{
horizontal = 1;
origin = (0,6);
target = up;
type = BottomGhost;
},
{
horizontal = 1;
origin = (0,5);
target = down;
type = TopGhost;
},
{
origin = (0,6);
target = (0,3);
type = Stem;
},
{
horizontal = 1;
place = (-322,-56);
type = Stem;
},
{
place = (-123,-41);
type = Stem;
}
);
layerId = "05246BF3-0764-4143-87C4-5D2B296D3790";
shapes = (
{
closed = 1;
nodes = (
(103,-121,l),
(-9,-143,o),
(18,-67,o),
(140,0,c),
(267,720,l),
(177,720,l),
(50,0,l),
(-112,-80,o),
(-83,-224,o),
(90,-191,c)
);
}
);
width = 276;
},
{
hints = (
{
horizontal = 1;
origin = (0,6);
target = up;
type = BottomGhost;
},
{
horizontal = 1;
origin = (0,5);
target = down;
type = TopGhost;
},
{
origin = (0,6);
target = (0,3);
type = Stem;
},
{
horizontal = 1;
place = (-325,-39);
type = Stem;
},
{
place = (-138,19);
type = Stem;
}
);
layerId = "B51EB05F-9FBB-4087-814F-400611B2D4B0";
shapes = (
{
closed = 1;
nodes = (
(151,-105,l),
(39,-127,o),
(53,-67,o),
(175,0,c),
(302,720,l),
(152,720,l),
(25,0,l),
(-149,-86,o),
(-88,-233,o),
(136,-190,c)
);
}
);
width = 292;
}
);
subCategory = Uppercase;
unicode = 302;
},
{
glyphname = J;
kernLeft = J;
kernRight = J;
lastChange = "2026-01-08 00:01:50 +0000";
layers = (
{
anchors = (
{
name = bottom;
pos = (199,-10);
},
{
name = top;
pos = (494,720);
}
);
hints = (
{
horizontal = 1;
origin = (0,15);
target = (0,8);
type = Stem;
},
{
horizontal = 1;
origin = (0,4);
target = down;
type = TopGhost;
},
{
origin = (0,12);
target = (0,11);
type = Stem;
},
{
origin = (0,5);
target = (0,2);
type = Stem;
}
);
layerId = "05246BF3-0764-4143-87C4-5D2B296D3790";
shapes = (
{
closed = 1;
nodes = (
(319,-10,o),
(428,60,o),
(452,200,c),
(544,720,l),
(454,720,l),
(362,200,l),
(346,110,o),
(293,70,o),
(213,70,cs),
(133,70,o),
(93,110,o),
(109,200,c),
(19,200,l),
(-5,60,o),
(79,-10,o),
(199,-10,cs)
);
}
);
width = 543;
},
{
anchors = (
{
name = bottom;
pos = (213,-10);
},
{
name = top;
pos = (513,720);
}
);
hints = (
{
horizontal = 1;
origin = (0,15);
target = (0,8);
type = Stem;
},
{
horizontal = 1;
origin = (0,4);
target = down;
type = TopGhost;
},
{
origin = (0,12);
target = (0,11);
type = Stem;
},
{
origin = (0,5);
target = (0,2);
type = Stem;
}
);
layerId = "B51EB05F-9FBB-4087-814F-400611B2D4B0";
shapes = (
{
closed = 1;
nodes = (
(353,-10,o),
(468,40,o),
(496,200,c),
(588,720,l),
(438,720,l),
(346,200,l),
(335,135,o),
(289,110,o),
(234,110,cs),
(169,110,o),
(143,140,o),
(158,225,c),
(8,225,l),
(-22,55,o),
(63,-10,o),
(213,-10,cs)
);
}
);
width = 568;
}
);
subCategory = Uppercase;
unicode = 74;
},
{
glyphname = K;
kernLeft = I;
kernRight = K;
lastChange = "2026-01-08 00:01:50 +0000";
layers = (
{
anchors = (
{
name = bottom;
pos = (274,0);
},
{
name = top;
pos = (397,700);
}
);
hints = (
{
horizontal = 1;
origin = (1,3);
target = up;
type = BottomGhost;
},
{
horizontal = 1;
origin = (1,2);
target = down;
type = TopGhost;
},
{
origin = (1,3);
target = (1,0);
type = Stem;
}
);
layerId = "05246BF3-0764-4143-87C4-5D2B296D3790";
shapes = (
{
closed = 1;
nodes = (
(661,720,l),
(556,720,l),
(118,305,l),
(179,253,l)
);
},
{
closed = 1;
nodes = (
(134,0,l),
(261,720,l),
(171,720,l),
(44,0,l)
);
},
{
closed = 1;
nodes = (
(574,0,l),
(315,410,l),
(244,357,l),
(469,0,l)
);
}
);
width = 650;
},
{
anchors = (
{
name = bottom;
pos = (288,0);
},
{
name = top;
pos = (411,700);
}
);
hints = (
{
horizontal = 1;
origin = (1,3);
target = up;
type = BottomGhost;
},
{
horizontal = 1;
origin = (1,2);
target = down;
type = TopGhost;
},
{
origin = (1,3);
target = (1,0);
type = Stem;
}
);
layerId = "B51EB05F-9FBB-4087-814F-400611B2D4B0";
shapes = (
{
closed = 1;
nodes = (
(735,720,l),
(560,720,l),
(122,305,l),
(207,223,l)
);
},
{
closed = 1;
nodes = (
(178,0,l),
(305,720,l),
(155,720,l),
(28,0,l)
);
},
{
closed = 1;
nodes = (
(648,0,l),
(389,410,l),
(248,357,l),
(473,0,l)
);
}
);
width = 710;
}
);
subCategory = Uppercase;
unicode = 75;
},
{
glyphname = L;
kernLeft = I;
kernRight = L;
lastChange = "2026-01-08 00:03:51 +0000";
layers = (
{
anchors = (
{
name = bottom;
pos = (217,0);
},
{
name = center;
pos = (281,360);
},
{
name = top;
pos = (344,720);
},
{
name = topright;
pos = (587,720);
}
);
hints = (
{
horizontal = 1;
place = (0,80);
type = Stem;
},
{
horizontal = 1;
place = (720,-20);
target = down;
type = TopGhost;
},
{
place = (44,90);
type = Stem;
}
);
layerId = "05246BF3-0764-4143-87C4-5D2B296D3790";
shapes = (
{
closed = 1;
nodes = (
(135,0,l),
(261,720,l),
(171,720,l),
(45,0,l)
);
},
{
closed = 1;
nodes = (
(450,0,l),
(464,80,l),
(114,80,l),
(100,0,l)
);
}
);
width = 526;
},
{
anchors = (
{
name = bottom;
pos = (231,0);
},
{
name = center;
pos = (295,360);
},
{
name = top;
pos = (358,720);
},
{
name = topright;
pos = (616,720);
}
);
hints = (
{
horizontal = 1;
place = (0,120);
type = Stem;
},
{
horizontal = 1;
place = (720,-20);
target = down;
type = TopGhost;
},
{
place = (23,160);
type = Stem;
}
);
layerId = "B51EB05F-9FBB-4087-814F-400611B2D4B0";
shapes = (
{
closed = 1;
nodes = (
(184,0,l),
(310,720,l),
(150,720,l),
(24,0,l)
);
},
{
closed = 1;
nodes = (
(499,0,l),
(520,120,l),
(130,120,l),
(109,0,l)
);
}
);
width = 556;
}
);
subCategory = Uppercase;
unicode = 76;
},
{
glyphname = Lslash;
kernLeft = B;
kernRight = L;
lastChange = "2026-01-08 00:01:50 +0000";
layers = (
{
hints = (
{
horizontal = 1;
origin = (0,1);
target = down;
type = TopGhost;
}
);
layerId = "05246BF3-0764-4143-87C4-5D2B296D3790";
shapes = (
{
closed = 1;
nodes = (
(373,450,l),
(386,520,l),
(51,381,l),
(39,311,l)
);
},
{
pos = (88,0);
ref = L;
}
);
width = 613;
},
{
hints = (
{
horizontal = 1;
origin = (0,1);
target = down;
type = TopGhost;
},
{
origin = (0,3);
target = (0,0);
type = Stem;
}
);
layerId = "B51EB05F-9FBB-4087-814F-400611B2D4B0";
shapes = (
{
closed = 1;
nodes = (
(447,420,l),
(466,530,l),
(60,381,l),
(41,271,l)
);
},
{
pos = (107,0);
ref = L;
}
);
width = 662;
}
);
subCategory = Uppercase;
unicode = 321;
},
{
glyphname = M;
kernLeft = I;
kernRight = I;
lastChange = "2026-01-08 00:01:50 +0000";
layers = (
{
anchors = (
{
name = bottom;
pos = (409,0);
},
{
name = top;
pos = (532,700);
}
);
hints = (
{
horizontal = 1;
origin = (1,3);
target = up;
type = BottomGhost;
},
{
horizontal = 1;
origin = (1,2);
target = (2,5);
type = Stem;
},
{
horizontal = 1;
origin = (1,3);
target = (0,6);
type = Stem;
},
{
origin = (1,3);
target = (1,0);
type = Stem;
},
{
origin = (3,3);
target = (3,0);
type = Stem;
}
);
layerId = "05246BF3-0764-4143-87C4-5D2B296D3790";
shapes = (
{
closed = 1;
nodes = (
(459,0,l),
(774,568,l),
(788,568,l),
(861,720,l),
(771,720,l),
(434,131,l),
(430,131,l),
(359,0,l)
);
},
{
closed = 1;
nodes = (
(134,0,l),
(261,720,l),
(171,720,l),
(44,0,l)
);
},
{
closed = 1;
nodes = (
(459,0,l),
(434,131,l),
(430,131,l),
(301,720,l),
(211,720,l),
(229,568,l),
(244,568,l),
(359,0,l)
);
},
{
closed = 1;
nodes = (
(774,0,l),
(901,720,l),
(811,720,l),
(684,0,l)
);
}
);
width = 910;
},
{
anchors = (
{
name = bottom;
pos = (408,0);
},
{
name = top;
pos = (531,700);
}
);
hints = (
{
horizontal = 1;
origin = (1,3);
target = up;
type = BottomGhost;
},
{
horizontal = 1;
origin = (1,2);
target = down;
type = TopGhost;
},
{
horizontal = 1;
origin = (1,2);
target = (2,5);
type = Stem;
},
{
origin = (1,3);
target = (1,0);
type = Stem;
},
{
origin = (3,3);
target = (3,0);
type = Stem;
}
);
layerId = "B51EB05F-9FBB-4087-814F-400611B2D4B0";
shapes = (
{
closed = 1;
nodes = (
(453,0,l),
(715,462,l),
(737,462,l),
(900,720,l),
(730,720,l),
(453,227,l),
(443,227,l),
(363,0,l)
);
},
{
closed = 1;
nodes = (
(173,0,l),
(300,720,l),
(150,720,l),
(23,0,l)
);
},
{
closed = 1;
nodes = (
(453,0,l),
(453,227,l),
(443,227,l),
(340,720,l),
(170,720,l),
(244,462,l),
(265,462,l),
(363,0,l)
);
},
{
closed = 1;
nodes = (
(793,0,l),
(920,720,l),
(770,720,l),
(643,0,l)
);
}
);
width = 910;
}
);
subCategory = Uppercase;
unicode = 77;
},
{
glyphname = N;
kernLeft = I;
kernRight = I;
lastChange = "2026-01-08 00:01:50 +0000";
layers = (
{
anchors = (
{
name = bottom;
pos = (334,0);
},
{
name = top;
pos = (461,720);
}
);
hints = (
{
horizontal = 1;
origin = (1,3);
target = (0,2);
type = Stem;
},
{
horizontal = 1;
origin = (1,2);
target = (0,5);
type = Stem;
},
{
origin = (1,3);
target = (1,0);
type = Stem;
},
{
place = (463,-42);
type = Stem;
}
);
layerId = "05246BF3-0764-4143-87C4-5D2B296D3790";
shapes = (
{
closed = 1;
nodes = (
(609,0,l),
(566,121,l),
(555,121,l),
(291,720,l),
(196,720,l),
(239,599,l),
(250,599,l),
(514,0,l)
);
},
{
closed = 1;
nodes = (
(134,0,l),
(261,720,l),
(171,720,l),
(44,0,l)
);
},
{
closed = 1;
nodes = (
(634,0,l),
(761,720,l),
(671,720,l),
(544,0,l)
);
}
);
width = 770;
},
{
anchors = (
{
name = bottom;
pos = (333,0);
},
{
name = top;
pos = (460,720);
}
);
hints = (
{
horizontal = 1;
origin = (1,3);
target = up;
type = BottomGhost;
},
{
horizontal = 1;
origin = (1,2);
target = down;
type = TopGhost;
},
{
origin = (1,3);
target = (1,0);
type = Stem;
},
{
origin = (2,3);
target = (2,0);
type = Stem;
}
);
layerId = "B51EB05F-9FBB-4087-814F-400611B2D4B0";
shapes = (
{
closed = 1;
nodes = (
(628,0,l),
(535,234,l),
(524,234,l),
(310,720,l),
(165,720,l),
(258,486,l),
(269,486,l),
(483,0,l)
);
},
{
closed = 1;
nodes = (
(173,0,l),
(300,720,l),
(150,720,l),
(23,0,l)
);
},
{
closed = 1;
nodes = (
(643,0,l),
(770,720,l),
(620,720,l),
(493,0,l)
);
}
);
width = 760;
}
);
subCategory = Uppercase;
unicode = 78;
},
{
glyphname = Eng;
kernLeft = I;
kernRight = I;
lastChange = "2026-01-08 00:01:50 +0000";
layers = (
{
anchors = (
{
name = bottom;
pos = (334,0);
},
{
name = top;
pos = (461,720);
}
);
hints = (
{
horizontal = 1;
origin = (0,24);
target = (0,23);
type = Stem;
},
{
origin = (0,19);
target = (0,3);
type = Stem;
},
{
horizontal = 1;
origin = (0,13);
target = (0,8);
type = Stem;
},
{
horizontal = 1;
origin = (0,12);
target = (0,15);
type = Stem;
},
{
origin = (0,13);
target = (0,14);
type = Stem;
},
{
place = (463,-42);
type = Stem;
}
);
layerId = "05246BF3-0764-4143-87C4-5D2B296D3790";
shapes = (
{
closed = 1;
nodes = (
(494,-200,ls),
(544,-200,o),
(606,-160,o),
(618,-90,cs),
(634,0,l),
(761,720,l),
(671,720,l),
(565,121,l),
(555,121,l),
(291,720,l),
(261,720,l),
(196,720,l),
(171,720,l),
(44,0,l),
(134,0,l),
(240,599,l),
(250,599,l),
(514,0,l),
(544,0,l),
(528,-90,ls),
(523,-120,o),
(497,-130,o),
(477,-130,cs),
(421,-130,l),
(409,-200,l)
);
}
);
width = 770;
},
{
anchors = (
{
name = bottom;
pos = (333,0);
},
{
name = top;
pos = (460,720);
}
);
hints = (
{
horizontal = 1;
place = (-327,-17);
type = Stem;
},
{
place = (413,23);
type = Stem;
},
{
horizontal = 1;
origin = (0,13);
target = up;
type = BottomGhost;
},
{
horizontal = 1;
origin = (0,12);
target = down;
type = TopGhost;
},
{
origin = (0,13);
target = (0,14);
type = Stem;
},
{
origin = (0,18);
target = (0,4);
type = Stem;
}
);
layerId = "B51EB05F-9FBB-4087-814F-400611B2D4B0";
shapes = (
{
closed = 1;
nodes = (
(503,-200,ls),
(553,-200,o),
(615,-160,o),
(627,-90,cs),
(643,0,l),
(770,720,l),
(620,720,l),
(534,234,l),
(524,234,l),
(310,720,l),
(300,720,l),
(165,720,l),
(150,720,l),
(23,0,l),
(173,0,l),
(259,486,l),
(269,486,l),
(483,0,l),
(493,0,l),
(482,-60,ls),
(477,-90,o),
(451,-100,o),
(431,-100,cs),
(405,-100,l),
(388,-200,l)
);
}
);
width = 760;
}
);
subCategory = Uppercase;
unicode = 330;
},
{
glyphname = O;
kernLeft = C;
kernRight = O;
lastChange = "2026-01-08 00:01:50 +0000";
layers = (
{
anchors = (
{
name = bottom;
pos = (329,0);
},
{
name = center;
pos = (391,350);
},
{
name = ogonek;
pos = (603,10);
},
{
name = top;
pos = (458,730);
},
{
name = topleft;
pos = (132,700);
},
{
name = topright;
pos = (772,700);
}
);
hints = (
{
horizontal = 1;
origin = (0,11);
target = (1,11);
type = Stem;
},
{
horizontal = 1;
origin = (0,5);
target = (1,5);
type = Stem;
},
{
origin = (0,8);
target = (1,2);
type = Stem;
},
{
origin = (1,8);
target = (0,2);
type = Stem;
}
);
layerId = "05246BF3-0764-4143-87C4-5D2B296D3790";
shapes = (
{
closed = 1;
nodes = (
(547,-10,o),
(672,160,o),
(708,360,cs),
(743,560,o),
(678,730,o),
(458,730,cs),
(238,730,o),
(113,560,o),
(78,360,cs),
(42,160,o),
(107,-10,o),
(327,-10,cs)
);
},
{
closed = 1;
nodes = (
(181,70,o),
(139,200,o),
(168,360,cs),
(196,520,o),
(284,650,o),
(444,650,cs),
(604,650,o),
(646,520,o),
(618,360,cs),
(589,200,o),
(501,70,o),
(341,70,cs)
);
}
);
width = 750;
},
{
anchors = (
{
name = bottom;
pos = (318,0);
},
{
name = center;
pos = (380,350);
},
{
name = ogonek;
pos = (592,10);
},
{
name = top;
pos = (447,730);
},
{
name = topleft;
pos = (121,700);
},
{
name = topright;
pos = (761,700);
}
);
hints = (
{
horizontal = 1;
origin = (0,11);
target = (1,11);
type = Stem;
},
{
horizontal = 1;
origin = (0,5);
target = (1,5);
type = Stem;
},
{
origin = (0,8);
target = (1,2);
type = Stem;
},
{
origin = (1,8);
target = (0,2);
type = Stem;
}
);
layerId = "B51EB05F-9FBB-4087-814F-400611B2D4B0";
shapes = (
{
closed = 1;
nodes = (
(541,-10,o),
(669,145,o),
(707,360,cs),
(744,575,o),
(672,730,o),
(447,730,cs),
(222,730,o),
(94,575,o),
(57,360,cs),
(19,145,o),
(91,-10,o),
(316,-10,cs)
);
},
{
closed = 1;
nodes = (
(197,110,o),
(184,230,o),
(207,360,cs),
(229,490,o),
(286,610,o),
(426,610,cs),
(566,610,o),
(579,490,o),
(557,360,cs),
(534,230,o),
(477,110,o),
(337,110,cs)
);
}
);
width = 730;
}
);
subCategory = Uppercase;
unicode = 79;
},
{
glyphname = Oslash;
kernLeft = C;
kernRight = O;
lastChange = "2026-01-08 00:01:50 +0000";
layers = (
{
hints = (
{
horizontal = 1;
origin = (0,3);
target = up;
type = BottomGhost;
},
{
horizontal = 1;
origin = (0,2);
target = down;
type = TopGhost;
}
);
layerId = "05246BF3-0764-4143-87C4-5D2B296D3790";
shapes = (
{
closed = 1;
nodes = (
(52,-10,l),
(763,730,l),
(693,730,l),
(-18,-10,l)
);
},
{
pos = (-27,0);
ref = O;
}
);
width = 710;
},
{
hints = (
{
horizontal = 1;
origin = (0,3);
target = up;
type = BottomGhost;
},
{
horizontal = 1;
origin = (0,2);
target = down;
type = TopGhost;
}
);
layerId = "B51EB05F-9FBB-4087-814F-400611B2D4B0";
shapes = (
{
closed = 1;
nodes = (
(82,-10,l),
(813,730,l),
(703,730,l),
(-28,-10,l)
);
},
{
pos = (3,0);
ref = O;
}
);
width = 751;
}
);
subCategory = Uppercase;
unicode = 216;
},
{
glyphname = OE;
kernLeft = C;
kernRight = E;
lastChange = "2026-01-08 00:01:50 +0000";
layers = (
{
hints = (
{
horizontal = 1;
origin = (2,3);
target = (3,2);
type = Stem;
},
{
horizontal = 1;
origin = (4,3);
target = (4,2);
type = Stem;
},
{
horizontal = 1;
origin = (2,2);
target = (5,3);
type = Stem;
},
{
horizontal = 1;
origin = (0,11);
target = (1,11);
type = Stem;
},
{
horizontal = 1;
origin = (0,5);
target = (1,5);
type = Stem;
},
{
origin = (0,8);
target = (1,2);
type = Stem;
},
{
origin = (2,3);
target = (2,0);
type = Stem;
}
);
layerId = "05246BF3-0764-4143-87C4-5D2B296D3790";
shapes = (
{
closed = 1;
nodes = (
(547,-10,o),
(672,160,o),
(708,360,cs),
(743,560,o),
(678,730,o),
(458,730,cs),
(238,730,o),
(113,560,o),
(78,360,cs),
(42,160,o),
(107,-10,o),
(327,-10,cs)
);
},
{
closed = 1;
nodes = (
(181,70,o),
(139,200,o),
(168,360,cs),
(196,520,o),
(284,650,o),
(444,650,cs),
(604,650,o),
(646,520,o),
(618,360,cs),
(589,200,o),
(501,70,o),
(341,70,cs)
);
},
{
closed = 1;
nodes = (
(644,0,l),
(771,720,l),
(681,720,l),
(554,0,l)
);
},
{
closed = 1;
nodes = (
(999,0,l),
(1013,80,l),
(623,80,l),
(609,0,l)
);
},
{
closed = 1;
nodes = (
(1007,330,l),
(1021,410,l),
(681,410,l),
(667,330,l)
);
},
{
closed = 1;
nodes = (
(1112,640,l),
(1126,720,l),
(736,720,l),
(722,640,l)
);
}
);
width = 1115;
},
{
hints = (
{
horizontal = 1;
origin = (2,3);
target = (3,2);
type = Stem;
},
{
horizontal = 1;
origin = (4,3);
target = (4,2);
type = Stem;
},
{
horizontal = 1;
origin = (2,2);
target = (5,3);
type = Stem;
},
{
horizontal = 1;
origin = (0,11);
target = (1,11);
type = Stem;
},
{
horizontal = 1;
origin = (0,5);
target = (1,5);
type = Stem;
},
{
origin = (0,8);
target = (1,2);
type = Stem;
},
{
origin = (2,3);
target = (2,0);
type = Stem;
}
);
layerId = "B51EB05F-9FBB-4087-814F-400611B2D4B0";
shapes = (
{
closed = 1;
nodes = (
(541,-10,o),
(669,145,o),
(707,360,cs),
(744,575,o),
(672,730,o),
(447,730,cs),
(222,730,o),
(94,575,o),
(57,360,cs),
(19,145,o),
(91,-10,o),
(316,-10,cs)
);
},
{
closed = 1;
nodes = (
(197,110,o),
(184,230,o),
(207,360,cs),
(229,490,o),
(286,610,o),
(426,610,cs),
(566,610,o),
(579,490,o),
(557,360,cs),
(534,230,o),
(477,110,o),
(337,110,cs)
);
},
{
closed = 1;
nodes = (
(643,0,l),
(770,720,l),
(620,720,l),
(493,0,l)
);
},
{
closed = 1;
nodes = (
(968,0,l),
(989,120,l),
(599,120,l),
(578,0,l)
);
},
{
closed = 1;
nodes = (
(973,310,l),
(994,430,l),
(654,430,l),
(633,310,l)
);
},
{
closed = 1;
nodes = (
(1074,600,l),
(1095,720,l),
(705,720,l),
(684,600,l)
);
}
);
width = 1065;
}
);
subCategory = Uppercase;
unicode = 338;
},
{
glyphname = P;
kernLeft = I;
kernRight = P;
lastChange = "2026-01-08 00:01:50 +0000";
layers = (
{
anchors = (
{
name = bottom;
pos = (267,0);
},
{
name = top;
pos = (390,700);
}
);
hints = (
{
horizontal = 1;
origin = (1,3);
target = up;
type = BottomGhost;
},
{
horizontal = 1;
origin = (0,17);
target = (0,16);
type = Stem;
},
{
horizontal = 1;
origin = (1,2);
target = (0,8);
type = Stem;
},
{
origin = (1,3);
target = (1,0);
type = Stem;
},
{
origin = (0,12);
target = (0,3);
type = Stem;
}
);
layerId = "05246BF3-0764-4143-87C4-5D2B296D3790";
shapes = (
{
closed = 1;
nodes = (
(320,260,l),
(500,260,o),
(588,360,o),
(610,490,cs),
(633,620,o),
(581,720,o),
(401,720,c),
(211,720,l),
(197,640,l),
(387,640,l),
(497,640,o),
(540,600,o),
(520,490,cs),
(501,380,o),
(444,340,o),
(334,340,c),
(144,340,l),
(130,260,l)
);
},
{
closed = 1;
nodes = (
(134,0,l),
(261,720,l),
(171,720,l),
(44,0,l)
);
}
);
width = 619;
},
{
anchors = (
{
name = bottom;
pos = (276,0);
},
{
name = top;
pos = (399,700);
}
);
hints = (
{
horizontal = 1;
origin = (1,3);
target = up;
type = BottomGhost;
},
{
horizontal = 1;
origin = (0,17);
target = (0,16);
type = Stem;
},
{
horizontal = 1;
origin = (1,2);
target = (0,8);
type = Stem;
},
{
origin = (1,3);
target = (1,0);
type = Stem;
},
{
origin = (0,12);
target = (0,3);
type = Stem;
}
);
layerId = "B51EB05F-9FBB-4087-814F-400611B2D4B0";
shapes = (
{
closed = 1;
nodes = (
(325,240,l),
(525,240,o),
(622,335,o),
(648,480,cs),
(673,625,o),
(610,720,o),
(410,720,c),
(220,720,l),
(199,600,l),
(389,600,l),
(474,600,o),
(513,565,o),
(498,480,cs),
(483,395,o),
(432,360,o),
(347,360,c),
(157,360,l),
(135,240,l)
);
},
{
closed = 1;
nodes = (
(173,0,l),
(300,720,l),
(150,720,l),
(23,0,l)
);
}
);
width = 640;
}
);
subCategory = Uppercase;
unicode = 80;
},
{
glyphname = Thorn;
kernLeft = B;
kernRight = Thorn;
lastChange = "2026-01-08 00:01:50 +0000";
layers = (
{
hints = (
{
horizontal = 1;
origin = (1,3);
target = up;
type = BottomGhost;
},
{
horizontal = 1;
origin = (0,17);
target = (0,16);
type = Stem;
},
{
horizontal = 1;
origin = (0,8);
target = (0,7);
type = Stem;
},
{
horizontal = 1;
origin = (1,2);
target = down;
type = TopGhost;
},
{
origin = (1,3);
target = (1,0);
type = Stem;
},
{
origin = (0,12);
target = (0,3);
type = Stem;
}
);
layerId = "05246BF3-0764-4143-87C4-5D2B296D3790";
shapes = (
{
closed = 1;
nodes = (
(314,170,l),
(474,170,o),
(560,260,o),
(579,370,cs),
(599,480,o),
(545,570,o),
(385,570,c),
(185,570,l),
(172,500,l),
(372,500,l),
(462,500,o),
(515,460,o),
(499,370,cs),
(483,280,o),
(416,240,o),
(326,240,c),
(126,240,l),
(114,170,l)
);
},
{
closed = 1;
nodes = (
(124,0,l),
(251,720,l),
(171,720,l),
(44,0,l)
);
}
);
width = 600;
},
{
hints = (
{
horizontal = 1;
origin = (1,3);
target = up;
type = BottomGhost;
},
{
horizontal = 1;
origin = (0,17);
target = (0,16);
type = Stem;
},
{
horizontal = 1;
origin = (0,8);
target = (0,7);
type = Stem;
},
{
horizontal = 1;
origin = (1,2);
target = down;
type = TopGhost;
},
{
origin = (1,3);
target = (1,0);
type = Stem;
},
{
origin = (0,12);
target = (0,3);
type = Stem;
}
);
layerId = "B51EB05F-9FBB-4087-814F-400611B2D4B0";
shapes = (
{
closed = 1;
nodes = (
(313,170,l),
(488,170,o),
(586,245,o),
(608,370,cs),
(630,495,o),
(559,570,o),
(384,570,c),
(184,570,l),
(164,460,l),
(364,460,l),
(434,460,o),
(471,440,o),
(458,370,cs),
(446,300,o),
(402,280,o),
(332,280,c),
(132,280,l),
(113,170,l)
);
},
{
closed = 1;
nodes = (
(153,0,l),
(280,720,l),
(150,720,l),
(23,0,l)
);
}
);
width = 609;
}
);
subCategory = Uppercase;
unicode = 222;
},
{
glyphname = Q;
kernLeft = C;
kernRight = O;
lastChange = "2026-01-08 00:01:50 +0000";
layers = (
{
anchors = (
{
name = bottom;
pos = (236,0);
},
{
name = top;
pos = (356,700);
}
);
hints = (
{
horizontal = 1;
origin = (0,9);
target = (0,2);
type = Stem;
},
{
origin = (1,2);
target = (0,0);
type = Stem;
}
);
layerId = "05246BF3-0764-4143-87C4-5D2B296D3790";
shapes = (
{
closed = 1;
nodes = (
(389,-160,l),
(403,-80,l),
(347,-80,ls),
(331,-80,o),
(313,-72,o),
(310,-54,c),
(218,-92,l),
(226,-135,o),
(265,-160,o),
(304,-160,cs)
);
},
{
closed = 1;
nodes = (
(310,-54,l),
(293,40,l),
(193,40,l),
(218,-92,l)
);
},
{
ref = O;
}
);
width = 750;
},
{
anchors = (
{
name = bottom;
pos = (246,0);
},
{
name = top;
pos = (356,700);
}
);
hints = (
{
horizontal = 1;
origin = (0,9);
target = (0,2);
type = Stem;
},
{
origin = (1,2);
target = (0,0);
type = Stem;
}
);
layerId = "B51EB05F-9FBB-4087-814F-400611B2D4B0";
shapes = (
{
closed = 1;
nodes = (
(429,-160,l),
(448,-50,l),
(392,-50,ls),
(366,-50,o),
(352,-46,o),
(347,-24,c),
(198,-92,l),
(206,-135,o),
(245,-160,o),
(284,-160,cs)
);
},
{
closed = 1;
nodes = (
(347,-24,l),
(333,40,l),
(173,40,l),
(198,-92,l)
);
},
{
ref = O;
}
);
width = 730;
}
);
subCategory = Uppercase;
unicode = 81;
},
{
glyphname = R;
kernLeft = I;
kernRight = R;
lastChange = "2026-01-08 00:01:50 +0000";
layers = (
{
anchors = (
{
name = bottom;
pos = (274,0);
},
{
name = top;
pos = (397,700);
}
);
hints = (
{
horizontal = 1;
origin = (1,3);
target = up;
type = BottomGhost;
},
{
horizontal = 1;
origin = (0,17);
target = (0,16);
type = Stem;
},
{
horizontal = 1;
origin = (1,2);
target = (0,8);
type = Stem;
},
{
origin = (1,3);
target = (1,0);
type = Stem;
},
{
origin = (0,12);
target = (0,3);
type = Stem;
}
);
layerId = "05246BF3-0764-4143-87C4-5D2B296D3790";
shapes = (
{
closed = 1;
nodes = (
(340,260,l),
(520,260,o),
(608,360,o),
(630,490,cs),
(653,620,o),
(601,720,o),
(421,720,c),
(211,720,l),
(197,640,l),
(407,640,l),
(517,640,o),
(560,600,o),
(540,490,cs),
(521,380,o),
(464,340,o),
(354,340,c),
(144,340,l),
(130,260,l)
);
},
{
closed = 1;
nodes = (
(134,0,l),
(261,720,l),
(171,720,l),
(44,0,l)
);
},
{
closed = 1;
nodes = (
(569,0,l),
(457,300,l),
(357,300,l),
(469,0,l)
);
}
);
width = 665;
},
{
anchors = (
{
name = bottom;
pos = (283,0);
},
{
name = top;
pos = (410,720);
}
);
hints = (
{
horizontal = 1;
origin = (1,3);
target = up;
type = BottomGhost;
},
{
horizontal = 1;
origin = (0,17);
target = (0,16);
type = Stem;
},
{
horizontal = 1;
origin = (1,2);
target = (0,8);
type = Stem;
},
{
origin = (1,3);
target = (1,0);
type = Stem;
},
{
origin = (0,12);
target = (0,3);
type = Stem;
}
);
layerId = "B51EB05F-9FBB-4087-814F-400611B2D4B0";
shapes = (
{
closed = 1;
nodes = (
(325,240,l),
(525,240,o),
(622,335,o),
(648,480,cs),
(673,625,o),
(610,720,o),
(410,720,c),
(220,720,l),
(199,600,l),
(389,600,l),
(474,600,o),
(513,565,o),
(498,480,cs),
(483,395,o),
(432,360,o),
(347,360,c),
(157,360,l),
(135,240,l)
);
},
{
closed = 1;
nodes = (
(173,0,l),
(300,720,l),
(150,720,l),
(23,0,l)
);
},
{
closed = 1;
nodes = (
(588,0,l),
(476,300,l),
(316,300,l),
(428,0,l)
);
}
);
width = 665;
}
);
subCategory = Uppercase;
unicode = 82;
},
{
glyphname = S;
kernLeft = S;
kernRight = S;
lastChange = "2026-01-08 00:01:50 +0000";
layers = (
{
anchors = (
{
name = bottom;
pos = (262,0);
},
{
name = top;
pos = (391,729);
}
);
hints = (
{
horizontal = 1;
origin = (0,30);
target = (0,37);
type = Stem;
},
{
horizontal = 1;
origin = (0,18);
target = (0,11);
type = Stem;
},
{
origin = (0,21);
target = (0,8);
type = Stem;
},
{
origin = (0,27);
target = (0,2);
type = Stem;
}
);
layerId = "05246BF3-0764-4143-87C4-5D2B296D3790";
shapes = (
{
closed = 1;
nodes = (
(430,-10,o),
(545,63,o),
(570,203,cs),
(587,303,o),
(563,380,o),
(345,412,cs),
(261,424,o),
(196,463,o),
(206,523,cs),
(219,593,o),
(286,649,o),
(376,649,cs),
(465,649,o),
(514,611,o),
(520,540,c),
(614,540,l),
(606,652,o),
(540,729,o),
(391,729,cs),
(261,729,o),
(137,643,o),
(116,523,cs),
(97,413,o),
(153,342,o),
(309,322,cs),
(414,309,o),
(494,283,o),
(480,203,cs),
(464,113,o),
(384,70,o),
(274,70,cs),
(182,70,o),
(116,120,o),
(119,185,c),
(27,185,l),
(23,60,o),
(119,-10,o),
(260,-10,cs)
);
}
);
width = 640;
},
{
anchors = (
{
name = bottom;
pos = (273,0);
},
{
name = top;
pos = (402,729);
}
);
hints = (
{
horizontal = 1;
origin = (0,37);
target = (0,30);
type = Stem;
},
{
horizontal = 1;
origin = (0,18);
target = (0,11);
type = Stem;
},
{
origin = (0,21);
target = (0,8);
type = Stem;
},
{
origin = (0,27);
target = (0,2);
type = Stem;
}
);
layerId = "B51EB05F-9FBB-4087-814F-400611B2D4B0";
shapes = (
{
closed = 1;
nodes = (
(461,-10,o),
(574,53,o),
(601,203,cs),
(622,323,o),
(572,403,o),
(359,432,cs),
(275,443,o),
(240,483,o),
(247,523,cs),
(259,588,o),
(317,619,o),
(382,619,cs),
(450,619,o),
(482,578,o),
(484,520,c),
(638,520,l),
(640,647,o),
(565,729,o),
(402,729,cs),
(262,729,o),
(122,663,o),
(97,523,cs),
(74,393,o),
(145,313,o),
(315,292,cs),
(401,281,o),
(460,253,o),
(451,203,cs),
(438,133,o),
(372,110,o),
(292,110,cs),
(222,110,o),
(178,135,o),
(168,205,c),
(14,205,l),
(10,74,o),
(95,-10,o),
(271,-10,cs)
);
}
);
width = 642;
}
);
subCategory = Uppercase;
unicode = 83;
},
{
glyphname = Germandbls;
lastChange = "2026-01-08 00:01:50 +0000";
layers = (
{
layerId = "05246BF3-0764-4143-87C4-5D2B296D3790";
shapes = (
{
closed = 1;
nodes = (
(109,0,l),
(204,540,l),
(217,610,o),
(255,660,o),
(335,660,cs),
(415,660,o),
(437,610,o),
(424,540,cs),
(410,460,o),
(295,490,o),
(276,380,cs),
(251,240,o),
(444,320,o),
(418,170,cs),
(404,90,o),
(321,70,o),
(241,70,c),
(221,70,l),
(209,0,l),
(229,0,l),
(339,0,o),
(472,23,o),
(498,170,cs),
(530,350,o),
(345,320,o),
(356,380,cs),
(367,440,o),
(483,420,o),
(504,540,cs),
(524,650,o),
(468,730,o),
(348,730,cs),
(228,730,o),
(144,650,o),
(124,540,c),
(29,0,l)
);
}
);
width = 564;
},
{
layerId = "B51EB05F-9FBB-4087-814F-400611B2D4B0";
shapes = (
{
closed = 1;
nodes = (
(163,0,l),
(258,540,l),
(267,590,o),
(297,620,o),
(357,620,cs),
(417,620,o),
(432,590,o),
(423,540,cs),
(412,475,o),
(297,505,o),
(275,380,cs),
(248,225,o),
(439,305,o),
(415,170,cs),
(404,105,o),
(342,110,o),
(287,110,c),
(227,110,l),
(208,0,l),
(268,0,l),
(393,0,o),
(536,8,o),
(565,170,cs),
(599,365,o),
(417,335,o),
(425,380,cs),
(433,425,o),
(549,405,o),
(573,540,cs),
(595,665,o),
(512,730,o),
(377,730,cs),
(242,730,o),
(130,665,o),
(108,540,c),
(13,0,l)
);
}
);
width = 622;
}
);
subCategory = Uppercase;
unicode = 7838;
},
{
glyphname = T;
kernLeft = T;
kernRight = T;
lastChange = "2026-01-08 00:01:50 +0000";
layers = (
{
anchors = (
{
name = bottom;
pos = (259,0);
},
{
name = center;
pos = (321,350);
},
{
name = top;
pos = (386,720);
}
);
hints = (
{
horizontal = 1;
origin = (0,3);
target = up;
type = BottomGhost;
},
{
horizontal = 1;
origin = (1,2);
target = (1,3);
type = Stem;
},
{
origin = (0,3);
target = (0,0);
type = Stem;
}
);
layerId = "05246BF3-0764-4143-87C4-5D2B296D3790";
shapes = (
{
closed = 1;
nodes = (
(304,0,l),
(431,720,l),
(341,720,l),
(214,0,l)
);
},
{
closed = 1;
nodes = (
(647,640,l),
(661,720,l),
(111,720,l),
(97,640,l)
);
}
);
width = 610;
},
{
anchors = (
{
name = bottom;
pos = (248,0);
},
{
name = center;
pos = (310,350);
},
{
name = top;
pos = (375,720);
}
);
hints = (
{
horizontal = 1;
origin = (0,3);
target = up;
type = BottomGhost;
},
{
horizontal = 1;
origin = (1,2);
target = (1,3);
type = Stem;
},
{
origin = (0,3);
target = (0,0);
type = Stem;
}
);
layerId = "B51EB05F-9FBB-4087-814F-400611B2D4B0";
shapes = (
{
closed = 1;
nodes = (
(323,0,l),
(450,720,l),
(300,720,l),
(173,0,l)
);
},
{
closed = 1;
nodes = (
(629,600,l),
(650,720,l),
(100,720,l),
(79,600,l)
);
}
);
width = 590;
}
);
subCategory = Uppercase;
unicode = 84;
},
{
glyphname = Tbar;
kernLeft = T;
kernRight = T;
lastChange = "2026-01-08 00:01:50 +0000";
layers = (
{
hints = (
{
horizontal = 1;
origin = (0,3);
target = (0,2);
type = Stem;
}
);
layerId = "05246BF3-0764-4143-87C4-5D2B296D3790";
shapes = (
{
closed = 1;
nodes = (
(540,315,l),
(552,385,l),
(152,385,l),
(140,315,l)
);
},
{
pos = (24,0);
ref = T;
}
);
width = 634;
},
{
hints = (
{
horizontal = 1;
origin = (0,3);
target = (0,2);
type = Stem;
},
{
origin = (0,3);
target = (0,0);
type = Stem;
}
);
layerId = "B51EB05F-9FBB-4087-814F-400611B2D4B0";
shapes = (
{
closed = 1;
nodes = (
(512,296,l),
(532,406,l),
(112,406,l),
(92,296,l)
);
},
{
ref = T;
}
);
width = 590;
}
);
subCategory = Uppercase;
unicode = 358;
},
{
glyphname = Tcaron;
kernLeft = T;
kernRight = T;
lastChange = "2026-01-08 00:01:50 +0000";
layers = (
{
anchors = (
{
name = top;
pos = (337,900);
}
);
hints = (
{
horizontal = 1;
origin = (0,4);
target = (0,5);
type = Stem;
},
{
horizontal = 1;
origin = (0,5);
target = (1,4);
type = Stem;
}
);
layerId = "05246BF3-0764-4143-87C4-5D2B296D3790";
shapes = (
{
closed = 1;
nodes = (
(427,790,l),
(562,930,l),
(482,930,l),
(402,843,l),
(392,843,l),
(347,790,l)
);
},
{
closed = 1;
nodes = (
(427,790,l),
(402,843,l),
(392,843,l),
(342,930,l),
(262,930,l),
(347,790,l)
);
},
{
ref = T;
}
);
width = 610;
},
{
anchors = (
{
name = top;
pos = (325,890);
}
);
hints = (
{
horizontal = 1;
origin = (0,5);
target = (0,4);
type = Stem;
},
{
horizontal = 1;
origin = (1,4);
target = (0,5);
type = Stem;
},
{
origin = (1,4);
target = (0,1);
type = Stem;
}
);
layerId = "B51EB05F-9FBB-4087-814F-400611B2D4B0";
shapes = (
{
closed = 1;
nodes = (
(446,780,l),
(580,920,l),
(460,920,l),
(405,859,l),
(395,859,l),
(326,780,l)
);
},
{
closed = 1;
nodes = (
(446,780,l),
(405,859,l),
(395,859,l),
(360,920,l),
(240,920,l),
(326,780,l)
);
},
{
ref = T;
}
);
width = 590;
}
);
subCategory = Uppercase;
unicode = 356;
},
{
glyphname = U;
kernLeft = U;
kernRight = U;
lastChange = "2026-01-08 00:01:50 +0000";
layers = (
{
anchors = (
{
name = bottom;
pos = (258,-5);
},
{
name = ogonek;
pos = (543,10);
},
{
name = top;
pos = (426,720);
},
{
name = topright;
pos = (707,700);
}
);
hints = (
{
horizontal = 1;
origin = (0,8);
target = (0,17);
type = Stem;
},
{
horizontal = 1;
origin = (0,13);
target = down;
type = TopGhost;
},
{
origin = (0,14);
target = (0,11);
type = Stem;
},
{
origin = (0,5);
target = (0,2);
type = Stem;
}
);
layerId = "05246BF3-0764-4143-87C4-5D2B296D3790";
shapes = (
{
closed = 1;
nodes = (
(497,-10,o),
(580,90,o),
(608,250,c),
(691,720,l),
(601,720,l),
(518,250,l),
(495,120,o),
(431,70,o),
(311,70,cs),
(191,70,o),
(145,120,o),
(168,250,c),
(251,720,l),
(161,720,l),
(78,250,l),
(50,90,o),
(97,-10,o),
(297,-10,cs)
);
}
);
width = 690;
},
{
anchors = (
{
name = bottom;
pos = (258,1);
},
{
name = ogonek;
pos = (542,10);
},
{
name = top;
pos = (425,720);
},
{
name = topright;
pos = (706,700);
}
);
hints = (
{
horizontal = 1;
origin = (0,17);
target = (0,8);
type = Stem;
},
{
horizontal = 1;
origin = (0,13);
target = down;
type = TopGhost;
},
{
origin = (0,14);
target = (0,11);
type = Stem;
},
{
origin = (0,5);
target = (0,2);
type = Stem;
}
);
layerId = "B51EB05F-9FBB-4087-814F-400611B2D4B0";
shapes = (
{
closed = 1;
nodes = (
(506,-10,o),
(597,80,o),
(627,250,c),
(710,720,l),
(560,720,l),
(477,250,l),
(459,150,o),
(407,110,o),
(317,110,cs),
(227,110,o),
(189,150,o),
(207,250,c),
(290,720,l),
(140,720,l),
(57,250,l),
(27,80,o),
(86,-10,o),
(296,-10,cs)
);
}
);
width = 690;
}
);
subCategory = Uppercase;
unicode = 85;
},
{
glyphname = Uogonek;
kernLeft = U;
kernRight = U;
lastChange = "2026-01-08 00:01:50 +0000";
layers = (
{
anchors = (
{
name = bottom;
pos = (258,-5);
},
{
name = ogonek;
pos = (543,10);
},
{
name = top;
pos = (426,720);
},
{
name = topright;
pos = (707,700);
}
);
hints = (
{
horizontal = 1;
place = (-327,-56);
type = Stem;
},
{
place = (85,-41);
type = Stem;
},
{
horizontal = 1;
origin = (0,12);
target = (0,3);
type = Stem;
},
{
horizontal = 1;
origin = (0,17);
target = down;
type = TopGhost;
},
{
origin = (0,18);
target = (0,15);
type = Stem;
},
{
origin = (0,9);
target = (0,6);
type = Stem;
}
);
layerId = "05246BF3-0764-4143-87C4-5D2B296D3790";
shapes = (
{
closed = 1;
nodes = (
(311,-126,l),
(200,-148,o),
(225,-74,o),
(342,-8,c),
(509,6,o),
(582,102,o),
(608,250,cs),
(691,720,l),
(601,720,l),
(518,250,ls),
(495,120,o),
(431,70,o),
(311,70,cs),
(191,70,o),
(145,120,o),
(168,250,cs),
(251,720,l),
(161,720,l),
(78,250,ls),
(52,102,o),
(91,6,o),
(252,-8,c),
(96,-89,o),
(126,-229,o),
(298,-196,c)
);
}
);
width = 690;
},
{
anchors = (
{
name = bottom;
pos = (258,1);
},
{
name = ogonek;
pos = (542,10);
},
{
name = top;
pos = (425,720);
},
{
name = topright;
pos = (706,700);
}
);
hints = (
{
horizontal = 1;
origin = (0,21);
target = (0,12);
type = Stem;
},
{
horizontal = 1;
origin = (0,17);
target = down;
type = TopGhost;
},
{
origin = (0,18);
target = (0,15);
type = Stem;
},
{
origin = (0,9);
target = (0,6);
type = Stem;
},
{
horizontal = 1;
place = (-324,-39);
type = Stem;
},
{
place = (95,19);
type = Stem;
}
);
layerId = "B51EB05F-9FBB-4087-814F-400611B2D4B0";
shapes = (
{
closed = 1;
nodes = (
(384,-104,l),
(272,-126,o),
(287,-66,o),
(407,0,c),
(540,29,o),
(603,114,o),
(627,250,cs),
(710,720,l),
(560,720,l),
(477,250,ls),
(459,150,o),
(407,110,o),
(317,110,cs),
(227,110,o),
(189,150,o),
(207,250,cs),
(290,720,l),
(140,720,l),
(57,250,ls),
(30,97,o),
(77,7,o),
(242,-8,c),
(88,-95,o),
(152,-231,o),
(369,-189,c)
);
}
);
width = 690;
}
);
subCategory = Uppercase;
unicode = 370;
},
{
glyphname = V;
kernLeft = V;
kernRight = V;
lastChange = "2026-01-08 00:01:50 +0000";
layers = (
{
anchors = (
{
name = bottom;
pos = (258,0);
},
{
name = top;
pos = (381,700);
}
);
hints = (
{
horizontal = 1;
origin = (0,5);
target = (0,4);
type = Stem;
},
{
horizontal = 1;
origin = (1,4);
target = down;
type = TopGhost;
}
);
layerId = "05246BF3-0764-4143-87C4-5D2B296D3790";
shapes = (
{
closed = 1;
nodes = (
(323,0,l),
(705,720,l),
(611,720,l),
(301,130,l),
(297,130,l),
(229,0,l)
);
},
{
closed = 1;
nodes = (
(323,0,l),
(301,130,l),
(297,130,l),
(195,720,l),
(101,720,l),
(229,0,l)
);
}
);
width = 644;
},
{
anchors = (
{
name = bottom;
pos = (277,0);
},
{
name = top;
pos = (400,700);
}
);
hints = (
{
horizontal = 1;
origin = (0,5);
target = (0,4);
type = Stem;
},
{
horizontal = 1;
origin = (1,4);
target = down;
type = TopGhost;
}
);
layerId = "B51EB05F-9FBB-4087-814F-400611B2D4B0";
shapes = (
{
closed = 1;
nodes = (
(372,0,l),
(754,720,l),
(604,720,l),
(336,203,l),
(326,203,l),
(218,0,l)
);
},
{
closed = 1;
nodes = (
(372,0,l),
(336,203,l),
(326,203,l),
(240,720,l),
(90,720,l),
(218,0,l)
);
}
);
width = 684;
}
);
subCategory = Uppercase;
unicode = 86;
},
{
glyphname = W;
kernLeft = W;
kernRight = W;
lastChange = "2026-01-08 00:01:50 +0000";
layers = (
{
anchors = (
{
name = bottom;
pos = (441,0);
},
{
name = top;
pos = (568,720);
}
);
hints = (
{
horizontal = 1;
origin = (1,5);
target = (1,2);
type = Stem;
},
{
horizontal = 1;
origin = (1,4);
target = down;
type = TopGhost;
},
{
horizontal = 1;
origin = (1,5);
target = up;
type = BottomGhost;
},
{
horizontal = 1;
origin = (1,4);
target = (2,1);
type = Stem;
}
);
layerId = "05246BF3-0764-4143-87C4-5D2B296D3790";
shapes = (
{
closed = 1;
nodes = (
(693,0,l),
(1025,720,l),
(931,720,l),
(674,150,l),
(670,150,l),
(599,0,l)
);
},
{
closed = 1;
nodes = (
(283,0,l),
(264,150,l),
(260,150,l),
(205,720,l),
(111,720,l),
(189,0,l)
);
},
{
closed = 1;
nodes = (
(283,0,l),
(540,570,l),
(544,570,l),
(615,720,l),
(521,720,l),
(264,150,l),
(260,150,l),
(189,0,l)
);
},
{
closed = 1;
nodes = (
(693,0,l),
(674,150,l),
(670,150,l),
(615,720,l),
(521,720,l),
(540,570,l),
(544,570,l),
(599,0,l)
);
}
);
width = 974;
},
{
anchors = (
{
name = bottom;
pos = (452,0);
},
{
name = top;
pos = (579,720);
}
);
hints = (
{
horizontal = 1;
origin = (1,5);
target = (1,2);
type = Stem;
},
{
horizontal = 1;
origin = (1,4);
target = down;
type = TopGhost;
}
);
layerId = "B51EB05F-9FBB-4087-814F-400611B2D4B0";
shapes = (
{
closed = 1;
nodes = (
(736,0,l),
(1068,720,l),
(918,720,l),
(706,237,l),
(696,237,l),
(582,0,l)
);
},
{
closed = 1;
nodes = (
(322,0,l),
(292,237,l),
(282,237,l),
(240,720,l),
(90,720,l),
(168,0,l)
);
},
{
closed = 1;
nodes = (
(322,0,l),
(532,483,l),
(542,483,l),
(654,720,l),
(504,720,l),
(292,237,l),
(282,237,l),
(168,0,l)
);
},
{
closed = 1;
nodes = (
(736,0,l),
(706,237,l),
(696,237,l),
(654,720,l),
(504,720,l),
(532,483,l),
(542,483,l),
(582,0,l)
);
}
);
width = 998;
}
);
subCategory = Uppercase;
unicode = 87;
},
{
glyphname = X;
kernLeft = X;
kernRight = X;
lastChange = "2026-01-08 00:01:50 +0000";
layers = (
{
anchors = (
{
name = bottom;
pos = (302,0);
},
{
name = top;
pos = (425,700);
}
);
hints = (
{
horizontal = 1;
origin = (1,7);
target = up;
type = BottomGhost;
},
{
horizontal = 1;
origin = (0,4);
target = down;
type = TopGhost;
}
);
layerId = "05246BF3-0764-4143-87C4-5D2B296D3790";
shapes = (
{
closed = 1;
nodes = (
(618,0,l),
(391,469,l),
(387,469,l),
(263,720,l),
(161,720,l),
(359,311,l),
(363,311,l),
(516,0,l)
);
},
{
closed = 1;
nodes = (
(96,0,l),
(359,311,l),
(363,311,l),
(705,720,l),
(603,720,l),
(391,469,l),
(387,469,l),
(-6,0,l)
);
}
);
width = 704;
},
{
anchors = (
{
name = bottom;
pos = (311,0);
},
{
name = top;
pos = (434,700);
}
);
hints = (
{
horizontal = 1;
origin = (1,7);
target = up;
type = BottomGhost;
},
{
horizontal = 1;
origin = (0,4);
target = down;
type = TopGhost;
}
);
layerId = "B51EB05F-9FBB-4087-814F-400611B2D4B0";
shapes = (
{
closed = 1;
nodes = (
(653,0,l),
(408,511,l),
(398,511,l),
(298,720,l),
(140,720,l),
(355,269,l),
(365,269,l),
(495,0,l)
);
},
{
closed = 1;
nodes = (
(131,0,l),
(355,269,l),
(365,269,l),
(740,720,l),
(582,720,l),
(408,511,l),
(398,511,l),
(-27,0,l)
);
}
);
width = 720;
}
);
subCategory = Uppercase;
unicode = 88;
},
{
glyphname = Y;
kernLeft = Y;
kernRight = Y;
lastChange = "2026-01-08 00:01:50 +0000";
layers = (
{
anchors = (
{
name = bottom;
pos = (244,0);
},
{
name = top;
pos = (371,720);
},
{
name = topleft;
pos = (97,700);
}
);
hints = (
{
horizontal = 1;
origin = (0,9);
target = up;
type = BottomGhost;
},
{
horizontal = 1;
origin = (0,7);
target = down;
type = TopGhost;
},
{
origin = (0,9);
target = (0,0);
type = Stem;
}
);
layerId = "05246BF3-0764-4143-87C4-5D2B296D3790";
shapes = (
{
closed = 1;
nodes = (
(289,0,l),
(342,300,l),
(641,720,l),
(546,720,l),
(315,390,l),
(311,390,l),
(196,720,l),
(101,720,l),
(252,300,l),
(199,0,l)
);
}
);
width = 580;
},
{
anchors = (
{
name = bottom;
pos = (263,0);
},
{
name = top;
pos = (390,720);
},
{
name = topleft;
pos = (116,700);
}
);
hints = (
{
horizontal = 1;
origin = (0,9);
target = up;
type = BottomGhost;
},
{
horizontal = 1;
origin = (0,7);
target = down;
type = TopGhost;
},
{
origin = (0,9);
target = (0,0);
type = Stem;
}
);
layerId = "B51EB05F-9FBB-4087-814F-400611B2D4B0";
shapes = (
{
closed = 1;
nodes = (
(338,0,l),
(391,300,l),
(690,720,l),
(540,720,l),
(346,444,l),
(336,444,l),
(240,720,l),
(90,720,l),
(241,300,l),
(188,0,l)
);
}
);
width = 620;
}
);
subCategory = Uppercase;
unicode = 89;
},
{
glyphname = Z;
kernLeft = Z;
kernRight = Z;
lastChange = "2026-01-08 00:01:50 +0000";
layers = (
{
anchors = (
{
name = bottom;
pos = (232,0);
},
{
name = center;
pos = (294,350);
},
{
name = top;
pos = (355,700);
}
);
hints = (
{
horizontal = 1;
origin = (1,3);
target = (0,3);
type = Stem;
},
{
horizontal = 1;
origin = (2,2);
target = (2,3);
type = Stem;
}
);
layerId = "05246BF3-0764-4143-87C4-5D2B296D3790";
shapes = (
{
closed = 1;
nodes = (
(108,80,l),
(582,640,l),
(482,640,l),
(8,80,l)
);
},
{
closed = 1;
nodes = (
(469,0,l),
(483,80,l),
(8,80,l),
(-6,0,l)
);
},
{
closed = 1;
nodes = (
(582,640,l),
(596,720,l),
(126,720,l),
(112,640,l)
);
}
);
width = 555;
},
{
anchors = (
{
name = bottom;
pos = (251,0);
},
{
name = center;
pos = (313,350);
},
{
name = top;
pos = (380,720);
}
);
hints = (
{
horizontal = 1;
origin = (1,3);
target = (0,3);
type = Stem;
},
{
horizontal = 1;
origin = (2,2);
target = (2,3);
type = Stem;
}
);
layerId = "B51EB05F-9FBB-4087-814F-400611B2D4B0";
shapes = (
{
closed = 1;
nodes = (
(174,120,l),
(624,600,l),
(454,600,l),
(4,120,l)
);
},
{
closed = 1;
nodes = (
(518,0,l),
(539,120,l),
(4,120,l),
(-17,0,l)
);
},
{
closed = 1;
nodes = (
(624,600,l),
(645,720,l),
(115,720,l),
(94,600,l)
);
}
);
width = 595;
}
);
subCategory = Uppercase;
unicode = 90;
},
{
glyphname = a;
kernLeft = a;
kernRight = a;
lastChange = "2026-01-08 00:01:42 +0000";
layers = (
{
anchors = (
{
name = bottom;
pos = (394,10);
},
{
name = top;
pos = (313,530);
}
);
hints = (
{
horizontal = 1;
place = (0,80);
type = Stem;
},
{
horizontal = 1;
place = (300,70);
type = Stem;
},
{
horizontal = 1;
place = (530,80);
type = Stem;
},
{
horizontal = 1;
place = (70,80);
type = Stem;
},
{
place = (21,90);
type = Stem;
},
{
place = (361,84);
type = Stem;
}
);
layerId = "05246BF3-0764-4143-87C4-5D2B296D3790";
shapes = (
{
closed = 1;
nodes = (
(247,-10,o),
(309,30,o),
(350,90,c),
(360,90,l),
(348,20,o),
(394,0,o),
(444,0,cs),
(474,0,l),
(488,80,l),
(472,80,ls),
(452,80,o),
(444,90,o),
(449,120,cs),
(481,300,ls),
(508,450,o),
(472,530,o),
(313,530,cs),
(206,530,o),
(121,475,o),
(85,385,c),
(180,385,l),
(197,425,o),
(246,450,o),
(299,450,cs),
(409,450,o),
(415,400,o),
(397,300,c),
(252,300,ls),
(102,300,o),
(35,230,o),
(21,150,cs),
(6,70,o),
(47,-10,o),
(157,-10,cs)
);
},
{
closed = 1;
nodes = (
(141,70,o),
(102,100,o),
(111,150,cs),
(119,200,o),
(160,230,o),
(250,230,cs),
(385,230,l),
(365,120,o),
(291,70,o),
(191,70,cs)
);
}
);
width = 550;
},
{
anchors = (
{
name = bottom;
pos = (364,10);
},
{
name = top;
pos = (323,540);
}
);
hints = (
{
horizontal = 1;
place = (0,110);
type = Stem;
},
{
horizontal = 1;
place = (220,90);
type = Stem;
},
{
horizontal = 1;
place = (540,110);
type = Stem;
},
{
horizontal = 1;
place = (-10,110);
type = Stem;
},
{
horizontal = 1;
place = (540,175);
type = Stem;
},
{
place = (346,143);
type = Stem;
},
{
place = (10,141);
type = Stem;
}
);
layerId = "B51EB05F-9FBB-4087-814F-400611B2D4B0";
shapes = (
{
closed = 1;
nodes = (
(247,-10,o),
(297,20,o),
(336,70,c),
(346,70,l),
(339,30,o),
(373,0,o),
(423,0,cs),
(513,0,l),
(533,110,l),
(517,110,ls),
(497,110,o),
(488,120,o),
(494,150,cs),
(520,300,ls),
(546,449,o),
(482,540,o),
(323,540,cs),
(196,540,o),
(105,475,o),
(66,365,c),
(211,365,l),
(224,395,o),
(251,427,o),
(304,430,cs),
(385,434,o),
(403,395,o),
(388,310,c),
(263,310,ls),
(103,310,o),
(26,240,o),
(10,150,cs),
(-6,60,o),
(37,-10,o),
(167,-10,cs)
);
},
{
closed = 1;
nodes = (
(166,100,o),
(145,125,o),
(151,155,cs),
(156,185,o),
(177,220,o),
(257,220,cs),
(372,220,l),
(361,160,o),
(331,100,o),
(206,100,cs)
);
}
);
width = 580;
}
);
subCategory = Lowercase;
unicode = 97;
},
{
glyphname = aogonek;
kernLeft = a;
kernRight = a;
lastChange = "2026-01-08 00:01:42 +0000";
layers = (
{
anchors = (
{
name = top;
pos = (313,530);
}
);
hints = (
{
horizontal = 1;
place = (0,80);
type = Stem;
},
{
horizontal = 1;
place = (300,70);
type = Stem;
},
{
horizontal = 1;
place = (530,80);
type = Stem;
},
{
horizontal = 1;
place = (70,80);
type = Stem;
},
{
place = (21,90);
type = Stem;
},
{
place = (361,88);
type = Stem;
},
{
horizontal = 1;
place = (-309,-56);
type = Stem;
},
{
place = (214,-41);
type = Stem;
}
);
layerId = "05246BF3-0764-4143-87C4-5D2B296D3790";
shapes = (
{
closed = 1;
nodes = (
(439,-111,l),
(327,-133,o),
(352,-67,o),
(474,0,c),
(488,80,l),
(472,80,ls),
(452,80,o),
(444,90,o),
(449,120,cs),
(481,300,ls),
(507,450,o),
(472,530,o),
(313,530,cs),
(206,530,o),
(121,475,o),
(85,385,c),
(180,385,l),
(197,425,o),
(245,450,o),
(298,450,cs),
(408,450,o),
(415,400,o),
(397,300,c),
(252,300,ls),
(102,300,o),
(35,230,o),
(21,150,cs),
(6,70,o),
(47,-10,o),
(157,-10,cs),
(247,-10,o),
(309,30,o),
(350,90,c),
(360,90,l),
(353,49,o),
(366,25,o),
(388,12,c),
(229,-68,o),
(252,-214,o),
(426,-181,c)
);
},
{
closed = 1;
nodes = (
(141,70,o),
(102,100,o),
(111,150,cs),
(119,200,o),
(160,230,o),
(250,230,cs),
(385,230,l),
(365,120,o),
(291,70,o),
(191,70,cs)
);
}
);
width = 540;
},
{
anchors = (
{
name = top;
pos = (323,540);
}
);
hints = (
{
horizontal = 1;
place = (0,110);
type = Stem;
},
{
horizontal = 1;
place = (220,90);
type = Stem;
},
{
horizontal = 1;
place = (540,110);
type = Stem;
},
{
horizontal = 1;
place = (-10,110);
type = Stem;
},
{
horizontal = 1;
place = (540,175);
type = Stem;
},
{
place = (346,147);
type = Stem;
},
{
place = (10,141);
type = Stem;
},
{
horizontal = 1;
place = (-305,-39);
type = Stem;
},
{
place = (204,19);
type = Stem;
}
);
layerId = "B51EB05F-9FBB-4087-814F-400611B2D4B0";
shapes = (
{
closed = 1;
nodes = (
(489,-95,l),
(377,-117,o),
(391,-67,o),
(513,0,c),
(532,110,l),
(516,110,ls),
(496,110,o),
(488,120,o),
(494,150,cs),
(520,300,ls),
(546,449,o),
(482,540,o),
(323,540,cs),
(196,540,o),
(105,475,o),
(65,365,c),
(210,365,l),
(224,395,o),
(250,427,o),
(304,430,cs),
(385,434,o),
(403,395,o),
(388,310,c),
(263,310,ls),
(103,310,o),
(25,240,o),
(10,150,cs),
(-6,60,o),
(36,-10,o),
(166,-10,cs),
(246,-10,o),
(297,20,o),
(335,70,c),
(345,70,l),
(341,47,o),
(351,27,o),
(371,14,c),
(199,-72,o),
(251,-223,o),
(474,-180,c)
);
},
{
closed = 1;
nodes = (
(166,100,o),
(145,125,o),
(150,155,cs),
(156,185,o),
(177,220,o),
(257,220,cs),
(372,220,l),
(361,160,o),
(331,100,o),
(206,100,cs)
);
}
);
width = 570;
}
);
subCategory = Lowercase;
unicode = 261;
},
{
glyphname = ae;
kernLeft = a;
kernRight = e;
lastChange = "2026-01-08 00:01:42 +0000";
layers = (
{
hints = (
{
horizontal = 1;
origin = (1,22);
target = (1,7);
type = Stem;
},
{
horizontal = 1;
origin = (1,13);
target = (1,16);
type = Stem;
},
{
horizontal = 1;
origin = (0,4);
target = (0,11);
type = Stem;
},
{
origin = (1,19);
target = (1,10);
type = Stem;
},
{
place = (268,-35);
type = Stem;
},
{
origin = (2,18);
target = (2,22);
type = Stem;
},
{
place = (268,-36);
type = Stem;
}
);
layerId = "05246BF3-0764-4143-87C4-5D2B296D3790";
shapes = (
{
closed = 1;
nodes = (
(445,90,l),
(482,300,ls),
(508,450,o),
(472,530,o),
(313,530,cs),
(206,530,o),
(122,475,o),
(86,385,c),
(181,385,l),
(198,425,o),
(246,450,o),
(299,450,cs),
(409,450,o),
(414,390,o),
(398,300,cs),
(361,90,l)
);
},
{
closed = 1;
nodes = (
(248,-10,o),
(355,30,o),
(396,90,c),
(406,90,l),
(382,210,l),
(366,120,o),
(282,70,o),
(192,70,cs),
(142,70,o),
(103,100,o),
(111,150,cs),
(120,200,o),
(161,230,o),
(251,230,cs),
(386,230,l),
(398,300,l),
(253,300,ls),
(103,300,o),
(36,230,o),
(21,150,cs),
(7,70,o),
(48,-10,o),
(158,-10,cs)
);
},
{
closed = 1;
nodes = (
(686,-10,o),
(761,51,o),
(813,135,c),
(717,135,l),
(684,94,o),
(657,70,o),
(597,70,cs),
(487,70,o),
(463,160,o),
(481,260,cs),
(499,360,o),
(554,450,o),
(664,450,cs),
(774,450,o),
(784,360,o),
(766,260,cs),
(764,248,o),
(762,241,o),
(759,230,c),
(850,230,l),
(853,242,o),
(854,248,o),
(856,260,cs),
(884,420,o),
(828,530,o),
(678,530,cs),
(528,530,o),
(419,420,o),
(391,260,cs),
(363,100,o),
(433,-10,o),
(583,-10,cs)
);
},
{
closed = 1;
nodes = (
(801,230,l),
(813,300,l),
(443,300,l),
(431,230,l)
);
}
);
width = 901;
},
{
hints = (
{
horizontal = 1;
origin = (1,22);
target = (1,7);
type = Stem;
},
{
horizontal = 1;
origin = (1,13);
target = (1,16);
type = Stem;
},
{
horizontal = 1;
origin = (0,4);
target = (0,11);
type = Stem;
},
{
origin = (1,19);
target = (1,10);
type = Stem;
},
{
place = (253,25);
type = Stem;
},
{
place = (612,24);
type = Stem;
}
);
layerId = "B51EB05F-9FBB-4087-814F-400611B2D4B0";
shapes = (
{
closed = 1;
nodes = (
(489,120,l),
(521,300,ls),
(547,449,o),
(483,540,o),
(324,540,cs),
(197,540,o),
(106,475,o),
(66,365,c),
(211,365,l),
(227,395,o),
(252,430,o),
(305,430,cs),
(395,430,o),
(401,380,o),
(389,310,cs),
(353,110,l)
);
},
{
closed = 1;
nodes = (
(247,-10,o),
(363,20,o),
(401,70,c),
(411,70,l),
(373,220,l),
(357,130,o),
(287,100,o),
(207,100,cs),
(167,100,o),
(146,125,o),
(151,155,cs),
(157,185,o),
(178,220,o),
(258,220,cs),
(373,220,l),
(389,310,l),
(264,310,ls),
(104,310,o),
(26,240,o),
(10,150,cs),
(-5,60,o),
(37,-10,o),
(167,-10,cs)
);
},
{
closed = 1;
nodes = (
(715,-10,o),
(816,61,o),
(858,145,c),
(708,145,l),
(676,114,o),
(662,100,o),
(612,100,cs),
(522,100,o),
(517,185,o),
(531,265,cs),
(545,345,o),
(580,430,o),
(670,430,cs),
(760,430,o),
(757,355,o),
(741,265,cs),
(739,253,o),
(734,231,o),
(731,220,c),
(882,220,l),
(884,231,o),
(889,253,o),
(891,265,cs),
(921,435,o),
(849,540,o),
(689,540,cs),
(529,540,o),
(411,435,o),
(381,265,cs),
(351,95,o),
(432,-10,o),
(592,-10,cs)
);
},
{
closed = 1;
nodes = (
(813,220,l),
(829,310,l),
(454,310,l),
(438,220,l)
);
}
);
width = 921;
}
);
subCategory = Lowercase;
unicode = 230;
},
{
glyphname = b;
kernLeft = I;
kernRight = o;
lastChange = "2026-01-08 00:01:42 +0000";
layers = (
{
anchors = (
{
name = bottom;
pos = (279,0);
},
{
name = top;
pos = (417,780);
}
);
hints = (
{
horizontal = 1;
origin = (1,11);
target = (0,18);
type = Stem;
},
{
horizontal = 1;
origin = (0,5);
target = (1,5);
type = Stem;
},
{
horizontal = 1;
origin = (0,11);
target = down;
type = TopGhost;
},
{
horizontal = 1;
origin = (0,12);
target = up;
type = BottomGhost;
},
{
origin = (0,12);
target = (0,13);
type = Stem;
},
{
origin = (1,8);
target = (0,2);
type = Stem;
},
{
origin = (0,12);
target = (1,2);
type = Stem;
}
);
layerId = "05246BF3-0764-4143-87C4-5D2B296D3790";
shapes = (
{
closed = 1;
nodes = (
(432,-10,o),
(542,100,o),
(570,260,cs),
(598,420,o),
(527,530,o),
(397,530,cs),
(317,530,o),
(245,490,o),
(203,420,c),
(193,420,l),
(246,720,l),
(156,720,l),
(29,0,l),
(119,0,l),
(137,100,l),
(147,100,l),
(164,30,o),
(222,-10,o),
(302,-10,cs)
);
},
{
closed = 1;
nodes = (
(206,70,o),
(147,130,o),
(170,260,cs),
(193,390,o),
(273,450,o),
(363,450,cs),
(453,450,o),
(503,390,o),
(480,260,cs),
(457,130,o),
(386,70,o),
(296,70,cs)
);
}
);
width = 615;
},
{
anchors = (
{
name = bottom;
pos = (278,0);
},
{
name = top;
pos = (416,780);
}
);
hints = (
{
horizontal = 1;
origin = (0,18);
target = (1,11);
type = Stem;
},
{
horizontal = 1;
origin = (0,5);
target = (1,5);
type = Stem;
},
{
horizontal = 1;
origin = (0,11);
target = down;
type = TopGhost;
},
{
horizontal = 1;
origin = (0,12);
target = (1,11);
type = Stem;
},
{
origin = (0,12);
target = (0,13);
type = Stem;
},
{
origin = (1,8);
target = (0,2);
type = Stem;
},
{
origin = (0,12);
target = (1,2);
type = Stem;
}
);
layerId = "B51EB05F-9FBB-4087-814F-400611B2D4B0";
shapes = (
{
closed = 1;
nodes = (
(466,-10,o),
(575,95,o),
(605,265,cs),
(635,435,o),
(563,540,o),
(423,540,cs),
(343,540,o),
(291,500,o),
(252,450,c),
(242,450,l),
(290,720,l),
(140,720,l),
(13,0,l),
(163,0,l),
(177,80,l),
(187,80,l),
(208,30,o),
(246,-10,o),
(326,-10,cs)
);
},
{
closed = 1;
nodes = (
(226,100,o),
(197,165,o),
(215,265,cs),
(232,365,o),
(284,430,o),
(364,430,cs),
(444,430,o),
(472,365,o),
(455,265,cs),
(437,165,o),
(386,100,o),
(306,100,cs)
);
}
);
width = 640;
}
);
subCategory = Lowercase;
unicode = 98;
},
{
glyphname = c;
kernLeft = o;
kernRight = c;
lastChange = "2026-01-08 00:01:42 +0000";
layers = (
{
anchors = (
{
name = bottom;
pos = (239,0);
},
{
name = top;
pos = (332,530);
}
);
hints = (
{
horizontal = 1;
origin = (0,6);
target = (0,25);
type = Stem;
},
{
horizontal = 1;
origin = (0,19);
target = (0,12);
type = Stem;
},
{
origin = (0,22);
target = (0,9);
type = Stem;
}
);
layerId = "05246BF3-0764-4143-87C4-5D2B296D3790";
shapes = (
{
closed = 1;
nodes = (
(347,-10,o),
(438,50,o),
(487,160,c),
(397,160,l),
(367,100,o),
(321,70,o),
(251,70,cs),
(141,70,o),
(117,160,o),
(135,260,cs),
(153,360,o),
(208,450,o),
(318,450,cs),
(388,450,o),
(423,420,o),
(433,360,c),
(523,360,l),
(512,470,o),
(442,530,o),
(332,530,cs),
(182,530,o),
(73,420,o),
(45,260,cs),
(17,100,o),
(87,-10,o),
(237,-10,cs)
);
}
);
width = 550;
},
{
anchors = (
{
name = bottom;
pos = (248,0);
},
{
name = top;
pos = (343,540);
}
);
hints = (
{
horizontal = 1;
origin = (0,25);
target = (0,6);
type = Stem;
},
{
horizontal = 1;
origin = (0,19);
target = (0,12);
type = Stem;
},
{
origin = (0,22);
target = (0,9);
type = Stem;
}
);
layerId = "B51EB05F-9FBB-4087-814F-400611B2D4B0";
shapes = (
{
closed = 1;
nodes = (
(376,-10,o),
(479,60,o),
(530,180,c),
(380,180,l),
(363,140,o),
(336,100,o),
(266,100,cs),
(176,100,o),
(171,185,o),
(185,265,cs),
(199,345,o),
(234,430,o),
(324,430,cs),
(394,430,o),
(407,390,o),
(410,350,c),
(560,350,l),
(551,470,o),
(473,540,o),
(343,540,cs),
(183,540,o),
(65,435,o),
(35,265,cs),
(5,95,o),
(86,-10,o),
(246,-10,cs)
);
}
);
width = 575;
}
);
subCategory = Lowercase;
unicode = 99;
},
{
glyphname = d;
kernLeft = o;
kernRight = I;
lastChange = "2026-01-08 00:01:42 +0000";
layers = (
{
anchors = (
{
name = bottom;
pos = (219,0);
},
{
name = center;
pos = (270,260);
},
{
name = top;
pos = (312,530);
},
{
name = topright;
pos = (596,520);
}
);
hints = (
{
horizontal = 1;
origin = (1,11);
target = (0,18);
type = Stem;
},
{
horizontal = 1;
origin = (0,12);
target = (1,5);
type = Stem;
},
{
horizontal = 1;
origin = (0,7);
target = down;
type = TopGhost;
},
{
horizontal = 1;
origin = (0,4);
target = up;
type = BottomGhost;
},
{
origin = (0,15);
target = (1,2);
type = Stem;
},
{
origin = (0,4);
target = (0,5);
type = Stem;
},
{
origin = (1,8);
target = (0,5);
type = Stem;
}
);
layerId = "05246BF3-0764-4143-87C4-5D2B296D3790";
shapes = (
{
closed = 1;
nodes = (
(297,-10,o),
(369,30,o),
(412,100,c),
(422,100,l),
(404,0,l),
(494,0,l),
(621,720,l),
(531,720,l),
(478,420,l),
(468,420,l),
(450,490,o),
(392,530,o),
(312,530,cs),
(182,530,o),
(73,420,o),
(45,260,cs),
(17,100,o),
(87,-10,o),
(217,-10,cs)
);
},
{
closed = 1;
nodes = (
(161,70,o),
(112,130,o),
(135,260,cs),
(158,390,o),
(228,450,o),
(318,450,cs),
(408,450,o),
(468,390,o),
(445,260,cs),
(422,130,o),
(341,70,o),
(251,70,cs)
);
}
);
width = 615;
},
{
anchors = (
{
name = bottom;
pos = (243,0);
},
{
name = center;
pos = (289,260);
},
{
name = top;
pos = (313,530);
},
{
name = topright;
pos = (660,720);
}
);
hints = (
{
horizontal = 1;
origin = (0,18);
target = (1,11);
type = Stem;
},
{
horizontal = 1;
origin = (0,12);
target = (1,5);
type = Stem;
},
{
horizontal = 1;
origin = (0,7);
target = down;
type = TopGhost;
},
{
horizontal = 1;
origin = (0,4);
target = (1,11);
type = Stem;
},
{
origin = (0,15);
target = (1,2);
type = Stem;
},
{
origin = (0,4);
target = (0,5);
type = Stem;
},
{
origin = (1,8);
target = (0,5);
type = Stem;
}
);
layerId = "B51EB05F-9FBB-4087-814F-400611B2D4B0";
shapes = (
{
closed = 1;
nodes = (
(296,-10,o),
(348,30,o),
(387,80,c),
(397,80,l),
(383,0,l),
(533,0,l),
(660,720,l),
(510,720,l),
(462,450,l),
(452,450,l),
(431,500,o),
(393,540,o),
(313,540,cs),
(173,540,o),
(65,435,o),
(35,265,cs),
(5,95,o),
(76,-10,o),
(216,-10,cs)
);
},
{
closed = 1;
nodes = (
(196,100,o),
(167,165,o),
(185,265,cs),
(202,365,o),
(254,430,o),
(334,430,cs),
(414,430,o),
(442,365,o),
(425,265,cs),
(407,165,o),
(356,100,o),
(276,100,cs)
);
}
);
width = 640;
}
);
subCategory = Lowercase;
unicode = 100;
},
{
glyphname = dcroat;
lastChange = "2026-01-08 00:01:42 +0000";
layers = (
{
hints = (
{
horizontal = 1;
origin = (0,3);
target = (0,2);
type = Stem;
},
{
origin = (0,3);
target = (0,0);
type = Stem;
}
);
layerId = "05246BF3-0764-4143-87C4-5D2B296D3790";
shapes = (
{
closed = 1;
nodes = (
(648,600,l),
(658,660,l),
(388,660,l),
(378,600,l)
);
},
{
ref = d;
}
);
width = 560;
},
{
hints = (
{
horizontal = 1;
origin = (0,3);
target = (0,2);
type = Stem;
},
{
origin = (0,3);
target = (0,0);
type = Stem;
}
);
layerId = "B51EB05F-9FBB-4087-814F-400611B2D4B0";
shapes = (
{
closed = 1;
nodes = (
(683,570,l),
(700,670,l),
(360,670,l),
(343,570,l)
);
},
{
ref = d;
}
);
width = 585;
}
);
subCategory = Lowercase;
unicode = 273;
},
{
glyphname = eth;
kernRight = o;
lastChange = "2026-01-08 00:01:42 +0000";
layers = (
{
hints = (
{
horizontal = 1;
origin = (0,14);
target = (1,11);
type = Stem;
},
{
horizontal = 1;
origin = (1,5);
target = (0,8);
type = Stem;
},
{
horizontal = 1;
origin = (2,3);
target = down;
type = TopGhost;
},
{
origin = (0,11);
target = (1,2);
type = Stem;
},
{
origin = (1,8);
target = (0,2);
type = Stem;
}
);
layerId = "05246BF3-0764-4143-87C4-5D2B296D3790";
shapes = (
{
closed = 1;
nodes = (
(397,-10,o),
(498,80,o),
(537,300,c),
(512,355,l),
(471,380,l),
(461,380,l),
(443,450,o),
(385,490,o),
(305,490,cs),
(175,490,o),
(73,390,o),
(46,240,cs),
(20,90,o),
(87,-10,o),
(217,-10,cs)
);
},
{
closed = 1;
nodes = (
(161,70,o),
(119,140,o),
(136,240,cs),
(154,340,o),
(221,410,o),
(311,410,cs),
(391,410,o),
(449,340,o),
(431,240,cs),
(414,140,o),
(331,70,o),
(251,70,cs)
);
},
{
closed = 1;
nodes = (
(537,300,l),
(604,680,o),
(213,730,o),
(213,730,c),
(199,650,l),
(199,650,o),
(453,620,o),
(471,380,c),
(446,240,l)
);
},
{
closed = 1;
nodes = (
(517,670,l),
(530,740,l),
(208,590,l),
(196,520,l)
);
}
);
width = 580;
},
{
hints = (
{
horizontal = 1;
origin = (0,14);
target = (1,11);
type = Stem;
},
{
horizontal = 1;
origin = (1,5);
target = (0,8);
type = Stem;
},
{
horizontal = 1;
origin = (2,4);
target = (2,3);
type = Stem;
},
{
origin = (0,11);
target = (1,2);
type = Stem;
},
{
origin = (1,8);
target = (0,2);
type = Stem;
}
);
layerId = "B51EB05F-9FBB-4087-814F-400611B2D4B0";
shapes = (
{
closed = 1;
nodes = (
(412,-10,o),
(523,80,o),
(562,300,c),
(517,355,l),
(468,390,l),
(458,390,l),
(440,460,o),
(380,490,o),
(310,490,cs),
(170,490,o),
(60,400,o),
(31,240,cs),
(3,80,o),
(82,-10,o),
(222,-10,cs)
);
},
{
closed = 1;
nodes = (
(192,100,o),
(165,150,o),
(181,240,cs),
(197,330,o),
(241,380,o),
(311,380,cs),
(371,380,o),
(412,330,o),
(396,240,cs),
(380,150,o),
(322,100,o),
(262,100,cs)
);
},
{
closed = 1;
nodes = (
(562,300,l),
(634,710,o),
(220,740,o),
(220,740,c),
(200,630,l),
(200,630,o),
(445,600,o),
(468,390,c),
(441,240,l)
);
},
{
closed = 1;
nodes = (
(530,660,l),
(545,740,l),
(201,580,l),
(187,500,l)
);
}
);
width = 586;
}
);
subCategory = Lowercase;
unicode = 240;
},
{
glyphname = e;
kernLeft = o;
kernRight = o;
lastChange = "2026-01-08 00:01:42 +0000";
layers = (
{
anchors = (
{
name = bottom;
pos = (232,0);
},
{
name = ogonek;
pos = (456,10);
},
{
name = top;
pos = (332,530);
}
);
hints = (
{
horizontal = 1;
origin = (0,6);
target = (0,31);
type = Stem;
},
{
horizontal = 1;
origin = (1,2);
target = (1,3);
type = Stem;
},
{
horizontal = 1;
origin = (0,25);
target = (0,12);
type = Stem;
},
{
place = (-82,-35);
type = Stem;
},
{
place = (292,-36);
type = Stem;
}
);
layerId = "05246BF3-0764-4143-87C4-5D2B296D3790";
shapes = (
{
closed = 1;
nodes = (
(340,-10,o),
(423,41,o),
(477,135,c),
(381,135,l),
(347,89,o),
(311,70,o),
(251,70,cs),
(141,70,o),
(117,160,o),
(135,260,cs),
(153,360,o),
(208,450,o),
(318,450,cs),
(428,450,o),
(438,360,o),
(420,260,cs),
(418,248,o),
(415,236,o),
(412,225,c),
(503,225,l),
(505,236,o),
(508,248,o),
(510,260,cs),
(538,420,o),
(482,530,o),
(332,530,cs),
(182,530,o),
(73,420,o),
(45,260,cs),
(17,100,o),
(87,-10,o),
(237,-10,cs)
);
},
{
closed = 1;
nodes = (
(454,225,l),
(466,295,l),
(96,295,l),
(84,225,l)
);
}
);
width = 555;
},
{
anchors = (
{
name = bottom;
pos = (243,0);
},
{
name = ogonek;
pos = (477,10);
},
{
name = top;
pos = (343,540);
}
);
hints = (
{
horizontal = 1;
origin = (0,31);
target = (0,6);
type = Stem;
},
{
horizontal = 1;
origin = (1,3);
target = (1,2);
type = Stem;
},
{
horizontal = 1;
origin = (0,25);
target = (0,12);
type = Stem;
},
{
place = (-97,25);
type = Stem;
},
{
place = (262,24);
type = Stem;
}
);
layerId = "B51EB05F-9FBB-4087-814F-400611B2D4B0";
shapes = (
{
closed = 1;
nodes = (
(369,-10,o),
(470,61,o),
(512,145,c),
(362,145,l),
(330,114,o),
(316,100,o),
(266,100,cs),
(176,100,o),
(171,185,o),
(185,265,cs),
(199,345,o),
(234,430,o),
(324,430,cs),
(414,430,o),
(411,355,o),
(395,265,cs),
(393,253,o),
(388,231,o),
(385,220,c),
(536,220,l),
(538,231,o),
(543,253,o),
(545,265,cs),
(575,435,o),
(503,540,o),
(343,540,cs),
(183,540,o),
(65,435,o),
(35,265,cs),
(5,95,o),
(86,-10,o),
(246,-10,cs)
);
},
{
closed = 1;
nodes = (
(467,220,l),
(483,310,l),
(108,310,l),
(92,220,l)
);
}
);
width = 580;
}
);
subCategory = Lowercase;
unicode = 101;
},
{
glyphname = eogonek;
kernLeft = o;
kernRight = o;
lastChange = "2026-01-08 00:01:42 +0000";
layers = (
{
anchors = (
{
name = top;
pos = (332,530);
}
);
layerId = "05246BF3-0764-4143-87C4-5D2B296D3790";
shapes = (
{
closed = 1;
nodes = (
(340,-10,o),
(423,41,o),
(477,135,c),
(381,135,l),
(347,89,o),
(311,70,o),
(251,70,cs),
(141,70,o),
(117,160,o),
(135,260,cs),
(153,360,o),
(208,450,o),
(318,450,cs),
(428,450,o),
(438,360,o),
(420,260,cs),
(418,248,o),
(415,236,o),
(412,225,c),
(503,225,l),
(505,236,o),
(508,248,o),
(510,260,cs),
(538,420,o),
(482,530,o),
(332,530,cs),
(182,530,o),
(73,420,o),
(45,260,cs),
(17,100,o),
(87,-10,o),
(237,-10,cs)
);
},
{
closed = 1;
nodes = (
(275,-121,l),
(163,-143,o),
(190,-67,o),
(312,0,c),
(222,0,l),
(60,-80,o),
(89,-224,o),
(262,-191,c)
);
},
{
closed = 1;
nodes = (
(454,225,l),
(466,295,l),
(96,295,l),
(84,225,l)
);
}
);
width = 555;
},
{
anchors = (
{
name = top;
pos = (343,540);
}
);
layerId = "B51EB05F-9FBB-4087-814F-400611B2D4B0";
shapes = (
{
closed = 1;
nodes = (
(369,-10,o),
(470,61,o),
(512,145,c),
(362,145,l),
(330,114,o),
(316,100,o),
(266,100,cs),
(176,100,o),
(171,185,o),
(185,265,cs),
(199,345,o),
(234,430,o),
(324,430,cs),
(414,430,o),
(411,355,o),
(395,265,cs),
(393,253,o),
(388,231,o),
(385,220,c),
(536,220,l),
(538,231,o),
(543,253,o),
(545,265,cs),
(575,435,o),
(503,540,o),
(343,540,cs),
(183,540,o),
(65,435,o),
(35,265,cs),
(5,95,o),
(86,-10,o),
(246,-10,cs)
);
},
{
closed = 1;
nodes = (
(301,-105,l),
(189,-127,o),
(203,-67,o),
(325,0,c),
(175,0,l),
(1,-86,o),
(62,-233,o),
(286,-190,c)
);
},
{
closed = 1;
nodes = (
(467,220,l),
(483,310,l),
(108,310,l),
(92,220,l)
);
}
);
width = 580;
}
);
subCategory = Lowercase;
unicode = 281;
},
{
glyphname = f;
kernLeft = f;
kernRight = f;
lastChange = "2026-01-08 00:01:42 +0000";
layers = (
{
anchors = (
{
name = bottom;
pos = (137,0);
},
{
name = top;
pos = (275,780);
}
);
hints = (
{
horizontal = 1;
origin = (0,3);
target = up;
type = BottomGhost;
},
{
horizontal = 1;
origin = (1,2);
target = (1,3);
type = Stem;
},
{
horizontal = 1;
origin = (2,6);
target = (2,3);
type = Stem;
},
{
origin = (0,3);
target = (0,0);
type = Stem;
}
);
layerId = "05246BF3-0764-4143-87C4-5D2B296D3790";
shapes = (
{
closed = 1;
nodes = (
(149,0,l),
(255,600,l),
(167,610,l),
(59,0,l)
);
},
{
closed = 1;
nodes = (
(352,440,l),
(366,520,l),
(76,520,l),
(62,440,l)
);
},
{
closed = 1;
nodes = (
(255,600,l),
(260,630,o),
(282,640,o),
(302,640,cs),
(387,640,l),
(401,720,l),
(286,720,ls),
(236,720,o),
(179,680,o),
(167,610,c)
);
}
);
width = 330;
},
{
anchors = (
{
name = bottom;
pos = (108,0);
},
{
name = top;
pos = (246,780);
}
);
hints = (
{
horizontal = 1;
origin = (0,3);
target = up;
type = BottomGhost;
},
{
horizontal = 1;
origin = (1,2);
target = (1,3);
type = Stem;
},
{
horizontal = 1;
origin = (2,6);
target = (2,3);
type = Stem;
},
{
origin = (0,3);
target = (0,0);
type = Stem;
}
);
layerId = "B51EB05F-9FBB-4087-814F-400611B2D4B0";
shapes = (
{
closed = 1;
nodes = (
(204,0,l),
(305,570,l),
(156,580,l),
(54,0,l)
);
},
{
closed = 1;
nodes = (
(408,420,l),
(427,530,l),
(67,530,l),
(48,420,l)
);
},
{
closed = 1;
nodes = (
(305,570,l),
(310,600,o),
(322,610,o),
(352,610,cs),
(442,610,l),
(461,720,l),
(331,720,ls),
(251,720,o),
(172,670,o),
(156,580,c)
);
}
);
width = 381;
}
);
subCategory = Lowercase;
unicode = 102;
},
{
glyphname = g;
kernLeft = g;
kernRight = g;
lastChange = "2026-01-08 00:01:42 +0000";
layers = (
{
anchors = (
{
name = bottom;
pos = (222,-210);
},
{
name = top;
pos = (342,530);
}
);
hints = (
{
horizontal = 1;
origin = (1,6);
target = (1,13);
type = Stem;
},
{
horizontal = 1;
origin = (2,11);
target = (0,18);
type = Stem;
},
{
horizontal = 1;
origin = (0,12);
target = (2,5);
type = Stem;
},
{
horizontal = 1;
origin = (0,7);
target = down;
type = TopGhost;
},
{
origin = (0,15);
target = (2,2);
type = Stem;
},
{
origin = (0,4);
target = (0,5);
type = Stem;
},
{
origin = (2,8);
target = (0,5);
type = Stem;
}
);
layerId = "05246BF3-0764-4143-87C4-5D2B296D3790";
shapes = (
{
closed = 1;
nodes = (
(297,-10,o),
(369,30,o),
(412,100,c),
(422,100,l),
(404,0,l),
(494,0,l),
(586,520,l),
(496,520,l),
(478,420,l),
(468,420,l),
(450,490,o),
(392,530,o),
(312,530,cs),
(172,530,o),
(75,430,o),
(45,260,cs),
(15,90,o),
(77,-10,o),
(217,-10,cs)
);
},
{
closed = 1;
nodes = (
(363,-220,o),
(469,-143,o),
(494,0,c),
(404,0,l),
(387,-94,o),
(326,-140,o),
(234,-140,cs),
(168,-140,o),
(124,-110,o),
(111,-70,c),
(16,-70,l),
(30,-160,o),
(100,-220,o),
(220,-220,cs)
);
},
{
closed = 1;
nodes = (
(161,70,o),
(112,130,o),
(135,260,cs),
(158,390,o),
(228,450,o),
(318,450,cs),
(408,450,o),
(468,390,o),
(445,260,cs),
(422,130,o),
(341,70,o),
(251,70,cs)
);
}
);
width = 615;
},
{
anchors = (
{
name = bottom;
pos = (211,-210);
},
{
name = top;
pos = (338,540);
}
);
hints = (
{
horizontal = 1;
origin = (1,6);
target = (1,13);
type = Stem;
},
{
horizontal = 1;
origin = (2,11);
target = (0,18);
type = Stem;
},
{
horizontal = 1;
origin = (0,12);
target = (2,5);
type = Stem;
},
{
horizontal = 1;
origin = (0,7);
target = (2,5);
type = Stem;
},
{
origin = (0,15);
target = (2,2);
type = Stem;
},
{
origin = (0,4);
target = (0,5);
type = Stem;
},
{
origin = (2,8);
target = (0,5);
type = Stem;
}
);
layerId = "B51EB05F-9FBB-4087-814F-400611B2D4B0";
shapes = (
{
closed = 1;
nodes = (
(291,-10,o),
(343,30,o),
(382,80,c),
(392,80,l),
(378,0,l),
(528,0,l),
(621,530,l),
(471,530,l),
(457,450,l),
(447,450,l),
(426,500,o),
(388,540,o),
(308,540,cs),
(168,540,o),
(60,435,o),
(30,265,cs),
(0,95,o),
(71,-10,o),
(211,-10,cs)
);
},
{
closed = 1;
nodes = (
(349,-220,o),
(501,-153,o),
(528,0,c),
(378,0,l),
(365,-74,o),
(311,-110,o),
(229,-110,cs),
(183,-110,o),
(161,-89,o),
(138,-50,c),
(-17,-50,l),
(-5,-131,o),
(69,-220,o),
(209,-220,cs)
);
},
{
closed = 1;
nodes = (
(191,100,o),
(162,165,o),
(180,265,cs),
(197,365,o),
(249,430,o),
(329,430,cs),
(409,430,o),
(437,365,o),
(420,265,cs),
(402,165,o),
(351,100,o),
(271,100,cs)
);
}
);
width = 635;
}
);
subCategory = Lowercase;
unicode = 103;
},
{
glyphname = h;
kernLeft = I;
kernRight = n;
lastChange = "2026-01-08 00:01:42 +0000";
layers = (
{
anchors = (
{
name = bottom;
pos = (262,0);
},
{
name = center;
pos = (331,390);
},
{
name = top;
pos = (400,780);
}
);
hints = (
{
horizontal = 1;
origin = (0,20);
target = up;
type = BottomGhost;
},
{
horizontal = 1;
origin = (0,13);
target = (0,4);
type = Stem;
},
{
horizontal = 1;
origin = (0,19);
target = down;
type = TopGhost;
},
{
origin = (0,20);
target = (0,0);
type = Stem;
},
{
origin = (0,8);
target = (0,9);
type = Stem;
}
);
layerId = "05246BF3-0764-4143-87C4-5D2B296D3790";
shapes = (
{
closed = 1;
nodes = (
(119,0,l),
(168,280,ls),
(188,390,o),
(263,450,o),
(333,450,cs),
(403,450,o),
(443,420,o),
(427,330,c),
(369,0,l),
(459,0,l),
(517,330,l),
(542,470,o),
(477,530,o),
(377,530,cs),
(297,530,o),
(245,490,o),
(203,420,c),
(193,420,l),
(246,720,l),
(156,720,l),
(29,0,l)
);
}
);
width = 570;
},
{
anchors = (
{
name = bottom;
pos = (275,0);
},
{
name = center;
pos = (344,390);
},
{
name = top;
pos = (413,780);
}
);
hints = (
{
horizontal = 1;
origin = (0,20);
target = up;
type = BottomGhost;
},
{
horizontal = 1;
origin = (0,13);
target = (0,4);
type = Stem;
},
{
horizontal = 1;
origin = (0,19);
target = down;
type = TopGhost;
},
{
origin = (0,20);
target = (0,0);
type = Stem;
},
{
origin = (0,8);
target = (0,9);
type = Stem;
}
);
layerId = "B51EB05F-9FBB-4087-814F-400611B2D4B0";
shapes = (
{
closed = 1;
nodes = (
(163,0,l),
(212,280,ls),
(228,370,o),
(274,430,o),
(334,430,cs),
(394,430,o),
(414,400,o),
(401,330,c),
(343,0,l),
(493,0,l),
(551,330,l),
(576,470,o),
(513,540,o),
(413,540,cs),
(343,540,o),
(293,510,o),
(252,450,c),
(242,450,l),
(290,720,l),
(140,720,l),
(13,0,l)
);
}
);
width = 590;
}
);
subCategory = Lowercase;
unicode = 104;
},
{
glyphname = hbar;
lastChange = "2026-01-08 00:01:42 +0000";
layers = (
{
hints = (
{
horizontal = 1;
origin = (0,20);
target = up;
type = BottomGhost;
},
{
horizontal = 1;
origin = (0,13);
target = (0,4);
type = Stem;
},
{
horizontal = 1;
origin = (0,19);
target = (1,3);
type = Stem;
},
{
horizontal = 1;
origin = (1,3);
target = (1,2);
type = Stem;
},
{
origin = (0,20);
target = (0,0);
type = Stem;
},
{
origin = (0,8);
target = (0,9);
type = Stem;
}
);
layerId = "05246BF3-0764-4143-87C4-5D2B296D3790";
shapes = (
{
closed = 1;
nodes = (
(119,0,l),
(168,280,ls),
(188,390,o),
(263,450,o),
(333,450,cs),
(403,450,o),
(443,420,o),
(427,330,c),
(369,0,l),
(459,0,l),
(517,330,l),
(542,470,o),
(477,530,o),
(377,530,cs),
(297,530,o),
(245,490,o),
(203,420,c),
(193,420,l),
(246,720,l),
(156,720,l),
(29,0,l)
);
},
{
closed = 1;
nodes = (
(355,601,l),
(367,671,l),
(97,671,l),
(85,601,l)
);
}
);
width = 570;
},
{
hints = (
{
horizontal = 1;
origin = (0,20);
target = up;
type = BottomGhost;
},
{
horizontal = 1;
origin = (0,13);
target = (0,4);
type = Stem;
},
{
horizontal = 1;
origin = (0,19);
target = (1,3);
type = Stem;
},
{
horizontal = 1;
origin = (1,3);
target = (1,2);
type = Stem;
},
{
origin = (0,20);
target = (0,0);
type = Stem;
},
{
origin = (0,8);
target = (0,9);
type = Stem;
}
);
layerId = "B51EB05F-9FBB-4087-814F-400611B2D4B0";
shapes = (
{
closed = 1;
nodes = (
(169,0,l),
(218,280,ls),
(234,370,o),
(280,430,o),
(340,430,cs),
(400,430,o),
(420,400,o),
(407,330,c),
(349,0,l),
(499,0,l),
(557,330,l),
(582,470,o),
(519,540,o),
(419,540,cs),
(349,540,o),
(299,510,o),
(258,450,c),
(248,450,l),
(296,720,l),
(146,720,l),
(19,0,l)
);
},
{
closed = 1;
nodes = (
(406,581,l),
(422,671,l),
(82,671,l),
(66,581,l)
);
}
);
width = 596;
}
);
subCategory = Lowercase;
unicode = 295;
},
{
glyphname = i;
kernLeft = i;
kernRight = i;
lastChange = "2026-01-08 00:01:42 +0000";
layers = (
{
anchors = (
{
name = bottom;
pos = (74,0);
}
);
hints = (
{
horizontal = 1;
origin = (0,3);
target = up;
type = BottomGhost;
},
{
horizontal = 1;
origin = (0,2);
target = down;
type = TopGhost;
},
{
horizontal = 1;
origin = (1,5);
target = (1,11);
type = Stem;
},
{
origin = (1,8);
target = (1,2);
type = Stem;
},
{
origin = (0,3);
target = (0,0);
type = Stem;
}
);
layerId = "05246BF3-0764-4143-87C4-5D2B296D3790";
shapes = (
{
closed = 1;
nodes = (
(119,0,l),
(211,520,l),
(121,520,l),
(29,0,l)
);
},
{
closed = 1;
nodes = (
(214,620,o),
(243,644,o),
(248,675,cs),
(254,706,o),
(234,730,o),
(203,730,cs),
(172,730,o),
(144,706,o),
(138,675,cs),
(133,644,o),
(152,620,o),
(183,620,cs)
);
}
);
width = 240;
},
{
anchors = (
{
name = bottom;
pos = (94,0);
}
);
hints = (
{
horizontal = 1;
origin = (0,3);
target = up;
type = BottomGhost;
},
{
horizontal = 1;
origin = (0,2);
target = down;
type = TopGhost;
},
{
horizontal = 1;
origin = (1,11);
target = (1,5);
type = Stem;
},
{
origin = (1,8);
target = (1,2);
type = Stem;
},
{
origin = (0,3);
target = (0,0);
type = Stem;
}
);
layerId = "B51EB05F-9FBB-4087-814F-400611B2D4B0";
shapes = (
{
closed = 1;
nodes = (
(169,0,l),
(262,530,l),
(112,530,l),
(19,0,l)
);
},
{
closed = 1;
nodes = (
(244,580,o),
(288,617,o),
(296,665,cs),
(305,713,o),
(274,750,o),
(226,750,cs),
(178,750,o),
(135,713,o),
(126,665,cs),
(118,617,o),
(148,580,o),
(196,580,cs)
);
}
);
width = 280;
}
);
subCategory = Lowercase;
unicode = 105;
},
{
glyphname = idotless;
lastChange = "2026-01-08 00:01:42 +0000";
layers = (
{
anchors = (
{
name = bottom;
pos = (64,0);
},
{
name = ogonek;
pos = (109,0);
},
{
name = top;
pos = (156,520);
}
);
hints = (
{
horizontal = 1;
origin = (0,3);
target = up;
type = BottomGhost;
},
{
horizontal = 1;
origin = (0,2);
target = down;
type = TopGhost;
},
{
origin = (0,3);
target = (0,0);
type = Stem;
}
);
layerId = "05246BF3-0764-4143-87C4-5D2B296D3790";
shapes = (
{
closed = 1;
nodes = (
(109,0,l),
(201,520,l),
(111,520,l),
(19,0,l)
);
}
);
width = 220;
},
{
anchors = (
{
name = bottom;
pos = (84,0);
},
{
name = ogonek;
pos = (159,0);
},
{
name = top;
pos = (178,530);
}
);
hints = (
{
horizontal = 1;
origin = (0,3);
target = up;
type = BottomGhost;
},
{
horizontal = 1;
origin = (0,2);
target = down;
type = TopGhost;
},
{
origin = (0,3);
target = (0,0);
type = Stem;
}
);
layerId = "B51EB05F-9FBB-4087-814F-400611B2D4B0";
shapes = (
{
closed = 1;
nodes = (
(159,0,l),
(252,530,l),
(102,530,l),
(9,0,l)
);
}
);
width = 261;
}
);
subCategory = Lowercase;
unicode = 305;
},
{
glyphname = iogonek;
lastChange = "2026-01-08 00:01:42 +0000";
layers = (
{
hints = (
{
horizontal = 1;
origin = (0,6);
target = up;
type = BottomGhost;
},
{
horizontal = 1;
origin = (0,5);
target = down;
type = TopGhost;
},
{
origin = (0,6);
target = (0,3);
type = Stem;
},
{
horizontal = 1;
place = (-322,-56);
type = Stem;
},
{
place = (-127,-41);
type = Stem;
},
{
horizontal = 1;
origin = (1,5);
target = (1,11);
type = Stem;
},
{
origin = (1,8);
target = (1,2);
type = Stem;
}
);
layerId = "05246BF3-0764-4143-87C4-5D2B296D3790";
shapes = (
{
closed = 1;
nodes = (
(93,-121,l),
(-19,-143,o),
(8,-67,o),
(130,0,c),
(222,520,l),
(132,520,l),
(40,0,l),
(-122,-80,o),
(-93,-224,o),
(80,-191,c)
);
},
{
closed = 1;
nodes = (
(224,630,o),
(250,652,o),
(255,680,cs),
(260,708,o),
(242,730,o),
(214,730,cs),
(186,730,o),
(160,708,o),
(155,680,cs),
(150,652,o),
(168,630,o),
(196,630,cs)
);
}
);
width = 246;
},
{
hints = (
{
horizontal = 1;
origin = (0,6);
target = up;
type = BottomGhost;
},
{
horizontal = 1;
origin = (0,5);
target = down;
type = TopGhost;
},
{
origin = (0,6);
target = (0,3);
type = Stem;
},
{
horizontal = 1;
origin = (1,11);
target = (1,5);
type = Stem;
},
{
origin = (1,8);
target = (1,2);
type = Stem;
},
{
horizontal = 1;
place = (-325,-39);
type = Stem;
},
{
place = (-152,19);
type = Stem;
}
);
layerId = "B51EB05F-9FBB-4087-814F-400611B2D4B0";
shapes = (
{
closed = 1;
nodes = (
(136,-105,l),
(24,-127,o),
(38,-67,o),
(160,0,c),
(253,530,l),
(103,530,l),
(10,0,l),
(-164,-86,o),
(-103,-233,o),
(121,-190,c)
);
},
{
closed = 1;
nodes = (
(239,600,o),
(282,637,o),
(291,685,cs),
(299,733,o),
(269,770,o),
(221,770,cs),
(173,770,o),
(129,733,o),
(121,685,cs),
(112,637,o),
(143,600,o),
(191,600,cs)
);
}
);
width = 267;
}
);
subCategory = Lowercase;
unicode = 303;
},
{
glyphname = j;
kernLeft = j;
kernRight = j;
lastChange = "2026-01-08 00:01:42 +0000";
layers = (
{
hints = (
{
horizontal = 1;
origin = (1,8);
target = (1,9);
type = Stem;
},
{
horizontal = 1;
origin = (0,1);
target = down;
type = TopGhost;
},
{
horizontal = 1;
origin = (2,5);
target = (2,11);
type = Stem;
},
{
origin = (1,0);
target = (2,2);
type = Stem;
},
{
origin = (0,2);
target = (0,3);
type = Stem;
}
);
layerId = "05246BF3-0764-4143-87C4-5D2B296D3790";
shapes = (
{
closed = 1;
nodes = (
(226,520,l),
(136,520,l),
(26,-100,l),
(115,-110,l)
);
},
{
closed = 1;
nodes = (
(-5,-220,ls),
(45,-220,o),
(102,-180,o),
(115,-110,c),
(26,-100,l),
(21,-130,o),
(-1,-140,o),
(-21,-140,cs),
(-81,-140,l),
(-95,-220,l)
);
},
{
closed = 1;
nodes = (
(229,620,o),
(258,644,o),
(263,675,cs),
(269,706,o),
(249,730,o),
(218,730,cs),
(187,730,o),
(159,706,o),
(153,675,cs),
(148,644,o),
(167,620,o),
(198,620,cs)
);
}
);
width = 255;
},
{
hints = (
{
horizontal = 1;
origin = (1,8);
target = (1,9);
type = Stem;
},
{
horizontal = 1;
origin = (0,1);
target = down;
type = TopGhost;
},
{
horizontal = 1;
origin = (2,11);
target = (2,5);
type = Stem;
},
{
origin = (2,8);
target = (2,2);
type = Stem;
},
{
origin = (1,0);
target = (0,3);
type = Stem;
}
);
layerId = "B51EB05F-9FBB-4087-814F-400611B2D4B0";
shapes = (
{
closed = 1;
nodes = (
(286,530,l),
(136,530,l),
(31,-70,l),
(179,-80,l)
);
},
{
closed = 1;
nodes = (
(4,-220,ls),
(84,-220,o),
(163,-170,o),
(179,-80,c),
(31,-70,l),
(25,-100,o),
(4,-110,o),
(-16,-110,cs),
(-86,-110,l),
(-106,-220,l)
);
},
{
closed = 1;
nodes = (
(268,580,o),
(312,617,o),
(320,665,cs),
(329,713,o),
(298,750,o),
(250,750,cs),
(202,750,o),
(159,713,o),
(150,665,cs),
(142,617,o),
(172,580,o),
(220,580,cs)
);
}
);
width = 304;
}
);
subCategory = Lowercase;
unicode = 106;
},
{
glyphname = jdotless;
lastChange = "2026-01-08 00:01:42 +0000";
layers = (
{
anchors = (
{
name = bottom;
pos = (35,-240);
},
{
name = top;
pos = (176,520);
}
);
hints = (
{
horizontal = 1;
origin = (1,9);
target = (1,8);
type = Stem;
},
{
horizontal = 1;
origin = (0,1);
target = down;
type = TopGhost;
},
{
origin = (0,2);
target = (0,3);
type = Stem;
}
);
layerId = "05246BF3-0764-4143-87C4-5D2B296D3790";
shapes = (
{
closed = 1;
nodes = (
(226,520,l),
(136,520,l),
(26,-100,l),
(115,-110,l)
);
},
{
closed = 1;
nodes = (
(-5,-220,ls),
(45,-220,o),
(102,-180,o),
(115,-110,c),
(26,-100,l),
(21,-130,o),
(-1,-140,o),
(-21,-140,cs),
(-81,-140,l),
(-95,-220,l)
);
}
);
width = 245;
},
{
anchors = (
{
name = bottom;
pos = (59,-240);
},
{
name = top;
pos = (211,530);
}
);
hints = (
{
horizontal = 1;
origin = (1,9);
target = (1,8);
type = Stem;
},
{
horizontal = 1;
origin = (0,1);
target = down;
type = TopGhost;
},
{
origin = (1,0);
target = (0,3);
type = Stem;
}
);
layerId = "B51EB05F-9FBB-4087-814F-400611B2D4B0";
shapes = (
{
closed = 1;
nodes = (
(286,530,l),
(136,530,l),
(31,-70,l),
(179,-80,l)
);
},
{
closed = 1;
nodes = (
(4,-220,ls),
(84,-220,o),
(163,-170,o),
(179,-80,c),
(31,-70,l),
(25,-100,o),
(4,-110,o),
(-16,-110,cs),
(-86,-110,l),
(-106,-220,l)
);
}
);
width = 295;
}
);
subCategory = Lowercase;
unicode = 567;
},
{
glyphname = k;
kernLeft = I;
kernRight = k;
lastChange = "2026-01-08 00:01:42 +0000";
layers = (
{
anchors = (
{
name = bottom;
pos = (239,0);
},
{
name = top;
pos = (355,780);
}
);
hints = (
{
horizontal = 1;
origin = (1,3);
target = up;
type = BottomGhost;
},
{
horizontal = 1;
origin = (0,1);
target = down;
type = TopGhost;
},
{
horizontal = 1;
origin = (1,2);
target = down;
type = TopGhost;
},
{
origin = (1,3);
target = (1,0);
type = Stem;
}
);
layerId = "05246BF3-0764-4143-87C4-5D2B296D3790";
shapes = (
{
closed = 1;
nodes = (
(516,520,l),
(416,520,l),
(180,290,l),
(170,290,l),
(124,146,l)
);
},
{
closed = 1;
nodes = (
(119,0,l),
(246,720,l),
(156,720,l),
(29,0,l)
);
},
{
closed = 1;
nodes = (
(459,0,l),
(283,306,l),
(210,263,l),
(364,0,l)
);
}
);
width = 515;
},
{
anchors = (
{
name = bottom;
pos = (248,0);
},
{
name = top;
pos = (364,780);
}
);
hints = (
{
horizontal = 1;
origin = (1,3);
target = up;
type = BottomGhost;
},
{
horizontal = 1;
origin = (0,1);
target = down;
type = TopGhost;
},
{
horizontal = 1;
origin = (1,2);
target = down;
type = TopGhost;
},
{
origin = (1,3);
target = (1,0);
type = Stem;
}
);
layerId = "B51EB05F-9FBB-4087-814F-400611B2D4B0";
shapes = (
{
closed = 1;
nodes = (
(581,530,l),
(421,530,l),
(233,340,l),
(223,340,l),
(151,108,l)
);
},
{
closed = 1;
nodes = (
(163,0,l),
(290,720,l),
(140,720,l),
(13,0,l)
);
},
{
closed = 1;
nodes = (
(528,0,l),
(352,306,l),
(216,263,l),
(368,0,l)
);
}
);
width = 585;
}
);
subCategory = Lowercase;
unicode = 107;
},
{
glyphname = l;
kernLeft = I;
kernRight = l;
lastChange = "2026-01-08 00:01:42 +0000";
layers = (
{
anchors = (
{
name = bottom;
pos = (113,0);
},
{
name = center;
pos = (182,390);
},
{
name = top;
pos = (202,720);
}
);
hints = (
{
horizontal = 1;
origin = (1,9);
target = (1,2);
type = Stem;
},
{
origin = (0,3);
target = (0,0);
type = Stem;
}
);
layerId = "05246BF3-0764-4143-87C4-5D2B296D3790";
shapes = (
{
closed = 1;
nodes = (
(141,120,l),
(247,720,l),
(157,720,l),
(49,110,l)
);
},
{
closed = 1;
nodes = (
(195,0,l),
(209,80,l),
(174,80,l),
(154,80,o),
(136,90,o),
(141,120,c),
(49,110,l),
(37,40,o),
(80,0,o),
(130,0,c)
);
}
);
width = 261;
},
{
anchors = (
{
name = bottom;
pos = (121,0);
},
{
name = center;
pos = (190,390);
},
{
name = top;
pos = (215,720);
}
);
hints = (
{
horizontal = 1;
origin = (1,9);
target = (1,2);
type = Stem;
},
{
origin = (0,3);
target = (1,9);
type = Stem;
}
);
layerId = "B51EB05F-9FBB-4087-814F-400611B2D4B0";
shapes = (
{
closed = 1;
nodes = (
(189,150,l),
(290,720,l),
(140,720,l),
(38,140,l)
);
},
{
closed = 1;
nodes = (
(258,0,l),
(277,110,l),
(222,110,l),
(202,110,o),
(184,120,o),
(189,150,c),
(38,140,l),
(22,50,o),
(83,0,o),
(163,0,c)
);
}
);
width = 325;
}
);
subCategory = Lowercase;
unicode = 108;
},
{
glyphname = lslash;
kernLeft = l;
kernRight = l;
lastChange = "2026-01-08 00:01:42 +0000";
layers = (
{
hints = (
{
horizontal = 1;
origin = (0,3);
target = (0,1);
type = Stem;
},
{
origin = (0,3);
target = (0,0);
type = Stem;
}
);
layerId = "05246BF3-0764-4143-87C4-5D2B296D3790";
shapes = (
{
closed = 1;
nodes = (
(260,397,l),
(272,467,l),
(55,367,l),
(42,297,l)
);
},
{
alignment = -1;
pos = (12,0);
ref = l;
}
);
width = 288;
},
{
hints = (
{
horizontal = 1;
origin = (0,3);
target = (0,1);
type = Stem;
},
{
origin = (0,3);
target = (0,0);
type = Stem;
}
);
layerId = "B51EB05F-9FBB-4087-814F-400611B2D4B0";
shapes = (
{
closed = 1;
nodes = (
(314,397,l),
(332,497,l),
(37,357,l),
(19,257,l)
);
},
{
alignment = -1;
pos = (16,0);
ref = l;
}
);
width = 341;
}
);
subCategory = Lowercase;
unicode = 322;
},
{
glyphname = m;
kernLeft = n;
kernRight = n;
lastChange = "2026-01-08 00:01:42 +0000";
layers = (
{
anchors = (
{
name = bottom;
pos = (397,0);
},
{
name = top;
pos = (489,520);
}
);
hints = (
{
horizontal = 1;
origin = (0,20);
target = up;
type = BottomGhost;
},
{
horizontal = 1;
origin = (0,13);
target = (0,4);
type = Stem;
},
{
horizontal = 1;
origin = (0,19);
target = down;
type = TopGhost;
},
{
origin = (0,20);
target = (0,0);
type = Stem;
},
{
origin = (0,8);
target = (0,9);
type = Stem;
},
{
origin = (1,16);
target = (1,0);
type = Stem;
}
);
layerId = "05246BF3-0764-4143-87C4-5D2B296D3790";
shapes = (
{
closed = 1;
nodes = (
(119,0,l),
(168,280,ls),
(188,390,o),
(253,450,o),
(323,450,cs),
(383,450,o),
(421,410,o),
(407,330,c),
(349,0,l),
(439,0,l),
(497,330,l),
(522,470,o),
(457,530,o),
(367,530,cs),
(287,530,o),
(245,490,o),
(203,420,c),
(193,420,l),
(211,520,l),
(121,520,l),
(29,0,l)
);
},
{
closed = 1;
nodes = (
(759,0,l),
(817,330,l),
(842,470,o),
(777,530,o),
(687,530,cs),
(607,530,o),
(553,490,o),
(511,420,c),
(499,420,l),
(488,280,l),
(508,390,o),
(573,450,o),
(643,450,cs),
(703,450,o),
(741,410,o),
(727,330,c),
(669,0,l)
);
}
);
width = 870;
},
{
anchors = (
{
name = bottom;
pos = (392,0);
},
{
name = top;
pos = (484,520);
}
);
hints = (
{
horizontal = 1;
origin = (0,20);
target = up;
type = BottomGhost;
},
{
horizontal = 1;
origin = (0,13);
target = (0,4);
type = Stem;
},
{
horizontal = 1;
origin = (0,19);
target = (0,4);
type = Stem;
},
{
origin = (0,20);
target = (0,0);
type = Stem;
},
{
origin = (0,8);
target = (0,9);
type = Stem;
},
{
origin = (1,16);
target = (1,0);
type = Stem;
}
);
layerId = "B51EB05F-9FBB-4087-814F-400611B2D4B0";
shapes = (
{
closed = 1;
nodes = (
(164,0,l),
(213,280,ls),
(231,380,o),
(265,430,o),
(325,430,cs),
(375,430,o),
(393,390,o),
(382,330,c),
(324,0,l),
(474,0,l),
(532,330,l),
(557,470,o),
(504,540,o),
(404,540,cs),
(334,540,o),
(294,510,o),
(253,450,c),
(243,450,l),
(257,530,l),
(107,530,l),
(14,0,l)
);
},
{
closed = 1;
nodes = (
(784,0,l),
(842,330,l),
(867,470,o),
(804,540,o),
(704,540,cs),
(634,540,o),
(584,510,o),
(543,450,c),
(523,450,l),
(523,280,l),
(541,380,o),
(575,430,o),
(635,430,cs),
(685,430,o),
(703,390,o),
(692,330,c),
(634,0,l)
);
}
);
width = 881;
}
);
subCategory = Lowercase;
unicode = 109;
},
{
glyphname = n;
kernLeft = n;
kernRight = n;
lastChange = "2026-01-08 00:01:42 +0000";
layers = (
{
anchors = (
{
name = bottom;
pos = (254,0);
},
{
name = top;
pos = (347,530);
}
);
hints = (
{
horizontal = 1;
origin = (0,20);
target = up;
type = BottomGhost;
},
{
horizontal = 1;
origin = (0,13);
target = (0,4);
type = Stem;
},
{
horizontal = 1;
origin = (0,19);
target = down;
type = TopGhost;
},
{
origin = (0,20);
target = (0,0);
type = Stem;
},
{
origin = (0,8);
target = (0,9);
type = Stem;
}
);
layerId = "05246BF3-0764-4143-87C4-5D2B296D3790";
shapes = (
{
closed = 1;
nodes = (
(119,0,l),
(168,280,ls),
(188,390,o),
(263,450,o),
(333,450,cs),
(403,450,o),
(443,420,o),
(427,330,c),
(369,0,l),
(459,0,l),
(517,330,l),
(542,470,o),
(477,530,o),
(377,530,cs),
(297,530,o),
(247,500,o),
(205,430,c),
(195,430,l),
(211,520,l),
(121,520,l),
(29,0,l)
);
}
);
width = 570;
},
{
anchors = (
{
name = bottom;
pos = (259,0);
},
{
name = top;
pos = (354,540);
}
);
hints = (
{
horizontal = 1;
origin = (0,20);
target = up;
type = BottomGhost;
},
{
horizontal = 1;
origin = (0,13);
target = (0,4);
type = Stem;
},
{
horizontal = 1;
origin = (0,19);
target = (0,4);
type = Stem;
},
{
origin = (0,20);
target = (0,0);
type = Stem;
},
{
origin = (0,8);
target = (0,9);
type = Stem;
}
);
layerId = "B51EB05F-9FBB-4087-814F-400611B2D4B0";
shapes = (
{
closed = 1;
nodes = (
(164,0,l),
(213,280,ls),
(229,370,o),
(275,430,o),
(335,430,cs),
(395,430,o),
(415,400,o),
(402,330,c),
(344,0,l),
(494,0,l),
(552,330,l),
(577,470,o),
(514,540,o),
(414,540,cs),
(344,540,o),
(294,510,o),
(253,450,c),
(243,450,l),
(257,530,l),
(107,530,l),
(14,0,l)
);
}
);
width = 591;
}
);
subCategory = Lowercase;
unicode = 110;
},
{
glyphname = eng;
lastChange = "2026-01-08 00:01:42 +0000";
layers = (
{
anchors = (
{
name = bottom;
pos = (254,0);
},
{
name = top;
pos = (347,530);
}
);
hints = (
{
horizontal = 1;
origin = (0,32);
target = (0,31);
type = Stem;
},
{
origin = (0,27);
target = (0,3);
type = Stem;
},
{
horizontal = 1;
origin = (0,16);
target = up;
type = BottomGhost;
},
{
horizontal = 1;
origin = (0,9);
target = (0,21);
type = Stem;
},
{
horizontal = 1;
origin = (0,15);
target = down;
type = TopGhost;
},
{
origin = (0,16);
target = (0,17);
type = Stem;
},
{
origin = (0,25);
target = (0,5);
type = Stem;
}
);
layerId = "05246BF3-0764-4143-87C4-5D2B296D3790";
shapes = (
{
closed = 1;
nodes = (
(318,-200,ls),
(368,-200,o),
(430,-160,o),
(442,-90,cs),
(458,0,l),
(459,0,l),
(517,330,ls),
(542,470,o),
(477,530,o),
(377,530,cs),
(297,530,o),
(247,500,o),
(205,430,c),
(195,430,l),
(211,520,l),
(121,520,l),
(29,0,l),
(119,0,l),
(168,280,ls),
(188,390,o),
(263,450,o),
(333,450,cs),
(403,450,o),
(443,420,o),
(427,330,cs),
(369,0,l),
(368,0,l),
(352,-90,ls),
(347,-120,o),
(321,-130,o),
(301,-130,cs),
(245,-130,l),
(233,-200,l)
);
}
);
width = 580;
},
{
anchors = (
{
name = bottom;
pos = (259,0);
},
{
name = top;
pos = (354,540);
}
);
hints = (
{
horizontal = 1;
origin = (0,32);
target = (0,31);
type = Stem;
},
{
origin = (0,27);
target = (0,3);
type = Stem;
},
{
horizontal = 1;
origin = (0,16);
target = up;
type = BottomGhost;
},
{
horizontal = 1;
origin = (0,9);
target = (0,21);
type = Stem;
},
{
horizontal = 1;
origin = (0,15);
target = (0,21);
type = Stem;
},
{
origin = (0,16);
target = (0,17);
type = Stem;
},
{
origin = (0,25);
target = (0,5);
type = Stem;
}
);
layerId = "B51EB05F-9FBB-4087-814F-400611B2D4B0";
shapes = (
{
closed = 1;
nodes = (
(343,-200,ls),
(393,-200,o),
(465,-160,o),
(477,-90,cs),
(493,0,l),
(494,0,l),
(552,330,ls),
(577,470,o),
(514,540,o),
(414,540,cs),
(344,540,o),
(294,510,o),
(253,450,c),
(243,450,l),
(257,530,l),
(107,530,l),
(14,0,l),
(164,0,l),
(213,280,ls),
(229,370,o),
(275,430,o),
(335,430,cs),
(395,430,o),
(415,400,o),
(402,330,cs),
(344,0,l),
(343,0,l),
(334,-50,ls),
(329,-80,o),
(303,-90,o),
(283,-90,cs),
(217,-90,l),
(198,-200,l)
);
}
);
width = 600;
}
);
subCategory = Lowercase;
unicode = 331;
},
{
glyphname = o;
kernLeft = o;
kernRight = o;
lastChange = "2026-01-08 00:01:42 +0000";
layers = (
{
anchors = (
{
name = bottom;
pos = (239,0);
},
{
name = center;
pos = (285,260);
},
{
name = ogonek;
pos = (473,10);
},
{
name = top;
pos = (331,520);
},
{
name = topright;
pos = (601,520);
}
);
hints = (
{
horizontal = 1;
origin = (1,11);
target = (0,11);
type = Stem;
},
{
horizontal = 1;
origin = (0,5);
target = (1,5);
type = Stem;
},
{
origin = (0,8);
target = (1,2);
type = Stem;
},
{
origin = (1,8);
target = (0,2);
type = Stem;
}
);
layerId = "05246BF3-0764-4143-87C4-5D2B296D3790";
shapes = (
{
closed = 1;
nodes = (
(387,-10,o),
(497,100,o),
(525,260,cs),
(553,420,o),
(482,530,o),
(332,530,cs),
(182,530,o),
(73,420,o),
(45,260,cs),
(17,100,o),
(87,-10,o),
(237,-10,cs)
);
},
{
closed = 1;
nodes = (
(141,70,o),
(117,160,o),
(135,260,cs),
(153,360,o),
(208,450,o),
(318,450,cs),
(428,450,o),
(453,360,o),
(435,260,cs),
(417,160,o),
(361,70,o),
(251,70,cs)
);
}
);
width = 570;
},
{
anchors = (
{
name = bottom;
pos = (248,0);
},
{
name = center;
pos = (296,260);
},
{
name = ogonek;
pos = (484,10);
},
{
name = top;
pos = (343,540);
},
{
name = topright;
pos = (612,520);
}
);
hints = (
{
horizontal = 1;
origin = (0,11);
target = (1,11);
type = Stem;
},
{
horizontal = 1;
origin = (0,5);
target = (1,5);
type = Stem;
},
{
origin = (0,8);
target = (1,2);
type = Stem;
},
{
origin = (1,8);
target = (0,2);
type = Stem;
}
);
layerId = "B51EB05F-9FBB-4087-814F-400611B2D4B0";
shapes = (
{
closed = 1;
nodes = (
(406,-10,o),
(525,95,o),
(555,265,cs),
(585,435,o),
(503,540,o),
(343,540,cs),
(183,540,o),
(65,435,o),
(35,265,cs),
(5,95,o),
(86,-10,o),
(246,-10,cs)
);
},
{
closed = 1;
nodes = (
(176,100,o),
(171,185,o),
(185,265,cs),
(199,345,o),
(234,430,o),
(324,430,cs),
(414,430,o),
(419,345,o),
(405,265,cs),
(391,185,o),
(356,100,o),
(266,100,cs)
);
}
);
width = 590;
}
);
subCategory = Lowercase;
unicode = 111;
},
{
glyphname = oslash;
kernLeft = c;
kernRight = o;
lastChange = "2026-01-08 00:01:42 +0000";
layers = (
{
hints = (
{
horizontal = 1;
origin = (0,3);
target = up;
type = BottomGhost;
},
{
horizontal = 1;
origin = (0,2);
target = down;
type = TopGhost;
}
);
layerId = "05246BF3-0764-4143-87C4-5D2B296D3790";
shapes = (
{
closed = 1;
nodes = (
(38,-10,l),
(583,530,l),
(513,530,l),
(-32,-10,l)
);
},
{
ref = o;
}
);
width = 574;
},
{
hints = (
{
horizontal = 1;
origin = (0,3);
target = up;
type = BottomGhost;
},
{
horizontal = 1;
origin = (0,2);
target = down;
type = TopGhost;
}
);
layerId = "B51EB05F-9FBB-4087-814F-400611B2D4B0";
shapes = (
{
closed = 1;
nodes = (
(82,-10,l),
(647,530,l),
(537,530,l),
(-28,-10,l)
);
},
{
pos = (14,0);
ref = o;
}
);
width = 620;
}
);
subCategory = Lowercase;
unicode = 248;
},
{
glyphname = oe;
kernLeft = c;
kernRight = e;
lastChange = "2026-01-08 00:01:42 +0000";
layers = (
{
hints = (
{
horizontal = 1;
origin = (0,11);
target = (1,11);
type = Stem;
},
{
horizontal = 1;
origin = (3,3);
target = (3,2);
type = Stem;
},
{
horizontal = 1;
origin = (0,5);
target = (1,5);
type = Stem;
},
{
origin = (0,8);
target = (1,2);
type = Stem;
},
{
place = (308,-25);
type = Stem;
},
{
place = (692,-36);
type = Stem;
}
);
layerId = "05246BF3-0764-4143-87C4-5D2B296D3790";
shapes = (
{
closed = 1;
nodes = (
(387,-10,o),
(497,100,o),
(525,260,cs),
(553,420,o),
(482,530,o),
(332,530,cs),
(182,530,o),
(73,420,o),
(45,260,cs),
(17,100,o),
(87,-10,o),
(237,-10,cs)
);
},
{
closed = 1;
nodes = (
(141,70,o),
(117,160,o),
(135,260,cs),
(153,360,o),
(208,450,o),
(318,450,cs),
(428,450,o),
(453,360,o),
(435,260,cs),
(417,160,o),
(361,70,o),
(251,70,cs)
);
},
{
closed = 1;
nodes = (
(740,-10,o),
(815,51,o),
(867,135,c),
(771,135,l),
(738,94,o),
(711,70,o),
(651,70,cs),
(541,70,o),
(517,160,o),
(535,260,cs),
(553,360,o),
(608,450,o),
(718,450,cs),
(828,450,o),
(838,360,o),
(820,260,cs),
(818,248,o),
(815,236,o),
(812,225,c),
(903,225,l),
(905,236,o),
(908,248,o),
(910,260,cs),
(938,420,o),
(882,530,o),
(732,530,cs),
(582,530,o),
(473,420,o),
(445,260,cs),
(417,100,o),
(487,-10,o),
(637,-10,cs)
);
},
{
closed = 1;
nodes = (
(854,225,l),
(866,295,l),
(496,295,l),
(484,225,l)
);
}
);
width = 955;
},
{
hints = (
{
horizontal = 1;
origin = (0,11);
target = (1,11);
type = Stem;
},
{
horizontal = 1;
origin = (3,3);
target = (3,2);
type = Stem;
},
{
horizontal = 1;
origin = (0,5);
target = (1,5);
type = Stem;
},
{
origin = (0,8);
target = (1,2);
type = Stem;
},
{
place = (273,45);
type = Stem;
},
{
place = (652,24);
type = Stem;
}
);
layerId = "B51EB05F-9FBB-4087-814F-400611B2D4B0";
shapes = (
{
closed = 1;
nodes = (
(406,-10,o),
(525,95,o),
(555,265,cs),
(585,435,o),
(503,540,o),
(343,540,cs),
(183,540,o),
(65,435,o),
(35,265,cs),
(5,95,o),
(86,-10,o),
(246,-10,cs)
);
},
{
closed = 1;
nodes = (
(176,100,o),
(171,185,o),
(185,265,cs),
(199,345,o),
(234,430,o),
(324,430,cs),
(414,430,o),
(419,345,o),
(405,265,cs),
(391,185,o),
(356,100,o),
(266,100,cs)
);
},
{
closed = 1;
nodes = (
(759,-10,o),
(860,61,o),
(902,145,c),
(752,145,l),
(720,114,o),
(706,100,o),
(656,100,cs),
(566,100,o),
(561,185,o),
(575,265,cs),
(589,345,o),
(624,430,o),
(714,430,cs),
(804,430,o),
(801,355,o),
(785,265,cs),
(783,253,o),
(778,231,o),
(775,220,c),
(926,220,l),
(928,231,o),
(933,253,o),
(935,265,cs),
(965,435,o),
(893,540,o),
(733,540,cs),
(573,540,o),
(455,435,o),
(425,265,cs),
(395,95,o),
(476,-10,o),
(636,-10,cs)
);
},
{
closed = 1;
nodes = (
(857,220,l),
(873,310,l),
(498,310,l),
(482,220,l)
);
}
);
width = 970;
}
);
subCategory = Lowercase;
unicode = 339;
},
{
glyphname = p;
kernLeft = p;
kernRight = o;
lastChange = "2026-01-08 00:01:42 +0000";
layers = (
{
anchors = (
{
name = bottom;
pos = (264,0);
},
{
name = top;
pos = (356,520);
}
);
hints = (
{
horizontal = 1;
origin = (1,11);
target = (0,5);
type = Stem;
},
{
horizontal = 1;
origin = (0,11);
target = (1,5);
type = Stem;
},
{
horizontal = 1;
origin = (0,17);
target = down;
type = TopGhost;
},
{
origin = (0,18);
target = (0,0);
type = Stem;
},
{
origin = (1,8);
target = (0,8);
type = Stem;
},
{
origin = (0,18);
target = (1,2);
type = Stem;
}
);
layerId = "05246BF3-0764-4143-87C4-5D2B296D3790";
shapes = (
{
closed = 1;
nodes = (
(80,-220,l),
(137,100,l),
(147,100,l),
(164,30,o),
(222,-10,o),
(302,-10,cs),
(432,-10,o),
(542,100,o),
(570,260,cs),
(598,420,o),
(527,530,o),
(397,530,cs),
(317,530,o),
(245,490,o),
(203,420,c),
(193,420,l),
(211,520,l),
(121,520,l),
(-10,-220,l)
);
},
{
closed = 1;
nodes = (
(206,70,o),
(147,130,o),
(170,260,cs),
(193,390,o),
(273,450,o),
(363,450,cs),
(453,450,o),
(503,390,o),
(480,260,cs),
(457,130,o),
(386,70,o),
(296,70,cs)
);
}
);
width = 615;
},
{
anchors = (
{
name = bottom;
pos = (279,0);
},
{
name = top;
pos = (371,520);
}
);
hints = (
{
horizontal = 1;
origin = (0,5);
target = (1,11);
type = Stem;
},
{
horizontal = 1;
origin = (0,11);
target = (1,5);
type = Stem;
},
{
horizontal = 1;
origin = (0,17);
target = (1,5);
type = Stem;
},
{
origin = (0,18);
target = (0,0);
type = Stem;
},
{
origin = (1,8);
target = (0,8);
type = Stem;
},
{
origin = (0,18);
target = (1,2);
type = Stem;
}
);
layerId = "B51EB05F-9FBB-4087-814F-400611B2D4B0";
shapes = (
{
closed = 1;
nodes = (
(129,-200,l),
(178,80,l),
(188,80,l),
(209,30,o),
(247,-10,o),
(327,-10,cs),
(467,-10,o),
(576,95,o),
(606,265,cs),
(636,435,o),
(564,540,o),
(424,540,cs),
(344,540,o),
(292,500,o),
(253,450,c),
(243,450,l),
(257,530,l),
(107,530,l),
(-21,-200,l)
);
},
{
closed = 1;
nodes = (
(227,100,o),
(198,165,o),
(216,265,cs),
(233,365,o),
(285,430,o),
(365,430,cs),
(445,430,o),
(473,365,o),
(456,265,cs),
(438,165,o),
(387,100,o),
(307,100,cs)
);
}
);
width = 641;
}
);
subCategory = Lowercase;
unicode = 112;
},
{
glyphname = thorn;
kernRight = b;
lastChange = "2026-01-08 00:01:42 +0000";
layers = (
{
hints = (
{
horizontal = 1;
origin = (0,5);
target = (1,11);
type = Stem;
},
{
horizontal = 1;
origin = (0,11);
target = (1,5);
type = Stem;
},
{
horizontal = 1;
origin = (0,17);
target = down;
type = TopGhost;
},
{
origin = (0,18);
target = (0,0);
type = Stem;
},
{
origin = (1,8);
target = (0,8);
type = Stem;
},
{
origin = (0,18);
target = (1,2);
type = Stem;
}
);
layerId = "05246BF3-0764-4143-87C4-5D2B296D3790";
shapes = (
{
closed = 1;
nodes = (
(65,-220,l),
(122,100,l),
(132,100,l),
(149,30,o),
(207,-10,o),
(287,-10,cs),
(417,-10,o),
(527,100,o),
(555,260,cs),
(583,420,o),
(512,530,o),
(382,530,cs),
(302,530,o),
(230,490,o),
(188,420,c),
(178,420,l),
(231,720,l),
(141,720,l),
(-25,-220,l)
);
},
{
closed = 1;
nodes = (
(191,70,o),
(132,130,o),
(155,260,cs),
(178,390,o),
(258,450,o),
(348,450,cs),
(438,450,o),
(488,390,o),
(465,260,cs),
(442,130,o),
(371,70,o),
(281,70,cs)
);
}
);
width = 585;
},
{
hints = (
{
horizontal = 1;
origin = (0,5);
target = (1,11);
type = Stem;
},
{
horizontal = 1;
origin = (0,11);
target = (1,5);
type = Stem;
},
{
horizontal = 1;
origin = (0,17);
target = down;
type = TopGhost;
},
{
origin = (0,18);
target = (0,0);
type = Stem;
},
{
origin = (1,8);
target = (0,8);
type = Stem;
},
{
origin = (0,18);
target = (1,2);
type = Stem;
}
);
layerId = "B51EB05F-9FBB-4087-814F-400611B2D4B0";
shapes = (
{
closed = 1;
nodes = (
(143,-200,l),
(192,80,l),
(202,80,l),
(223,30,o),
(261,-10,o),
(341,-10,cs),
(481,-10,o),
(590,95,o),
(620,265,cs),
(650,435,o),
(578,540,o),
(438,540,cs),
(358,540,o),
(306,500,o),
(267,450,c),
(257,450,l),
(305,720,l),
(155,720,l),
(-7,-200,l)
);
},
{
closed = 1;
nodes = (
(241,100,o),
(212,165,o),
(230,265,cs),
(247,365,o),
(299,430,o),
(379,430,cs),
(459,430,o),
(487,365,o),
(470,265,cs),
(452,165,o),
(401,100,o),
(321,100,cs)
);
}
);
width = 655;
}
);
subCategory = Lowercase;
unicode = 254;
},
{
glyphname = q;
kernLeft = o;
kernRight = g;
lastChange = "2026-01-08 00:01:42 +0000";
layers = (
{
anchors = (
{
name = bottom;
pos = (249,0);
},
{
name = top;
pos = (341,520);
}
);
hints = (
{
horizontal = 1;
origin = (1,11);
target = (0,13);
type = Stem;
},
{
horizontal = 1;
origin = (0,7);
target = (1,5);
type = Stem;
},
{
horizontal = 1;
origin = (0,2);
target = down;
type = TopGhost;
},
{
origin = (0,10);
target = (1,2);
type = Stem;
},
{
origin = (0,18);
target = (0,0);
type = Stem;
},
{
origin = (1,8);
target = (0,0);
type = Stem;
}
);
layerId = "05246BF3-0764-4143-87C4-5D2B296D3790";
shapes = (
{
closed = 1;
nodes = (
(455,-220,l),
(586,520,l),
(496,520,l),
(478,420,l),
(468,420,l),
(450,490,o),
(392,530,o),
(312,530,cs),
(182,530,o),
(73,420,o),
(45,260,cs),
(17,100,o),
(87,-10,o),
(217,-10,cs),
(297,-10,o),
(369,30,o),
(412,100,c),
(422,100,l),
(365,-220,l)
);
},
{
closed = 1;
nodes = (
(161,70,o),
(112,130,o),
(135,260,cs),
(158,390,o),
(228,450,o),
(318,450,cs),
(408,450,o),
(468,390,o),
(445,260,cs),
(422,130,o),
(341,70,o),
(251,70,cs)
);
}
);
width = 615;
},
{
anchors = (
{
name = bottom;
pos = (278,0);
},
{
name = top;
pos = (370,520);
}
);
hints = (
{
horizontal = 1;
origin = (0,13);
target = (1,11);
type = Stem;
},
{
horizontal = 1;
origin = (0,7);
target = (1,5);
type = Stem;
},
{
horizontal = 1;
origin = (0,2);
target = (1,5);
type = Stem;
},
{
origin = (0,10);
target = (1,2);
type = Stem;
},
{
origin = (0,18);
target = (0,0);
type = Stem;
},
{
origin = (1,8);
target = (0,0);
type = Stem;
}
);
layerId = "B51EB05F-9FBB-4087-814F-400611B2D4B0";
shapes = (
{
closed = 1;
nodes = (
(498,-200,l),
(626,530,l),
(476,530,l),
(462,450,l),
(452,450,l),
(431,500,o),
(393,540,o),
(313,540,cs),
(173,540,o),
(65,435,o),
(35,265,cs),
(5,95,o),
(76,-10,o),
(216,-10,cs),
(296,-10,o),
(348,30,o),
(387,80,c),
(397,80,l),
(348,-200,l)
);
},
{
closed = 1;
nodes = (
(196,100,o),
(167,165,o),
(185,265,cs),
(202,365,o),
(254,430,o),
(334,430,cs),
(414,430,o),
(442,365,o),
(425,265,cs),
(407,165,o),
(356,100,o),
(276,100,cs)
);
}
);
width = 640;
}
);
subCategory = Lowercase;
unicode = 113;
},
{
glyphname = r;
kernLeft = n;
kernRight = r;
lastChange = "2026-01-08 00:01:42 +0000";
layers = (
{
anchors = (
{
name = bottom;
pos = (74,0);
},
{
name = top;
pos = (271,520);
}
);
hints = (
{
horizontal = 1;
origin = (0,14);
target = up;
type = BottomGhost;
},
{
horizontal = 1;
origin = (0,13);
target = (0,4);
type = Stem;
},
{
origin = (0,14);
target = (0,0);
type = Stem;
}
);
layerId = "05246BF3-0764-4143-87C4-5D2B296D3790";
shapes = (
{
closed = 1;
nodes = (
(119,0,l),
(168,280,ls),
(188,390,o),
(262,440,o),
(332,440,c),
(387,440,l),
(401,520,l),
(376,520,l),
(296,520,o),
(245,490,o),
(203,420,c),
(193,420,l),
(211,520,l),
(121,520,l),
(29,0,l)
);
}
);
width = 370;
},
{
anchors = (
{
name = bottom;
pos = (89,0);
},
{
name = top;
pos = (322,530);
}
);
hints = (
{
horizontal = 1;
origin = (0,14);
target = up;
type = BottomGhost;
},
{
horizontal = 1;
origin = (0,13);
target = (0,4);
type = Stem;
},
{
origin = (0,14);
target = (0,0);
type = Stem;
}
);
layerId = "B51EB05F-9FBB-4087-814F-400611B2D4B0";
shapes = (
{
closed = 1;
nodes = (
(164,0,l),
(213,280,ls),
(229,370,o),
(293,420,o),
(353,420,c),
(443,420,l),
(462,530,l),
(412,530,l),
(342,530,o),
(294,510,o),
(253,450,c),
(243,450,l),
(257,530,l),
(107,530,l),
(14,0,l)
);
}
);
width = 416;
}
);
subCategory = Lowercase;
unicode = 114;
},
{
glyphname = s;
kernLeft = s;
kernRight = s;
lastChange = "2026-01-08 00:01:42 +0000";
layers = (
{
anchors = (
{
name = bottom;
pos = (189,0);
},
{
name = top;
pos = (282,530);
}
);
hints = (
{
horizontal = 1;
origin = (0,37);
target = (0,30);
type = Stem;
},
{
horizontal = 1;
origin = (0,18);
target = (0,11);
type = Stem;
},
{
origin = (0,21);
target = (0,8);
type = Stem;
},
{
origin = (0,27);
target = (0,2);
type = Stem;
},
{
origin = (0,14);
target = (0,15);
type = Stem;
}
);
layerId = "05246BF3-0764-4143-87C4-5D2B296D3790";
shapes = (
{
closed = 1;
nodes = (
(307,-10,o),
(411,40,o),
(430,150,cs),
(446,240,o),
(388,280,o),
(263,304,cs),
(185,319,o),
(158,335,o),
(165,375,cs),
(174,425,o),
(218,450,o),
(268,450,cs),
(348,450,o),
(365,415,o),
(370,385,c),
(460,385,l),
(464,469,o),
(392,530,o),
(282,530,cs),
(172,530,o),
(89,455,o),
(75,375,cs),
(58,275,o),
(113,248,o),
(229,226,cs),
(297,213,o),
(349,200,o),
(340,150,cs),
(330,90,o),
(271,70,o),
(201,70,cs),
(141,70,o),
(108,105,o),
(103,135,c),
(13,135,l),
(11,65,o),
(67,-10,o),
(187,-10,cs)
);
}
);
width = 484;
},
{
anchors = (
{
name = bottom;
pos = (215,0);
},
{
name = top;
pos = (310,540);
}
);
hints = (
{
horizontal = 1;
origin = (0,37);
target = (0,30);
type = Stem;
},
{
horizontal = 1;
origin = (0,18);
target = (0,11);
type = Stem;
},
{
horizontal = 1;
origin = (0,18);
target = (0,14);
type = Stem;
},
{
horizontal = 1;
origin = (0,37);
target = (0,34);
type = Stem;
},
{
origin = (0,21);
target = (0,8);
type = Stem;
},
{
origin = (0,27);
target = (0,2);
type = Stem;
}
);
layerId = "B51EB05F-9FBB-4087-814F-400611B2D4B0";
shapes = (
{
closed = 1;
nodes = (
(348,-10,o),
(456,35,o),
(478,160,cs),
(494,250,o),
(438,303,o),
(272,325,cs),
(220,332,o),
(219,360,o),
(223,385,cs),
(227,410,o),
(251,430,o),
(291,430,cs),
(336,430,o),
(352,416,o),
(354,375,c),
(504,375,l),
(511,474,o),
(455,540,o),
(310,540,cs),
(195,540,o),
(91,485,o),
(69,365,cs),
(52,265,o),
(134,220,o),
(251,205,cs),
(312,197,o),
(332,180,o),
(326,150,cs),
(319,110,o),
(283,100,o),
(233,100,cs),
(188,100,o),
(169,112,o),
(160,150,c),
(10,150,l),
(5,50,o),
(78,-10,o),
(213,-10,cs)
);
}
);
width = 527;
}
);
subCategory = Lowercase;
unicode = 115;
},
{
glyphname = germandbls;
kernLeft = f;
kernRight = germandbls;
lastChange = "2026-01-08 00:01:42 +0000";
layers = (
{
hints = (
{
horizontal = 1;
origin = (0,35);
target = (0,17);
type = Stem;
},
{
horizontal = 1;
origin = (0,31);
target = (0,4);
type = Stem;
},
{
origin = (0,35);
target = (0,0);
type = Stem;
},
{
origin = (0,18);
target = (0,25);
type = Stem;
},
{
origin = (0,13);
target = (0,22);
type = Stem;
},
{
origin = (0,7);
target = (0,28);
type = Stem;
}
);
layerId = "05246BF3-0764-4143-87C4-5D2B296D3790";
shapes = (
{
closed = 1;
nodes = (
(109,0,l),
(204,540,l),
(217,610,o),
(255,660,o),
(335,660,cs),
(415,660,o),
(437,610,o),
(424,540,cs),
(410,460,o),
(295,490,o),
(276,380,cs),
(251,240,o),
(444,320,o),
(418,170,cs),
(404,90,o),
(321,70,o),
(241,70,c),
(221,70,l),
(209,0,l),
(229,0,l),
(339,0,o),
(472,23,o),
(498,170,cs),
(530,350,o),
(345,320,o),
(356,380,cs),
(367,440,o),
(483,420,o),
(504,540,cs),
(524,650,o),
(468,730,o),
(348,730,cs),
(228,730,o),
(144,650,o),
(124,540,c),
(29,0,l)
);
}
);
width = 564;
},
{
hints = (
{
horizontal = 1;
origin = (0,35);
target = (0,17);
type = Stem;
},
{
horizontal = 1;
origin = (0,31);
target = (0,4);
type = Stem;
},
{
origin = (0,35);
target = (0,0);
type = Stem;
},
{
origin = (0,13);
target = (0,22);
type = Stem;
},
{
origin = (0,7);
target = (0,28);
type = Stem;
},
{
origin = (0,18);
target = (0,25);
type = Stem;
}
);
layerId = "B51EB05F-9FBB-4087-814F-400611B2D4B0";
shapes = (
{
closed = 1;
nodes = (
(163,0,l),
(258,540,l),
(267,590,o),
(297,620,o),
(357,620,cs),
(417,620,o),
(432,590,o),
(423,540,cs),
(412,475,o),
(297,505,o),
(275,380,cs),
(248,225,o),
(439,305,o),
(415,170,cs),
(404,105,o),
(342,110,o),
(287,110,c),
(227,110,l),
(208,0,l),
(268,0,l),
(393,0,o),
(536,8,o),
(565,170,cs),
(599,365,o),
(417,335,o),
(425,380,cs),
(433,425,o),
(549,405,o),
(573,540,cs),
(595,665,o),
(512,730,o),
(377,730,cs),
(242,730,o),
(130,665,o),
(108,540,c),
(13,0,l)
);
}
);
width = 622;
}
);
subCategory = Lowercase;
unicode = 223;
},
{
glyphname = t;
kernLeft = t;
kernRight = t;
lastChange = "2026-01-08 00:01:42 +0000";
layers = (
{
anchors = (
{
name = bottom;
pos = (161,10);
},
{
name = center;
pos = (183,260);
},
{
name = top;
pos = (224,680);
},
{
name = topright;
pos = (396,520);
}
);
hints = (
{
horizontal = 1;
origin = (1,9);
target = (1,2);
type = Stem;
},
{
horizontal = 1;
origin = (2,2);
target = (2,3);
type = Stem;
},
{
origin = (0,3);
target = (1,0);
type = Stem;
},
{
origin = (0,3);
target = (0,0);
type = Stem;
}
);
layerId = "05246BF3-0764-4143-87C4-5D2B296D3790";
shapes = (
{
closed = 1;
nodes = (
(170,120,l),
(269,680,l),
(179,680,l),
(78,110,l)
);
},
{
closed = 1;
nodes = (
(274,0,l),
(288,80,l),
(203,80,ls),
(183,80,o),
(165,90,o),
(170,120,c),
(78,110,l),
(66,40,o),
(109,0,o),
(159,0,cs)
);
},
{
closed = 1;
nodes = (
(352,440,l),
(366,520,l),
(76,520,l),
(62,440,l)
);
}
);
width = 350;
},
{
anchors = (
{
name = bottom;
pos = (196,10);
},
{
name = center;
pos = (170,260);
},
{
name = top;
pos = (239,680);
},
{
name = topright;
pos = (384,525);
}
);
hints = (
{
horizontal = 1;
origin = (1,9);
target = (1,2);
type = Stem;
},
{
horizontal = 1;
origin = (2,2);
target = (2,3);
type = Stem;
},
{
origin = (0,3);
target = (1,9);
type = Stem;
}
);
layerId = "B51EB05F-9FBB-4087-814F-400611B2D4B0";
shapes = (
{
closed = 1;
nodes = (
(220,150,l),
(314,680,l),
(164,680,l),
(69,140,l)
);
},
{
closed = 1;
nodes = (
(314,0,l),
(333,110,l),
(253,110,ls),
(233,110,o),
(215,120,o),
(220,150,c),
(69,140,l),
(53,50,o),
(114,0,o),
(194,0,cs)
);
},
{
closed = 1;
nodes = (
(388,420,l),
(407,530,l),
(67,530,l),
(48,420,l)
);
}
);
width = 381;
}
);
subCategory = Lowercase;
unicode = 116;
},
{
glyphname = tbar;
lastChange = "2026-01-08 00:01:42 +0000";
layers = (
{
hints = (
{
horizontal = 1;
origin = (0,3);
target = (0,2);
type = Stem;
},
{
origin = (0,3);
target = (0,0);
type = Stem;
}
);
layerId = "05246BF3-0764-4143-87C4-5D2B296D3790";
shapes = (
{
closed = 1;
nodes = (
(296,237,l),
(308,307,l),
(38,307,l),
(26,237,l)
);
},
{
pos = (2,0);
ref = t;
}
);
width = 352;
},
{
hints = (
{
horizontal = 1;
origin = (0,3);
target = (0,2);
type = Stem;
},
{
origin = (0,3);
target = (0,0);
type = Stem;
}
);
layerId = "B51EB05F-9FBB-4087-814F-400611B2D4B0";
shapes = (
{
closed = 1;
nodes = (
(352,217,l),
(372,327,l),
(32,327,l),
(12,217,l)
);
},
{
pos = (2,0);
ref = t;
}
);
width = 383;
}
);
subCategory = Lowercase;
unicode = 359;
},
{
glyphname = u;
kernLeft = u;
kernRight = g;
lastChange = "2026-01-08 00:01:42 +0000";
layers = (
{
anchors = (
{
name = bottom;
pos = (359,0);
},
{
name = ogonek;
pos = (431,10);
},
{
name = top;
pos = (316,520);
},
{
name = topright;
pos = (556,520);
}
);
hints = (
{
horizontal = 1;
origin = (0,11);
target = (0,20);
type = Stem;
},
{
horizontal = 1;
origin = (0,16);
target = down;
type = TopGhost;
},
{
horizontal = 1;
origin = (0,4);
target = up;
type = BottomGhost;
},
{
origin = (0,17);
target = (0,14);
type = Stem;
},
{
origin = (0,4);
target = (0,5);
type = Stem;
}
);
layerId = "05246BF3-0764-4143-87C4-5D2B296D3790";
shapes = (
{
closed = 1;
nodes = (
(272,-10,o),
(324,30,o),
(367,100,c),
(377,100,l),
(359,0,l),
(449,0,l),
(541,520,l),
(451,520,l),
(401,240,ls),
(382,130,o),
(306,70,o),
(236,70,cs),
(166,70,o),
(127,100,o),
(143,190,c),
(201,520,l),
(111,520,l),
(53,190,l),
(28,50,o),
(92,-10,o),
(192,-10,cs)
);
}
);
width = 570;
},
{
anchors = (
{
name = bottom;
pos = (334,0);
},
{
name = ogonek;
pos = (451,10);
},
{
name = top;
pos = (332,530);
},
{
name = topright;
pos = (576,520);
}
);
hints = (
{
horizontal = 1;
origin = (0,11);
target = (0,20);
type = Stem;
},
{
horizontal = 1;
origin = (0,16);
target = down;
type = TopGhost;
},
{
horizontal = 1;
origin = (0,11);
target = (0,4);
type = Stem;
},
{
origin = (0,17);
target = (0,14);
type = Stem;
},
{
origin = (0,4);
target = (0,5);
type = Stem;
}
);
layerId = "B51EB05F-9FBB-4087-814F-400611B2D4B0";
shapes = (
{
closed = 1;
nodes = (
(247,-10,o),
(298,20,o),
(338,80,c),
(348,80,l),
(334,0,l),
(484,0,l),
(577,530,l),
(427,530,l),
(378,250,l),
(362,160,o),
(317,100,o),
(257,100,c),
(197,100,o),
(177,130,o),
(189,200,cs),
(247,530,l),
(97,530,l),
(39,200,ls),
(15,60,o),
(77,-10,o),
(177,-10,c)
);
}
);
width = 591;
}
);
subCategory = Lowercase;
unicode = 117;
},
{
glyphname = uogonek;
lastChange = "2026-01-08 00:01:42 +0000";
layers = (
{
anchors = (
{
name = bottom;
pos = (359,0);
},
{
name = ogonek;
pos = (431,10);
},
{
name = top;
pos = (316,520);
},
{
name = topright;
pos = (556,520);
}
);
hints = (
{
horizontal = 1;
origin = (0,9);
target = (0,18);
type = Stem;
},
{
horizontal = 1;
origin = (0,14);
target = down;
type = TopGhost;
},
{
horizontal = 1;
origin = (0,23);
target = up;
type = BottomGhost;
},
{
origin = (0,15);
target = (0,12);
type = Stem;
},
{
origin = (0,23);
target = (0,3);
type = Stem;
},
{
horizontal = 1;
place = (-322,-56);
type = Stem;
},
{
place = (186,-41);
type = Stem;
}
);
layerId = "05246BF3-0764-4143-87C4-5D2B296D3790";
shapes = (
{
closed = 1;
nodes = (
(412,-121,l),
(300,-143,o),
(327,-67,o),
(449,0,c),
(541,520,l),
(451,520,l),
(401,240,ls),
(382,130,o),
(306,70,o),
(236,70,cs),
(166,70,o),
(127,100,o),
(143,190,cs),
(201,520,l),
(111,520,l),
(53,190,ls),
(28,50,o),
(92,-10,o),
(192,-10,cs),
(272,-10,o),
(324,30,o),
(367,100,c),
(377,100,l),
(359,0,l),
(197,-80,o),
(226,-224,o),
(399,-191,c)
);
}
);
width = 570;
},
{
anchors = (
{
name = bottom;
pos = (334,0);
},
{
name = ogonek;
pos = (451,10);
},
{
name = top;
pos = (332,530);
},
{
name = topright;
pos = (576,520);
}
);
hints = (
{
horizontal = 1;
origin = (0,9);
target = (0,18);
type = Stem;
},
{
horizontal = 1;
origin = (0,14);
target = down;
type = TopGhost;
},
{
horizontal = 1;
origin = (0,9);
target = (0,23);
type = Stem;
},
{
origin = (0,15);
target = (0,12);
type = Stem;
},
{
origin = (0,23);
target = (0,3);
type = Stem;
},
{
horizontal = 1;
place = (-325,-39);
type = Stem;
},
{
place = (171,19);
type = Stem;
}
);
layerId = "B51EB05F-9FBB-4087-814F-400611B2D4B0";
shapes = (
{
closed = 1;
nodes = (
(460,-105,l),
(348,-127,o),
(362,-67,o),
(484,0,c),
(577,530,l),
(427,530,l),
(378,250,ls),
(362,160,o),
(317,100,o),
(257,100,cs),
(197,100,o),
(177,130,o),
(189,200,cs),
(247,530,l),
(97,530,l),
(39,200,ls),
(15,60,o),
(77,-10,o),
(177,-10,cs),
(247,-10,o),
(298,20,o),
(338,80,c),
(348,80,l),
(334,0,l),
(160,-86,o),
(221,-233,o),
(445,-190,c)
);
}
);
width = 591;
}
);
subCategory = Lowercase;
unicode = 371;
},
{
glyphname = v;
kernLeft = v;
kernRight = v;
lastChange = "2026-01-08 00:01:42 +0000";
layers = (
{
anchors = (
{
name = bottom;
pos = (194,0);
},
{
name = top;
pos = (286,520);
}
);
hints = (
{
horizontal = 1;
origin = (0,5);
target = (0,4);
type = Stem;
},
{
horizontal = 1;
origin = (1,4);
target = down;
type = TopGhost;
}
);
layerId = "05246BF3-0764-4143-87C4-5D2B296D3790";
shapes = (
{
closed = 1;
nodes = (
(268,0,l),
(550,520,l),
(456,520,l),
(240,110,l),
(230,110,l),
(164,0,l)
);
},
{
closed = 1;
nodes = (
(268,0,l),
(240,110,l),
(230,110,l),
(160,520,l),
(66,520,l),
(164,0,l)
);
}
);
width = 524;
},
{
anchors = (
{
name = bottom;
pos = (228,0);
},
{
name = top;
pos = (320,520);
}
);
hints = (
{
horizontal = 1;
place = (0,196);
type = Stem;
},
{
horizontal = 1;
place = (530,-20);
target = down;
type = TopGhost;
}
);
layerId = "B51EB05F-9FBB-4087-814F-400611B2D4B0";
shapes = (
{
closed = 1;
nodes = (
(316,0,l),
(604,530,l),
(450,530,l),
(275,176,l),
(265,176,l),
(162,0,l)
);
},
{
closed = 1;
nodes = (
(316,0,l),
(275,176,l),
(265,176,l),
(216,530,l),
(62,530,l),
(162,0,l)
);
}
);
width = 572;
}
);
subCategory = Lowercase;
unicode = 118;
},
{
glyphname = w;
kernLeft = v;
kernRight = v;
lastChange = "2026-01-08 00:01:42 +0000";
layers = (
{
anchors = (
{
name = bottom;
pos = (371,0);
},
{
name = top;
pos = (463,520);
}
);
hints = (
{
horizontal = 1;
origin = (1,5);
target = (1,2);
type = Stem;
},
{
horizontal = 1;
origin = (1,4);
target = (2,1);
type = Stem;
}
);
layerId = "05246BF3-0764-4143-87C4-5D2B296D3790";
shapes = (
{
closed = 1;
nodes = (
(593,0,l),
(845,520,l),
(751,520,l),
(565,110,l),
(555,110,l),
(489,0,l)
);
},
{
closed = 1;
nodes = (
(253,0,l),
(225,110,l),
(215,110,l),
(175,520,l),
(81,520,l),
(149,0,l)
);
},
{
closed = 1;
nodes = (
(253,0,l),
(436,397,l),
(446,397,l),
(515,520,l),
(411,520,l),
(225,110,l),
(215,110,l),
(149,0,l)
);
},
{
closed = 1;
nodes = (
(593,0,l),
(565,110,l),
(555,110,l),
(515,520,l),
(411,520,l),
(436,397,l),
(446,397,l),
(489,0,l)
);
}
);
width = 834;
},
{
anchors = (
{
name = bottom;
pos = (370,0);
},
{
name = top;
pos = (463,530);
}
);
hints = (
{
horizontal = 1;
place = (0,210);
type = Stem;
},
{
horizontal = 1;
place = (530,-20);
target = down;
type = TopGhost;
},
{
horizontal = 1;
place = (0,21);
target = up;
type = BottomGhost;
},
{
horizontal = 1;
place = (530,210);
type = Stem;
}
);
layerId = "B51EB05F-9FBB-4087-814F-400611B2D4B0";
shapes = (
{
closed = 1;
nodes = (
(607,0,l),
(864,530,l),
(714,530,l),
(569,180,l),
(559,180,l),
(457,0,l)
);
},
{
closed = 1;
nodes = (
(281,0,l),
(243,180,l),
(233,180,l),
(212,530,l),
(62,530,l),
(131,0,l)
);
},
{
closed = 1;
nodes = (
(281,0,l),
(424,340,l),
(434,340,l),
(538,530,l),
(388,530,l),
(243,180,l),
(233,180,l),
(131,0,l)
);
},
{
closed = 1;
nodes = (
(607,0,l),
(569,180,l),
(559,180,l),
(538,530,l),
(388,530,l),
(424,340,l),
(434,340,l),
(457,0,l)
);
}
);
width = 832;
}
);
subCategory = Lowercase;
unicode = 119;
},
{
glyphname = x;
kernLeft = x;
kernRight = x;
lastChange = "2026-01-08 00:01:42 +0000";
layers = (
{
anchors = (
{
name = bottom;
pos = (218,0);
},
{
name = top;
pos = (310,520);
}
);
hints = (
{
horizontal = 1;
origin = (1,7);
target = up;
type = BottomGhost;
},
{
horizontal = 1;
origin = (0,4);
target = down;
type = TopGhost;
}
);
layerId = "05246BF3-0764-4143-87C4-5D2B296D3790";
shapes = (
{
closed = 1;
nodes = (
(459,0,l),
(285,360,l),
(281,360,l),
(201,520,l),
(101,520,l),
(253,205,l),
(257,205,l),
(359,0,l)
);
},
{
closed = 1;
nodes = (
(79,0,l),
(253,205,l),
(257,205,l),
(521,520,l),
(421,520,l),
(285,360,l),
(281,360,l),
(-21,0,l)
);
}
);
width = 530;
},
{
anchors = (
{
name = bottom;
pos = (227,0);
},
{
name = top;
pos = (319,520);
}
);
hints = (
{
horizontal = 1;
origin = (1,7);
target = up;
type = BottomGhost;
},
{
horizontal = 1;
origin = (0,4);
target = down;
type = TopGhost;
}
);
layerId = "B51EB05F-9FBB-4087-814F-400611B2D4B0";
shapes = (
{
closed = 1;
nodes = (
(493,0,l),
(304,401,l),
(294,401,l),
(233,530,l),
(73,530,l),
(250,155,l),
(260,155,l),
(333,0,l)
);
},
{
closed = 1;
nodes = (
(123,0,l),
(250,155,l),
(260,155,l),
(569,530,l),
(409,530,l),
(304,401,l),
(294,401,l),
(-37,0,l)
);
}
);
width = 550;
}
);
subCategory = Lowercase;
unicode = 120;
},
{
glyphname = y;
kernLeft = y;
kernRight = y;
lastChange = "2026-01-08 00:01:42 +0000";
layers = (
{
anchors = (
{
name = bottom;
pos = (223,0);
},
{
name = top;
pos = (316,520);
}
);
hints = (
{
horizontal = 1;
origin = (0,16);
target = (0,17);
type = Stem;
},
{
horizontal = 1;
origin = (0,10);
target = down;
type = TopGhost;
}
);
layerId = "05246BF3-0764-4143-87C4-5D2B296D3790";
shapes = (
{
closed = 1;
nodes = (
(83,-220,ls),
(122,-220,o),
(170,-195,o),
(193,-152,cs),
(274,0,l),
(566,520,l),
(471,520,l),
(245,110,l),
(241,110,l),
(161,520,l),
(66,520,l),
(174,0,l),
(115,-114,ls),
(106,-132,o),
(84,-140,o),
(68,-140,cs),
(2,-140,l),
(-12,-220,l)
);
}
);
width = 540;
},
{
anchors = (
{
name = bottom;
pos = (203,0);
},
{
name = top;
pos = (327,530);
}
);
hints = (
{
horizontal = 1;
origin = (0,16);
place = (-110,110);
type = Stem;
},
{
horizontal = 1;
origin = (0,10);
target = down;
type = TopGhost;
}
);
layerId = "B51EB05F-9FBB-4087-814F-400611B2D4B0";
shapes = (
{
closed = 1;
nodes = (
(148,-220,ls),
(187,-220,o),
(234,-195,o),
(258,-152,c),
(333,0,l),
(630,530,l),
(475,530,l),
(289,178,l),
(279,178,l),
(217,530,l),
(62,530,l),
(173,0,l),
(133,-84,l),
(120,-106,o),
(104,-110,o),
(78,-110,cs),
(22,-110,l),
(3,-220,l)
);
}
);
width = 598;
}
);
subCategory = Lowercase;
unicode = 121;
},
{
glyphname = z;
kernLeft = z;
kernRight = z;
lastChange = "2026-01-08 00:01:42 +0000";
layers = (
{
anchors = (
{
name = bottom;
pos = (186,0);
},
{
name = center;
pos = (230,260);
},
{
name = top;
pos = (278,520);
}
);
hints = (
{
horizontal = 1;
origin = (1,3);
target = (0,3);
type = Stem;
},
{
horizontal = 1;
origin = (2,2);
target = (2,3);
type = Stem;
}
);
layerId = "05246BF3-0764-4143-87C4-5D2B296D3790";
shapes = (
{
closed = 1;
nodes = (
(113,80,l),
(452,440,l),
(347,440,l),
(8,80,l)
);
},
{
closed = 1;
nodes = (
(374,0,l),
(388,80,l),
(8,80,l),
(-6,0,l)
);
},
{
closed = 1;
nodes = (
(452,440,l),
(466,520,l),
(91,520,l),
(77,440,l)
);
}
);
width = 460;
},
{
anchors = (
{
name = bottom;
pos = (196,0);
},
{
name = center;
pos = (240,260);
},
{
name = top;
pos = (289,530);
}
);
hints = (
{
horizontal = 1;
origin = (1,3);
target = (0,3);
type = Stem;
},
{
horizontal = 1;
origin = (2,2);
target = (2,3);
type = Stem;
},
{
origin = (1,3);
target = (1,0);
type = Stem;
}
);
layerId = "B51EB05F-9FBB-4087-814F-400611B2D4B0";
shapes = (
{
closed = 1;
nodes = (
(178,110,l),
(488,420,l),
(303,420,l),
(-7,110,l)
);
},
{
closed = 1;
nodes = (
(414,0,l),
(433,110,l),
(-7,110,l),
(-26,0,l)
);
},
{
closed = 1;
nodes = (
(488,420,l),
(507,530,l),
(72,530,l),
(53,420,l)
);
}
);
width = 481;
}
);
subCategory = Lowercase;
unicode = 122;
},
{
glyphname = f_f_i;
lastChange = "2026-01-08 00:18:02 +0000";
layers = (
{
anchors = (
{
name = caret_1;
pos = (300,0);
},
{
name = caret_2;
pos = (595,0);
}
);
layerId = "05246BF3-0764-4143-87C4-5D2B296D3790";
shapes = (
{
closed = 1;
nodes = (
(150,0,l),
(227,440,l),
(427,440,l),
(350,0,l),
(440,0,l),
(517,440,l),
(722,440,l),
(645,0,l),
(735,0,l),
(826,520,l),
(736,520,l),
(531,520,l),
(545,600,ls),
(551,630,o),
(572,640,o),
(592,640,cs),
(677,640,l),
(692,720,l),
(577,720,ls),
(527,720,o),
(470,680,o),
(457,610,cs),
(441,520,l),
(241,520,l),
(255,600,ls),
(261,630,o),
(282,640,o),
(302,640,cs),
(387,640,l),
(402,720,l),
(287,720,ls),
(237,720,o),
(180,680,o),
(167,610,cs),
(151,520,l),
(76,520,l),
(62,440,l),
(137,440,l),
(60,0,l)
);
},
{
closed = 1;
nodes = (
(830,620,o),
(858,644,o),
(864,675,cs),
(869,706,o),
(849,730,o),
(818,730,cs),
(787,730,o),
(759,706,o),
(754,675,cs),
(748,644,o),
(768,620,o),
(799,620,cs)
);
}
);
width = 856;
},
{
anchors = (
{
name = caret_1;
pos = (360,0);
},
{
name = caret_2;
pos = (710,0);
}
);
layerId = "B51EB05F-9FBB-4087-814F-400611B2D4B0";
shapes = (
{
closed = 1;
nodes = (
(204,0,l),
(278,420,l),
(488,420,l),
(414,0,l),
(564,0,l),
(638,420,l),
(838,420,l),
(764,0,l),
(914,0,l),
(1007,530,l),
(857,530,l),
(657,530,l),
(664,570,ls),
(670,600,o),
(681,610,o),
(711,610,cs),
(801,610,l),
(821,720,l),
(691,720,ls),
(611,720,o),
(532,670,o),
(516,580,cs),
(507,530,l),
(297,530,l),
(304,570,ls),
(310,600,o),
(321,610,o),
(351,610,cs),
(441,610,l),
(461,720,l),
(331,720,ls),
(251,720,o),
(172,670,o),
(156,580,cs),
(147,530,l),
(67,530,l),
(48,420,l),
(128,420,l),
(54,0,l)
);
},
{
closed = 1;
nodes = (
(989,580,o),
(1033,617,o),
(1041,665,cs),
(1050,713,o),
(1019,750,o),
(971,750,cs),
(923,750,o),
(880,713,o),
(871,665,cs),
(863,617,o),
(893,580,o),
(941,580,cs)
);
}
);
width = 1025;
}
);
subCategory = Ligature;
},
{
glyphname = f_f_l;
lastChange = "2026-01-08 00:18:02 +0000";
layers = (
{
anchors = (
{
name = caret_1;
pos = (300,0);
},
{
name = caret_2;
pos = (606,0);
}
);
layerId = "05246BF3-0764-4143-87C4-5D2B296D3790";
shapes = (
{
closed = 1;
nodes = (
(150,0,l),
(227,440,l),
(427,440,l),
(350,0,l),
(440,0,l),
(517,440,l),
(642,440,l),
(656,520,l),
(531,520,l),
(545,600,ls),
(551,630,o),
(572,640,o),
(592,640,cs),
(767,640,l),
(674,110,ls),
(662,40,o),
(705,0,o),
(755,0,cs),
(820,0,l),
(834,80,l),
(799,80,ls),
(779,80,o),
(760,90,o),
(766,120,cs),
(871,720,l),
(576,720,ls),
(526,720,o),
(469,680,o),
(457,610,cs),
(441,520,l),
(241,520,l),
(255,600,ls),
(261,630,o),
(282,640,o),
(302,640,cs),
(387,640,l),
(401,720,l),
(286,720,ls),
(236,720,o),
(179,680,o),
(167,610,cs),
(151,520,l),
(76,520,l),
(62,440,l),
(137,440,l),
(60,0,l)
);
}
);
width = 886;
},
{
anchors = (
{
name = caret_1;
pos = (360,0);
},
{
name = caret_2;
pos = (712,0);
}
);
layerId = "B51EB05F-9FBB-4087-814F-400611B2D4B0";
shapes = (
{
closed = 1;
nodes = (
(204,0,l),
(278,420,l),
(488,420,l),
(414,0,l),
(564,0,l),
(638,420,l),
(768,420,l),
(787,530,l),
(657,530,l),
(664,570,ls),
(669,600,o),
(681,610,o),
(711,610,cs),
(871,610,l),
(788,140,ls),
(772,50,o),
(834,0,o),
(914,0,cs),
(1009,0,l),
(1028,110,l),
(973,110,ls),
(953,110,o),
(935,120,o),
(940,150,cs),
(1039,720,l),
(690,720,ls),
(610,720,o),
(532,670,o),
(516,580,cs),
(507,530,l),
(297,530,l),
(304,570,ls),
(309,600,o),
(321,610,o),
(351,610,cs),
(441,610,l),
(460,720,l),
(330,720,ls),
(250,720,o),
(172,670,o),
(156,580,cs),
(147,530,l),
(67,530,l),
(48,420,l),
(128,420,l),
(54,0,l)
);
}
);
width = 1066;
}
);
subCategory = Ligature;
},
{
glyphname = fi;
kernLeft = f;
kernRight = i;
lastChange = "2026-01-08 00:18:02 +0000";
layers = (
{
anchors = (
{
name = bottom;
pos = (122,0);
},
{
name = caret_1;
pos = (300,0);
},
{
name = top;
pos = (260,780);
}
);
hints = (
{
horizontal = 1;
origin = (0,22);
target = up;
type = BottomGhost;
},
{
horizontal = 1;
origin = (0,19);
target = (0,20);
type = Stem;
},
{
horizontal = 1;
origin = (1,5);
target = (1,11);
type = Stem;
},
{
horizontal = 1;
origin = (0,14);
target = (0,11);
type = Stem;
},
{
origin = (0,22);
target = (0,0);
type = Stem;
},
{
origin = (1,8);
target = (1,2);
type = Stem;
},
{
origin = (0,3);
target = (0,4);
type = Stem;
}
);
layerId = "05246BF3-0764-4143-87C4-5D2B296D3790";
shapes = (
{
closed = 1;
nodes = (
(149,0,l),
(227,440,l),
(432,440,l),
(354,0,l),
(444,0,l),
(536,520,l),
(446,520,l),
(241,520,l),
(255,600,ls),
(260,630,o),
(282,640,o),
(302,640,cs),
(387,640,l),
(401,720,l),
(286,720,ls),
(236,720,o),
(179,680,o),
(167,610,cs),
(151,520,l),
(76,520,l),
(62,440,l),
(137,440,l),
(59,0,l)
);
},
{
closed = 1;
nodes = (
(539,620,o),
(568,644,o),
(573,675,cs),
(579,706,o),
(559,730,o),
(528,730,cs),
(497,730,o),
(469,706,o),
(463,675,cs),
(458,644,o),
(477,620,o),
(508,620,cs)
);
}
);
width = 565;
},
{
anchors = (
{
name = bottom;
pos = (129,0);
},
{
name = caret_1;
pos = (354,0);
},
{
name = top;
pos = (267,780);
}
);
hints = (
{
horizontal = 1;
origin = (0,22);
target = up;
type = BottomGhost;
},
{
horizontal = 1;
origin = (0,19);
target = (0,20);
type = Stem;
},
{
horizontal = 1;
origin = (1,5);
target = (0,17);
type = Stem;
},
{
horizontal = 1;
origin = (0,14);
target = (0,11);
type = Stem;
},
{
origin = (0,22);
target = (0,0);
type = Stem;
},
{
origin = (1,8);
target = (1,2);
type = Stem;
},
{
origin = (0,3);
target = (0,4);
type = Stem;
}
);
layerId = "B51EB05F-9FBB-4087-814F-400611B2D4B0";
shapes = (
{
closed = 1;
nodes = (
(204,0,l),
(278,420,l),
(478,420,l),
(404,0,l),
(554,0,l),
(647,530,l),
(497,530,l),
(298,530,l),
(305,570,ls),
(310,600,o),
(322,610,o),
(352,610,cs),
(442,610,l),
(461,720,l),
(331,720,ls),
(251,720,o),
(172,670,o),
(156,580,cs),
(147,530,l),
(67,530,l),
(48,420,l),
(128,420,l),
(54,0,l)
);
},
{
closed = 1;
nodes = (
(629,580,o),
(673,617,o),
(681,665,cs),
(690,713,o),
(659,750,o),
(611,750,cs),
(563,750,o),
(520,713,o),
(511,665,cs),
(503,617,o),
(533,580,o),
(581,580,cs)
);
}
);
width = 665;
}
);
subCategory = Ligature;
unicode = 64257;
},
{
glyphname = fl;
kernLeft = f;
kernRight = l;
lastChange = "2026-01-08 00:18:02 +0000";
layers = (
{
anchors = (
{
name = caret_1;
pos = (315,0);
}
);
hints = (
{
horizontal = 1;
place = (0,80);
type = Stem;
},
{
horizontal = 1;
place = (520,80);
type = Stem;
},
{
horizontal = 1;
place = (720,80);
type = Stem;
},
{
place = (59,90);
type = Stem;
},
{
place = (384,91);
type = Stem;
}
);
layerId = "05246BF3-0764-4143-87C4-5D2B296D3790";
shapes = (
{
closed = 1;
nodes = (
(150,0,l),
(227,440,l),
(352,440,l),
(366,520,l),
(241,520,l),
(255,600,ls),
(261,630,o),
(282,640,o),
(302,640,cs),
(477,640,l),
(384,110,ls),
(372,40,o),
(415,0,o),
(465,0,cs),
(530,0,l),
(544,80,l),
(509,80,ls),
(489,80,o),
(470,90,o),
(476,120,cs),
(581,720,l),
(286,720,ls),
(236,720,o),
(179,680,o),
(167,610,cs),
(151,520,l),
(76,520,l),
(62,440,l),
(137,440,l),
(60,0,l)
);
}
);
width = 596;
},
{
anchors = (
{
name = caret_1;
pos = (365,0);
}
);
hints = (
{
horizontal = 1;
place = (0,110);
type = Stem;
},
{
horizontal = 1;
place = (530,110);
type = Stem;
},
{
horizontal = 1;
place = (720,110);
type = Stem;
},
{
place = (64,150);
type = Stem;
},
{
place = (439,125);
type = Stem;
}
);
layerId = "B51EB05F-9FBB-4087-814F-400611B2D4B0";
shapes = (
{
closed = 1;
nodes = (
(214,0,l),
(288,420,l),
(418,420,l),
(437,530,l),
(307,530,l),
(314,570,ls),
(319,600,o),
(331,610,o),
(361,610,cs),
(521,610,l),
(438,140,ls),
(422,50,o),
(484,0,o),
(564,0,cs),
(659,0,l),
(678,110,l),
(623,110,ls),
(603,110,o),
(582,120,o),
(590,150,cs),
(689,720,l),
(340,720,ls),
(260,720,o),
(182,670,o),
(166,580,cs),
(157,530,l),
(77,530,l),
(58,420,l),
(138,420,l),
(64,0,l)
);
}
);
width = 716;
}
);
subCategory = Ligature;
unicode = 64258;
},
{
glyphname = Delta;
kernLeft = Delta;
kernRight = Delta;
lastChange = "2026-01-08 00:01:50 +0000";
layers = (
{
hints = (
{
horizontal = 1;
origin = (1,3);
target = (1,2);
type = Stem;
},
{
horizontal = 1;
origin = (0,2);
target = down;
type = TopGhost;
},
{
horizontal = 1;
origin = (0,2);
target = (0,3);
type = Stem;
}
);
layerId = "05246BF3-0764-4143-87C4-5D2B296D3790";
shapes = (
{
closed = 1;
nodes = (
(554,90,l),
(430,720,l),
(336,720,l),
(362,610,l),
(366,610,l),
(460,90,l)
);
},
{
closed = 1;
nodes = (
(538,0,l),
(554,90,l),
(-10,90,l),
(-26,0,l)
);
},
{
closed = 1;
nodes = (
(84,90,l),
(362,610,l),
(366,610,l),
(430,720,l),
(336,720,l),
(-10,90,l)
);
}
);
width = 604;
},
{
hints = (
{
horizontal = 1;
origin = (1,3);
target = (1,2);
type = Stem;
},
{
horizontal = 1;
origin = (0,2);
target = (0,3);
type = Stem;
},
{
origin = (1,3);
target = (2,0);
type = Stem;
},
{
origin = (0,5);
target = (1,0);
type = Stem;
}
);
layerId = "B51EB05F-9FBB-4087-814F-400611B2D4B0";
shapes = (
{
closed = 1;
nodes = (
(620,130,l),
(489,720,l),
(335,720,l),
(378,557,l),
(388,557,l),
(470,130,l)
);
},
{
closed = 1;
nodes = (
(597,0,l),
(620,130,l),
(-4,130,l),
(-27,0,l)
);
},
{
closed = 1;
nodes = (
(146,130,l),
(378,557,l),
(388,557,l),
(489,720,l),
(335,720,l),
(-4,130,l)
);
}
);
width = 664;
}
);
subCategory = Uppercase;
unicode = 916;
},
{
glyphname = Omega;
kernLeft = Omega;
kernRight = Omega;
lastChange = "2026-01-08 00:01:50 +0000";
layers = (
{
hints = (
{
horizontal = 1;
origin = (0,31);
target = (0,30);
type = Stem;
},
{
horizontal = 1;
origin = (0,23);
target = (0,7);
type = Stem;
},
{
origin = (0,31);
target = (0,4);
type = Stem;
},
{
origin = (0,10);
target = (0,15);
type = Stem;
}
);
layerId = "05246BF3-0764-4143-87C4-5D2B296D3790";
shapes = (
{
closed = 1;
nodes = (
(254,0,l),
(272,100,l),
(220,150,o),
(138,250,o),
(165,400,cs),
(191,550,o),
(289,650,o),
(439,650,cs),
(589,650,o),
(651,550,o),
(625,400,cs),
(598,250,o),
(480,150,o),
(412,100,c),
(394,0,l),
(644,0,l),
(658,80,l),
(488,80,l),
(557,130,o),
(683,220,o),
(715,400,cs),
(746,580,o),
(653,730,o),
(453,730,cs),
(253,730,o),
(106,580,o),
(75,400,cs),
(43,220,o),
(137,130,o),
(188,80,c),
(18,80,l),
(4,0,l)
);
}
);
width = 740;
},
{
hints = (
{
horizontal = 1;
origin = (0,31);
target = (0,30);
type = Stem;
},
{
horizontal = 1;
origin = (0,23);
target = (0,7);
type = Stem;
},
{
origin = (0,31);
target = (0,4);
type = Stem;
},
{
origin = (0,29);
target = (0,0);
type = Stem;
},
{
origin = (0,14);
target = (0,17);
type = Stem;
},
{
origin = (0,10);
target = (0,15);
type = Stem;
}
);
layerId = "B51EB05F-9FBB-4087-814F-400611B2D4B0";
shapes = (
{
closed = 1;
nodes = (
(274,0,l),
(297,130,l),
(246,180,o),
(190,260,o),
(215,400,cs),
(239,540,o),
(313,620,o),
(443,620,cs),
(573,620,o),
(619,540,o),
(595,400,cs),
(570,260,o),
(486,180,o),
(417,130,c),
(394,0,l),
(674,0,l),
(693,110,l),
(493,110,l),
(562,160,o),
(713,220,o),
(745,400,cs),
(778,590,o),
(673,730,o),
(463,730,cs),
(253,730,o),
(98,590,o),
(65,400,cs),
(33,220,o),
(162,160,o),
(213,110,c),
(13,110,l),
(-6,0,l)
);
}
);
width = 761;
}
);
subCategory = Uppercase;
unicode = 937;
},
{
glyphname = mu;
kernLeft = mu;
lastChange = "2026-01-08 00:01:42 +0000";
layers = (
{
hints = (
{
horizontal = 1;
origin = (2,9);
target = (2,2);
type = Stem;
},
{
horizontal = 1;
origin = (0,16);
target = down;
type = TopGhost;
},
{
horizontal = 1;
origin = (0,20);
target = (0,11);
type = Stem;
},
{
origin = (1,3);
target = (1,0);
type = Stem;
},
{
origin = (0,4);
target = (0,5);
type = Stem;
}
);
layerId = "05246BF3-0764-4143-87C4-5D2B296D3790";
shapes = (
{
closed = 1;
nodes = (
(282,-10,o),
(334,30,o),
(377,100,c),
(387,100,l),
(385,90,l),
(480,120,l),
(551,520,l),
(461,520,l),
(411,240,ls),
(392,130,o),
(316,70,o),
(246,70,cs),
(176,70,o),
(137,100,o),
(153,190,c),
(211,520,l),
(121,520,l),
(113,190,l),
(95,90,o),
(112,-10,o),
(202,-10,cs)
);
},
{
closed = 1;
nodes = (
(91,-160,l),
(211,520,l),
(121,520,l),
(1,-160,l)
);
},
{
closed = 1;
nodes = (
(505,0,l),
(519,80,l),
(503,80,ls),
(483,80,o),
(475,90,o),
(480,120,c),
(385,90,l),
(373,20,o),
(419,0,o),
(469,0,cs)
);
}
);
width = 571;
},
{
hints = (
{
horizontal = 1;
origin = (2,9);
target = (2,2);
type = Stem;
},
{
horizontal = 1;
origin = (1,2);
target = down;
type = TopGhost;
},
{
horizontal = 1;
origin = (0,20);
target = (0,11);
type = Stem;
},
{
origin = (1,3);
target = (1,0);
type = Stem;
},
{
origin = (0,4);
target = (0,5);
type = Stem;
}
);
layerId = "B51EB05F-9FBB-4087-814F-400611B2D4B0";
shapes = (
{
closed = 1;
nodes = (
(297,-10,o),
(328,20,o),
(368,80,c),
(378,80,l),
(376,70,l),
(540,150,l),
(607,530,l),
(457,530,l),
(408,250,l),
(392,160,o),
(337,100,o),
(277,100,c),
(217,100,o),
(187,130,o),
(199,200,cs),
(257,530,l),
(197,530,l),
(139,200,ls),
(118,80,o),
(147,-10,o),
(227,-10,c)
);
},
{
closed = 1;
nodes = (
(136,-160,l),
(257,530,l),
(107,530,l),
(-14,-160,l)
);
},
{
closed = 1;
nodes = (
(560,0,l),
(579,110,l),
(563,110,l),
(543,110,o),
(535,120,o),
(540,150,c),
(376,70,l),
(369,30,o),
(404,0,o),
(454,0,c)
);
}
);
width = 627;
}
);
subCategory = Lowercase;
unicode = 956;
},
{
glyphname = pi;
kernLeft = pi;
kernRight = pi;
lastChange = "2026-01-08 00:01:42 +0000";
layers = (
{
hints = (
{
horizontal = 1;
origin = (0,3);
target = (1,2);
type = Stem;
},
{
horizontal = 1;
origin = (3,2);
target = (3,3);
type = Stem;
},
{
origin = (0,3);
target = (0,0);
type = Stem;
},
{
origin = (1,6);
target = (1,5);
type = Stem;
}
);
layerId = "05246BF3-0764-4143-87C4-5D2B296D3790";
shapes = (
{
closed = 1;
nodes = (
(164,0,l),
(256,520,l),
(166,520,l),
(74,0,l)
);
},
{
closed = 1;
nodes = (
(514,0,l),
(528,80,l),
(488,80,ls),
(468,80,o),
(450,90,o),
(455,120,c),
(363,110,l),
(351,40,o),
(394,0,o),
(444,0,cs)
);
},
{
closed = 1;
nodes = (
(455,120,l),
(526,520,l),
(436,520,l),
(363,110,l)
);
},
{
closed = 1;
nodes = (
(612,440,l),
(626,520,l),
(66,520,l),
(52,440,l)
);
}
);
width = 600;
},
{
hints = (
{
horizontal = 1;
origin = (0,3);
target = (1,6);
type = Stem;
},
{
horizontal = 1;
origin = (3,2);
target = (3,3);
type = Stem;
},
{
origin = (0,3);
target = (0,0);
type = Stem;
},
{
origin = (1,6);
target = (1,5);
type = Stem;
}
);
layerId = "B51EB05F-9FBB-4087-814F-400611B2D4B0";
shapes = (
{
closed = 1;
nodes = (
(219,0,l),
(312,530,l),
(162,530,l),
(69,0,l)
);
},
{
closed = 1;
nodes = (
(569,0,l),
(588,110,l),
(548,110,ls),
(528,110,o),
(510,120,o),
(515,150,c),
(358,110,l),
(346,40,o),
(389,0,o),
(439,0,cs)
);
},
{
closed = 1;
nodes = (
(515,150,l),
(582,530,l),
(432,530,l),
(358,110,l)
);
},
{
closed = 1;
nodes = (
(663,420,l),
(682,530,l),
(62,530,l),
(43,420,l)
);
}
);
width = 651;
}
);
subCategory = Lowercase;
unicode = 960;
},
{
glyphname = zero;
kernLeft = C;
kernRight = "0";
lastChange = "2026-01-05 18:05:34 +0000";
layers = (
{
hints = (
{
horizontal = 1;
origin = (1,11);
place = (70,80);
type = Stem;
},
{
horizontal = 1;
origin = (0,5);
place = (730,80);
type = Stem;
},
{
origin = (0,8);
place = (60,90);
type = Stem;
},
{
origin = (1,8);
place = (520,90);
type = Stem;
}
);
layerId = "05246BF3-0764-4143-87C4-5D2B296D3790";
shapes = (
{
closed = 1;
nodes = (
(470,-10,o),
(575,160,o),
(610,360,cs),
(645,560,o),
(600,730,o),
(400,730,cs),
(200,730,o),
(95,560,o),
(60,360,cs),
(26,170,o),
(70,-10,o),
(270,-10,cs)
);
},
{
closed = 1;
nodes = (
(134,70,o),
(124,210,o),
(150,360,cs),
(178,520,o),
(236,650,o),
(386,650,cs),
(536,650,o),
(548,520,o),
(520,360,cs),
(492,200,o),
(434,70,o),
(284,70,cs)
);
}
);
width = 670;
},
{
hints = (
{
horizontal = 1;
place = (-10,110);
type = Stem;
},
{
horizontal = 1;
place = (730,110);
type = Stem;
},
{
place = (-6,150);
type = Stem;
},
{
place = (434,150);
type = Stem;
}
);
layerId = "B51EB05F-9FBB-4087-814F-400611B2D4B0";
shapes = (
{
closed = 1;
nodes = (
(490,-10,o),
(603,150,o),
(640,360,cs),
(677,570,o),
(620,730,o),
(410,730,cs),
(200,730,o),
(87,570,o),
(50,360,cs),
(15,160,o),
(70,-10,o),
(280,-10,cs)
);
},
{
closed = 1;
nodes = (
(169,100,o),
(177,230,o),
(200,360,cs),
(225,500,o),
(261,620,o),
(391,620,cs),
(521,620,o),
(515,500,o),
(490,360,cs),
(465,220,o),
(429,100,o),
(299,100,cs)
);
}
);
width = 670;
}
);
unicode = 48;
},
{
glyphname = one;
kernLeft = "1";
kernRight = "1";
lastChange = "2026-01-05 18:06:00 +0000";
layers = (
{
hints = (
{
horizontal = 1;
place = (0,21);
target = up;
type = BottomGhost;
},
{
horizontal = 1;
place = (720,90);
type = Stem;
},
{
place = (160,90);
type = Stem;
}
);
layerId = "05246BF3-0764-4143-87C4-5D2B296D3790";
shapes = (
{
closed = 1;
nodes = (
(232,0,l),
(358,720,l),
(268,720,l),
(76,620,l),
(60,530,l),
(253,630,l),
(142,0,l)
);
}
);
width = 386;
},
{
hints = (
{
horizontal = 1;
place = (0,21);
target = up;
type = BottomGhost;
},
{
horizontal = 1;
place = (720,121);
type = Stem;
},
{
place = (149,150);
type = Stem;
}
);
layerId = "B51EB05F-9FBB-4087-814F-400611B2D4B0";
shapes = (
{
closed = 1;
nodes = (
(282,0,l),
(408,720,l),
(258,720,l),
(66,620,l),
(45,500,l),
(237,600,l),
(132,0,l)
);
}
);
width = 416;
}
);
unicode = 49;
},
{
glyphname = two;
kernLeft = "2";
kernRight = "2";
lastChange = "2026-01-05 18:06:20 +0000";
layers = (
{
hints = (
{
horizontal = 1;
place = (80,80);
type = Stem;
},
{
horizontal = 1;
place = (730,80);
type = Stem;
},
{
place = (86,90);
type = Stem;
},
{
place = (467,90);
type = Stem;
}
);
layerId = "05246BF3-0764-4143-87C4-5D2B296D3790";
shapes = (
{
closed = 1;
nodes = (
(461,0,l),
(475,80,l),
(135,80,l),
(384,300,ls),
(478,380,o),
(550,450,o),
(564,530,cs),
(583,640,o),
(497,730,o),
(357,730,cs),
(227,730,o),
(113,640,o),
(92,520,c),
(182,520,l),
(195,590,o),
(253,650,o),
(343,650,cs),
(433,650,o),
(486,600,o),
(474,530,cs),
(464,470,o),
(419,427,o),
(337,357,cs),
(25,80,l),
(11,0,l)
);
}
);
width = 559;
},
{
hints = (
{
horizontal = 1;
place = (0,110);
type = Stem;
},
{
horizontal = 1;
place = (730,110);
type = Stem;
},
{
place = (73,150);
type = Stem;
},
{
place = (446,57);
type = Stem;
}
);
layerId = "B51EB05F-9FBB-4087-814F-400611B2D4B0";
shapes = (
{
closed = 1;
nodes = (
(511,0,l),
(530,110,l),
(220,110,l),
(491,340,ls),
(573,410,o),
(592,460,o),
(604,530,cs),
(625,650,o),
(517,730,o),
(377,730,cs),
(237,730,o),
(103,640,o),
(81,510,c),
(231,510,l),
(239,560,o),
(288,620,o),
(358,620,cs),
(428,620,o),
(463,580,o),
(454,530,cs),
(447,490,o),
(429,447,o),
(348,380,cs),
(20,110,l),
(1,0,l)
);
}
);
width = 590;
}
);
unicode = 50;
},
{
glyphname = three;
kernLeft = "3";
kernRight = "3";
lastChange = "2026-01-05 18:06:40 +0000";
layers = (
{
hints = (
{
horizontal = 1;
place = (70,80);
type = Stem;
},
{
horizontal = 1;
place = (425,80);
type = Stem;
},
{
horizontal = 1;
place = (730,80);
type = Stem;
},
{
place = (30,90);
type = Stem;
},
{
place = (240,196);
type = Stem;
},
{
place = (450,90);
type = Stem;
},
{
place = (113,90);
type = Stem;
},
{
place = (484,90);
type = Stem;
}
);
layerId = "05246BF3-0764-4143-87C4-5D2B296D3790";
shapes = (
{
closed = 1;
nodes = (
(400,-10,o),
(520,75,o),
(543,205,cs),
(558,291,o),
(520,353,o),
(439,380,c),
(440,391,l),
(514,415,o),
(564,466,o),
(577,540,cs),
(598,660,o),
(510,730,o),
(380,730,cs),
(250,730,o),
(137,655,o),
(116,535,c),
(206,535,l),
(218,605,o),
(276,650,o),
(366,650,cs),
(456,650,o),
(499,610,o),
(487,540,cs),
(474,470,o),
(416,425,o),
(326,425,cs),
(256,425,l),
(242,345,l),
(312,345,ls),
(422,345,o),
(467,285,o),
(453,205,cs),
(439,125,o),
(374,70,o),
(264,70,cs),
(154,70,o),
(109,125,o),
(123,205,c),
(33,205,l),
(10,75,o),
(100,-10,o),
(250,-10,cs)
);
}
);
width = 600;
},
{
hints = (
{
horizontal = 1;
place = (-10,110);
type = Stem;
},
{
horizontal = 1;
place = (330,110);
type = Stem;
},
{
horizontal = 1;
place = (730,110);
type = Stem;
},
{
place = (22,150);
type = Stem;
},
{
place = (439,150);
type = Stem;
},
{
place = (99,150);
type = Stem;
},
{
place = (473,151);
type = Stem;
}
);
layerId = "B51EB05F-9FBB-4087-814F-400611B2D4B0";
shapes = (
{
closed = 1;
nodes = (
(430,-10,o),
(568,65,o),
(593,205,cs),
(610,301,o),
(550,353,o),
(469,380,c),
(470,391,l),
(544,415,o),
(611,446,o),
(628,540,cs),
(649,660,o),
(540,730,o),
(400,730,cs),
(270,730,o),
(127,655,o),
(102,515,c),
(252,515,l),
(265,585,o),
(311,620,o),
(381,620,cs),
(451,620,o),
(486,590,o),
(477,540,cs),
(468,490,o),
(439,440,o),
(349,440,cs),
(249,440,l),
(230,330,l),
(330,330,ls),
(440,330,o),
(455,275,o),
(443,205,cs),
(432,145,o),
(389,100,o),
(289,100,cs),
(189,100,o),
(161,140,o),
(175,220,c),
(25,220,l),
(1,80,o),
(110,-10,o),
(270,-10,cs)
);
}
);
width = 640;
}
);
unicode = 51;
},
{
glyphname = four;
kernLeft = "4";
kernRight = "4";
lastChange = "2026-01-05 18:07:03 +0000";
layers = (
{
hints = (
{
horizontal = 1;
place = (0,21);
target = up;
type = BottomGhost;
},
{
horizontal = 1;
place = (230,80);
type = Stem;
},
{
horizontal = 1;
place = (720,-20);
target = down;
type = TopGhost;
},
{
horizontal = 1;
place = (474,-8);
type = Stem;
},
{
place = (335,90);
type = Stem;
}
);
layerId = "05246BF3-0764-4143-87C4-5D2B296D3790";
shapes = (
{
closed = 1;
nodes = (
(122,230,l),
(538,720,l),
(443,720,l),
(27,230,l)
);
},
{
closed = 1;
nodes = (
(553,150,l),
(567,230,l),
(27,230,l),
(13,150,l)
);
},
{
closed = 1;
nodes = (
(427,0,l),
(553,720,l),
(468,720,l),
(342,0,l)
);
}
);
width = 621;
},
{
hints = (
{
horizontal = 1;
place = (0,21);
target = up;
type = BottomGhost;
},
{
horizontal = 1;
place = (140,110);
type = Stem;
},
{
horizontal = 1;
place = (720,-20);
target = down;
type = TopGhost;
},
{
place = (313,150);
type = Stem;
}
);
layerId = "B51EB05F-9FBB-4087-814F-400611B2D4B0";
shapes = (
{
closed = 1;
nodes = (
(159,240,l),
(553,720,l),
(423,720,l),
(19,240,l)
);
},
{
closed = 1;
nodes = (
(581,140,l),
(599,240,l),
(19,240,l),
(1,140,l)
);
},
{
closed = 1;
nodes = (
(477,0,l),
(603,720,l),
(458,720,l),
(332,0,l)
);
}
);
width = 630;
}
);
unicode = 52;
},
{
glyphname = five;
kernLeft = "5";
kernRight = "5";
lastChange = "2026-01-05 18:07:22 +0000";
layers = (
{
hints = (
{
horizontal = 1;
place = (70,80);
type = Stem;
},
{
horizontal = 1;
place = (470,80);
type = Stem;
},
{
horizontal = 1;
place = (720,80);
type = Stem;
},
{
horizontal = 1;
place = (391,71);
type = Stem;
},
{
place = (44,90);
type = Stem;
},
{
place = (485,90);
type = Stem;
}
);
layerId = "05246BF3-0764-4143-87C4-5D2B296D3790";
shapes = (
{
closed = 1;
nodes = (
(406,-10,o),
(535,100,o),
(558,230,cs),
(583,370,o),
(490,470,o),
(350,470,cs),
(266,470,o),
(203,431,o),
(178,391,c),
(168,391,l),
(147,364,o),
(130,336,o),
(119,320,c),
(149,320,l),
(186,360,o),
(246,390,o),
(326,390,cs),
(426,390,o),
(484,320,o),
(468,230,cs),
(452,140,o),
(370,70,o),
(270,70,cs),
(160,70,o),
(120,130,o),
(117,170,c),
(27,170,l),
(22,80,o),
(96,-10,o),
(256,-10,cs)
);
},
{
closed = 1;
nodes = (
(149,320,l),
(259,720,l),
(179,720,l),
(69,320,l)
);
},
{
closed = 1;
nodes = (
(591,640,l),
(605,720,l),
(179,720,l),
(165,640,l)
);
}
);
width = 620;
},
{
hints = (
{
horizontal = 1;
place = (-10,110);
type = Stem;
},
{
horizontal = 1;
place = (360,110);
type = Stem;
},
{
horizontal = 1;
place = (720,110);
type = Stem;
},
{
horizontal = 1;
place = (300,91);
type = Stem;
},
{
place = (37,170);
type = Stem;
},
{
place = (454,170);
type = Stem;
}
);
layerId = "B51EB05F-9FBB-4087-814F-400611B2D4B0";
shapes = (
{
closed = 1;
nodes = (
(436,-10,o),
(573,90,o),
(598,230,cs),
(624,380,o),
(520,470,o),
(380,470,cs),
(306,470,o),
(245,431,o),
(228,391,c),
(218,391,l),
(197,364,o),
(146,316,o),
(135,300,c),
(195,300,l),
(222,340,o),
(261,360,o),
(341,360,cs),
(421,360,o),
(460,300,o),
(448,230,cs),
(436,160,o),
(375,100,o),
(295,100,cs),
(215,100,o),
(170,130,o),
(181,190,c),
(31,190,l),
(12,80,o),
(116,-10,o),
(276,-10,cs)
);
},
{
closed = 1;
nodes = (
(195,300,l),
(309,720,l),
(179,720,l),
(65,300,l)
);
},
{
closed = 1;
nodes = (
(626,610,l),
(645,720,l),
(199,720,l),
(180,610,l)
);
}
);
width = 670;
}
);
unicode = 53;
},
{
glyphname = six;
kernLeft = "6";
kernRight = "6";
lastChange = "2026-01-05 18:07:37 +0000";
layers = (
{
hints = (
{
horizontal = 1;
place = (70,80);
type = Stem;
},
{
horizontal = 1;
place = (470,80);
type = Stem;
},
{
horizontal = 1;
place = (730,80);
type = Stem;
},
{
place = (76,85);
type = Stem;
},
{
place = (495,90);
type = Stem;
},
{
place = (539,90);
type = Stem;
},
{
place = (76,89);
type = Stem;
}
);
layerId = "05246BF3-0764-4143-87C4-5D2B296D3790";
shapes = (
{
closed = 1;
nodes = (
(430,-10,o),
(544,100,o),
(567,230,cs),
(590,360,o),
(514,470,o),
(354,470,cs),
(265,470,o),
(187,411,o),
(155,341,c),
(144,341,l),
(171,532,o),
(249,650,o),
(386,650,cs),
(496,650,o),
(521,590,o),
(522,540,c),
(612,540,l),
(619,640,o),
(560,730,o),
(400,730,cs),
(240,730,o),
(106,620,o),
(58,350,cs),
(9,70,o),
(120,-10,o),
(270,-10,cs)
);
},
{
closed = 1;
nodes = (
(184,70,o),
(129,130,o),
(147,230,cs),
(165,330,o),
(240,390,o),
(340,390,cs),
(440,390,o),
(495,330,o),
(477,230,cs),
(459,130,o),
(384,70,o),
(284,70,cs)
);
}
);
width = 650;
},
{
hints = (
{
horizontal = 1;
place = (-10,110);
type = Stem;
},
{
horizontal = 1;
place = (360,110);
type = Stem;
},
{
horizontal = 1;
place = (730,110);
type = Stem;
},
{
place = (65,142);
type = Stem;
},
{
place = (474,150);
type = Stem;
},
{
place = (515,150);
type = Stem;
},
{
place = (65,149);
type = Stem;
}
);
layerId = "B51EB05F-9FBB-4087-814F-400611B2D4B0";
shapes = (
{
closed = 1;
nodes = (
(465,-10,o),
(584,100,o),
(607,230,cs),
(634,380,o),
(529,470,o),
(389,470,cs),
(310,470,o),
(246,431,o),
(201,351,c),
(190,351,l),
(222,529,o),
(287,620,o),
(396,620,cs),
(496,620,o),
(509,580,o),
(498,520,c),
(648,520,l),
(669,640,o),
(585,730,o),
(415,730,cs),
(255,730,o),
(98,630,o),
(48,350,cs),
(-3,60,o),
(115,-10,o),
(285,-10,cs)
);
},
{
closed = 1;
nodes = (
(234,100,o),
(181,140,o),
(197,230,cs),
(213,320,o),
(280,360,o),
(350,360,cs),
(420,360,o),
(473,320,o),
(457,230,cs),
(441,140,o),
(374,100,o),
(304,100,cs)
);
}
);
width = 670;
}
);
unicode = 54;
},
{
glyphname = seven;
kernLeft = "7";
kernRight = "7";
lastChange = "2026-01-05 18:07:55 +0000";
layers = (
{
hints = (
{
horizontal = 1;
place = (0,21);
target = up;
type = BottomGhost;
},
{
horizontal = 1;
place = (720,80);
type = Stem;
},
{
place = (482,90);
type = Stem;
}
);
layerId = "05246BF3-0764-4143-87C4-5D2B296D3790";
shapes = (
{
closed = 1;
nodes = (
(162,0,l),
(569,640,l),
(479,640,l),
(67,0,l)
);
},
{
closed = 1;
nodes = (
(569,640,l),
(583,720,l),
(108,720,l),
(94,640,l)
);
}
);
width = 545;
},
{
hints = (
{
horizontal = 1;
place = (0,21);
target = up;
type = BottomGhost;
},
{
horizontal = 1;
place = (720,110);
type = Stem;
}
);
layerId = "B51EB05F-9FBB-4087-814F-400611B2D4B0";
shapes = (
{
closed = 1;
nodes = (
(182,0,l),
(604,610,l),
(449,610,l),
(22,0,l)
);
},
{
closed = 1;
nodes = (
(604,610,l),
(623,720,l),
(98,720,l),
(79,610,l)
);
}
);
width = 565;
}
);
unicode = 55;
},
{
glyphname = eight;
kernLeft = "8";
kernRight = "8";
lastChange = "2026-01-05 18:08:26 +0000";
layers = (
{
hints = (
{
horizontal = 1;
place = (70,80);
type = Stem;
},
{
horizontal = 1;
place = (425,80);
type = Stem;
},
{
horizontal = 1;
place = (730,80);
type = Stem;
},
{
place = (40,90);
type = Stem;
},
{
place = (480,90);
type = Stem;
},
{
place = (129,90);
type = Stem;
},
{
place = (509,90);
type = Stem;
}
);
layerId = "05246BF3-0764-4143-87C4-5D2B296D3790";
shapes = (
{
closed = 1;
nodes = (
(410,-10,o),
(540,75,o),
(563,205,cs),
(578,291,o),
(530,353,o),
(449,380,c),
(450,391,l),
(418,402,o),
(376,400,o),
(332,400,cs),
(288,400,o),
(245,400,o),
(210,391,c),
(209,381,l),
(118,353,o),
(50,301,o),
(33,205,cs),
(10,75,o),
(110,-10,o),
(260,-10,cs)
);
},
{
closed = 1;
nodes = (
(154,70,o),
(110,135,o),
(123,205,cs),
(135,275,o),
(202,345,o),
(322,345,cs),
(442,345,o),
(485,275,o),
(473,205,cs),
(460,135,o),
(394,70,o),
(274,70,cs)
);
},
{
closed = 1;
nodes = (
(246,425,o),
(199,470,o),
(212,540,cs),
(224,610,o),
(286,650,o),
(376,650,cs),
(466,650,o),
(514,610,o),
(502,540,cs),
(489,470,o),
(426,425,o),
(336,425,cs)
);
},
{
closed = 1;
nodes = (
(373,370,o),
(412,368,o),
(449,380,c),
(450,391,l),
(524,415,o),
(579,466,o),
(592,540,cs),
(613,660,o),
(520,730,o),
(390,730,cs),
(260,730,o),
(143,660,o),
(122,540,cs),
(109,466,o),
(146,415,o),
(210,391,c),
(209,381,l),
(241,370,o),
(282,370,o),
(327,370,cs)
);
}
);
width = 630;
},
{
layerId = "B51EB05F-9FBB-4087-814F-400611B2D4B0";
shapes = (
{
closed = 1;
nodes = (
(420,-10,o),
(570,75,o),
(594,215,cs),
(609,295,o),
(561,356,o),
(483,380,c),
(484,390,l),
(446,401,o),
(396,400,o),
(342,400,cs),
(288,400,o),
(238,401,o),
(196,390,c),
(195,380,l),
(107,356,o),
(39,295,o),
(24,215,cs),
(0,75,o),
(120,-10,o),
(270,-10,cs)
);
},
{
closed = 1;
nodes = (
(209,100,o),
(162,145,o),
(174,215,cs),
(187,285,o),
(250,330,o),
(330,330,cs),
(410,330,o),
(457,285,o),
(444,215,cs),
(432,145,o),
(369,100,o),
(289,100,cs)
);
},
{
closed = 1;
nodes = (
(279,440,o),
(246,480,o),
(255,530,cs),
(264,580,o),
(311,620,o),
(381,620,cs),
(451,620,o),
(484,580,o),
(475,530,cs),
(466,480,o),
(419,440,o),
(349,440,cs)
);
},
{
closed = 1;
nodes = (
(392,370,o),
(442,369,o),
(483,380,c),
(484,390,l),
(555,411,o),
(613,460,o),
(625,530,cs),
(648,660,o),
(540,730,o),
(400,730,cs),
(260,730,o),
(128,660,o),
(105,530,cs),
(93,460,o),
(133,411,o),
(196,390,c),
(195,380,l),
(232,369,o),
(282,370,o),
(337,370,cs)
);
}
);
width = 650;
}
);
unicode = 56;
},
{
glyphname = nine;
kernLeft = "9";
kernRight = "9";
lastChange = "2026-01-05 18:08:40 +0000";
layers = (
{
hints = (
{
horizontal = 1;
place = (70,80);
type = Stem;
},
{
horizontal = 1;
place = (330,80);
type = Stem;
},
{
horizontal = 1;
place = (730,80);
type = Stem;
},
{
place = (101,90);
type = Stem;
},
{
place = (525,85);
type = Stem;
},
{
place = (57,90);
type = Stem;
},
{
place = (521,89);
type = Stem;
}
);
layerId = "05246BF3-0764-4143-87C4-5D2B296D3790";
shapes = (
{
closed = 1;
nodes = (
(410,-10,o),
(544,100,o),
(592,370,cs),
(641,650,o),
(530,730,o),
(380,730,cs),
(220,730,o),
(106,620,o),
(83,490,cs),
(60,360,o),
(136,250,o),
(296,250,cs),
(385,250,o),
(463,309,o),
(495,379,c),
(506,379,l),
(479,188,o),
(401,70,o),
(264,70,cs),
(154,70,o),
(129,130,o),
(128,180,c),
(38,180,l),
(31,80,o),
(90,-10,o),
(250,-10,cs)
);
},
{
closed = 1;
nodes = (
(210,330,o),
(155,390,o),
(173,490,cs),
(191,590,o),
(266,650,o),
(366,650,cs),
(466,650,o),
(521,590,o),
(503,490,cs),
(485,390,o),
(410,330,o),
(310,330,cs)
);
}
);
width = 651;
},
{
hints = (
{
horizontal = 1;
place = (-10,110);
type = Stem;
},
{
horizontal = 1;
place = (250,110);
type = Stem;
},
{
horizontal = 1;
place = (730,110);
type = Stem;
},
{
place = (80,150);
type = Stem;
},
{
place = (497,142);
type = Stem;
},
{
place = (39,150);
type = Stem;
},
{
place = (490,149);
type = Stem;
}
);
layerId = "B51EB05F-9FBB-4087-814F-400611B2D4B0";
shapes = (
{
closed = 1;
nodes = (
(425,-10,o),
(582,90,o),
(632,370,cs),
(683,660,o),
(565,730,o),
(395,730,cs),
(215,730,o),
(96,620,o),
(73,490,cs),
(46,340,o),
(151,250,o),
(291,250,cs),
(370,250,o),
(434,289,o),
(479,369,c),
(490,369,l),
(462,191,o),
(393,100,o),
(284,100,cs),
(184,100,o),
(171,140,o),
(182,200,c),
(32,200,l),
(11,80,o),
(95,-10,o),
(265,-10,cs)
);
},
{
closed = 1;
nodes = (
(260,360,o),
(207,400,o),
(223,490,cs),
(239,580,o),
(306,620,o),
(376,620,cs),
(446,620,o),
(499,580,o),
(483,490,cs),
(467,400,o),
(400,360,o),
(330,360,cs)
);
}
);
width = 670;
}
);
unicode = 57;
},
{
glyphname = fraction;
lastChange = "2026-01-05 18:09:00 +0000";
layers = (
{
hints = (
{
horizontal = 1;
place = (0,21);
target = up;
type = BottomGhost;
},
{
horizontal = 1;
place = (720,-20);
target = down;
type = TopGhost;
}
);
layerId = "05246BF3-0764-4143-87C4-5D2B296D3790";
shapes = (
{
closed = 1;
nodes = (
(57,0,l),
(638,720,l),
(548,720,l),
(-33,0,l)
);
}
);
width = 610;
},
{
hints = (
{
horizontal = 1;
place = (0,21);
target = up;
type = BottomGhost;
},
{
horizontal = 1;
place = (720,-20);
target = down;
type = TopGhost;
}
);
layerId = "B51EB05F-9FBB-4087-814F-400611B2D4B0";
shapes = (
{
closed = 1;
nodes = (
(107,0,l),
(688,720,l),
(548,720,l),
(-33,0,l)
);
}
);
width = 665;
}
);
unicode = 8260;
},
{
glyphname = onesuperior;
kernLeft = onesuperior;
kernRight = onesuperior;
lastChange = "2026-01-05 21:20:00 +0000";
layers = (
{
hints = (
{
place = (196,70);
type = Stem;
}
);
layerId = "05246BF3-0764-4143-87C4-5D2B296D3790";
shapes = (
{
closed = 1;
nodes = (
(227,410,l),
(287,750,l),
(217,750,l),
(157,410,l)
);
},
{
closed = 1;
nodes = (
(206,690,l),
(217,750,l),
(106,690,l),
(96,630,l)
);
}
);
width = 271;
},
{
hints = (
{
place = (185,110);
type = Stem;
}
);
layerId = "B51EB05F-9FBB-4087-814F-400611B2D4B0";
shapes = (
{
closed = 1;
nodes = (
(246,410,l),
(312,750,l),
(218,750,l),
(152,410,l)
);
},
{
closed = 1;
nodes = (
(204,670,l),
(218,750,l),
(106,690,l),
(91,610,l)
);
}
);
width = 291;
}
);
unicode = 185;
},
{
glyphname = twosuperior;
kernLeft = twosuperior;
kernRight = twosuperior;
lastChange = "2026-01-05 21:11:37 +0000";
layers = (
{
hints = (
{
horizontal = 1;
place = (470,60);
type = Stem;
},
{
horizontal = 1;
place = (760,60);
type = Stem;
},
{
place = (96,113);
type = Stem;
},
{
place = (306,72);
type = Stem;
},
{
place = (96,244);
type = Stem;
}
);
layerId = "05246BF3-0764-4143-87C4-5D2B296D3790";
shapes = (
{
closed = 1;
nodes = (
(305,410,l),
(317,470,l),
(169,470,l),
(287,563,ls),
(325,592,o),
(340,621,o),
(347,655,cs),
(356,703,o),
(325,756,o),
(248,756,cs),
(181,756,o),
(121,718,o),
(107,646,c),
(177,646,l),
(182,669,o),
(202,696,o),
(236,696,cs),
(280,696,o),
(278,660,o),
(275,645,cs),
(273,635,o),
(271,618,o),
(230,588,cs),
(73,470,l),
(61,410,l)
);
}
);
width = 320;
},
{
layerId = "B51EB05F-9FBB-4087-814F-400611B2D4B0";
shapes = (
{
closed = 1;
nodes = (
(320,410,l),
(336,490,l),
(193,490,l),
(297,563,ls),
(335,589,o),
(350,621,o),
(357,655,cs),
(368,713,o),
(335,756,o),
(248,756,cs),
(171,756,o),
(111,718,o),
(96,641,c),
(186,641,l),
(191,664,o),
(210,686,o),
(234,686,cs),
(268,686,o),
(268,660,o),
(265,645,cs),
(263,635,o),
(260,615,o),
(220,588,cs),
(72,490,l),
(56,410,l)
);
}
);
width = 331;
}
);
unicode = 178;
},
{
glyphname = threesuperior;
kernLeft = threesuperior;
kernRight = threesuperior;
lastChange = "2026-01-05 21:11:43 +0000";
layers = (
{
hints = (
{
horizontal = 1;
place = (465,60);
type = Stem;
},
{
horizontal = 1;
place = (622,60);
type = Stem;
},
{
horizontal = 1;
place = (755,60);
type = Stem;
},
{
place = (223,95);
type = Stem;
},
{
place = (149,70);
type = Stem;
},
{
place = (324,71);
type = Stem;
},
{
place = (114,70);
type = Stem;
},
{
place = (310,70);
type = Stem;
}
);
layerId = "05246BF3-0764-4143-87C4-5D2B296D3790";
shapes = (
{
closed = 1;
nodes = (
(257,400,o),
(328,445,o),
(340,507,cs),
(348,547,o),
(328,577,o),
(280,589,c),
(281,595,l),
(325,606,o),
(352,630,o),
(359,665,cs),
(370,722,o),
(317,756,o),
(256,756,cs),
(195,756,o),
(126,725,o),
(113,658,c),
(183,658,l),
(187,681,o),
(207,696,o),
(244,696,cs),
(277,696,o),
(292,683,o),
(288,660,cs),
(283,637,o),
(262,617,o),
(229,617,cs),
(196,617,l),
(186,567,l),
(219,567,ls),
(271,567,o),
(274,525,o),
(270,507,cs),
(265,479,o),
(240,460,o),
(198,460,cs),
(156,460,o),
(138,474,o),
(144,507,c),
(74,507,l),
(60,435,o),
(115,400,o),
(186,400,cs)
);
}
);
width = 336;
},
{
hints = (
{
horizontal = 1;
place = (405,60);
type = Stem;
},
{
horizontal = 1;
place = (562,60);
type = Stem;
},
{
horizontal = 1;
place = (695,60);
type = Stem;
},
{
place = (23,70);
type = Stem;
},
{
place = (132,95);
type = Stem;
},
{
place = (58,70);
type = Stem;
},
{
place = (233,71);
type = Stem;
},
{
place = (219,70);
type = Stem;
}
);
layerId = "B51EB05F-9FBB-4087-814F-400611B2D4B0";
shapes = (
{
closed = 1;
nodes = (
(274,400,o),
(351,442,o),
(364,512,cs),
(374,562,o),
(328,589,o),
(288,589,c),
(289,595,l),
(329,595,o),
(373,620,o),
(382,665,cs),
(394,725,o),
(335,756,o),
(264,756,cs),
(193,756,o),
(117,717,o),
(104,650,c),
(204,650,l),
(209,678,o),
(227,686,o),
(250,686,cs),
(273,686,o),
(284,676,o),
(281,660,cs),
(277,642,o),
(266,622,o),
(238,622,cs),
(195,622,l),
(183,562,l),
(226,562,ls),
(263,562,o),
(268,530,o),
(264,512,cs),
(261,494,o),
(246,475,o),
(209,475,cs),
(172,475,o),
(166,502,o),
(171,525,c),
(71,525,l),
(57,453,o),
(114,400,o),
(194,400,cs)
);
}
);
width = 355;
}
);
unicode = 179;
},
{
glyphname = foursuperior;
lastChange = "2026-01-05 21:11:51 +0000";
layers = (
{
layerId = "05246BF3-0764-4143-87C4-5D2B296D3790";
shapes = (
{
closed = 1;
nodes = (
(328,476,l),
(338,526,l),
(68,526,l),
(58,476,l)
);
},
{
closed = 1;
nodes = (
(133,526,l),
(323,750,l),
(258,750,l),
(68,526,l)
);
},
{
closed = 1;
nodes = (
(272,410,l),
(338,750,l),
(268,750,l),
(202,410,l)
);
}
);
width = 331;
},
{
layerId = "B51EB05F-9FBB-4087-814F-400611B2D4B0";
shapes = (
{
closed = 1;
nodes = (
(351,471,l),
(363,536,l),
(63,536,l),
(51,471,l)
);
},
{
closed = 1;
nodes = (
(148,536,l),
(337,750,l),
(252,750,l),
(63,536,l)
);
},
{
closed = 1;
nodes = (
(296,410,l),
(362,750,l),
(282,750,l),
(216,410,l)
);
}
);
width = 350;
}
);
unicode = 8308;
},
{
glyphname = .notdef;
lastChange = "2025-12-29 22:42:08 +0000";
layers = (
{
hints = (
{
horizontal = 1;
origin = (1,19);
place = (50,30);
type = Stem;
},
{
horizontal = 1;
origin = (0,2);
place = (720,30);
type = Stem;
},
{
horizontal = 1;
origin = (7,1);
place = (520,-73);
type = Stem;
},
{
place = (-87,35);
type = Stem;
},
{
origin = (0,0);
place = (285,25);
type = Stem;
}
);
layerId = "05246BF3-0764-4143-87C4-5D2B296D3790";
shapes = (
{
closed = 1;
nodes = (
(285,0,l),
(411,720,l),
(131,720,l),
(5,0,l)
);
},
{
closed = 1;
nodes = (
(97,70,l),
(117,70,l),
(120,90,l),
(140,90,l),
(144,110,l),
(164,110,l),
(167,130,l),
(107,130,l),
(111,150,l),
(231,150,l),
(227,130,l),
(187,130,l),
(184,110,l),
(164,110,l),
(160,90,l),
(140,90,l),
(137,70,l),
(217,70,l),
(213,50,l),
(93,50,l)
);
},
{
closed = 1;
nodes = (
(138,190,l),
(118,190,l),
(127,240,l),
(147,240,l),
(150,260,l),
(230,260,l),
(227,240,l),
(247,240,l),
(238,190,l),
(218,190,l),
(214,170,l),
(134,170,l)
);
},
{
closed = 1;
nodes = (
(218,190,l),
(227,240,l),
(147,240,l),
(138,190,l)
);
},
{
closed = 1;
nodes = (
(141,320,l),
(161,320,l),
(164,340,l),
(144,340,l),
(152,380,l),
(172,380,l),
(164,340,l),
(264,340,l),
(261,320,l),
(161,320,l),
(154,280,l),
(134,280,l)
);
},
{
closed = 1;
nodes = (
(159,420,l),
(166,460,l),
(186,460,l),
(189,480,l),
(269,480,l),
(266,460,l),
(286,460,l),
(279,420,l),
(275,400,l),
(155,400,l)
);
},
{
closed = 1;
nodes = (
(259,420,l),
(266,460,l),
(186,460,l),
(179,420,l)
);
},
{
closed = 1;
nodes = (
(196,520,l),
(176,520,l),
(187,580,l),
(207,580,l),
(196,520,l),
(226,520,l),
(233,560,l),
(253,560,l),
(246,520,l),
(276,520,l),
(287,580,l),
(307,580,l),
(296,520,l),
(276,520,l),
(273,500,l),
(193,500,l)
);
},
{
closed = 1;
nodes = (
(214,620,l),
(194,620,l),
(203,670,l),
(223,670,l),
(214,620,l),
(244,620,l),
(251,660,l),
(271,660,l),
(264,620,l),
(314,620,l),
(310,600,l),
(260,600,l),
(264,620,l),
(244,620,l),
(240,600,l),
(210,600,l)
);
}
);
width = 381;
},
{
hints = (
{
horizontal = 1;
place = (-127,-97);
type = Stem;
},
{
horizontal = 1;
origin = (8,15);
place = (600,-97);
type = Stem;
},
{
horizontal = 1;
origin = (7,1);
place = (520,-73);
type = Stem;
},
{
origin = (0,3);
place = (4,-97);
type = Stem;
},
{
origin = (0,0);
place = (284,-97);
type = Stem;
}
);
layerId = "B51EB05F-9FBB-4087-814F-400611B2D4B0";
shapes = (
{
closed = 1;
nodes = (
(284,0,l),
(410,720,l),
(130,720,l),
(4,0,l)
);
},
{
closed = 1;
nodes = (
(96,70,l),
(116,70,l),
(119,90,l),
(139,90,l),
(143,110,l),
(163,110,l),
(166,130,l),
(106,130,l),
(110,150,l),
(230,150,l),
(226,130,l),
(186,130,l),
(183,110,l),
(163,110,l),
(159,90,l),
(139,90,l),
(136,70,l),
(216,70,l),
(212,50,l),
(92,50,l)
);
},
{
closed = 1;
nodes = (
(137,190,l),
(117,190,l),
(126,240,l),
(146,240,l),
(149,260,l),
(229,260,l),
(226,240,l),
(246,240,l),
(237,190,l),
(217,190,l),
(213,170,l),
(133,170,l)
);
},
{
closed = 1;
nodes = (
(217,190,l),
(226,240,l),
(146,240,l),
(137,190,l)
);
},
{
closed = 1;
nodes = (
(140,320,l),
(160,320,l),
(163,340,l),
(143,340,l),
(151,380,l),
(171,380,l),
(163,340,l),
(263,340,l),
(260,320,l),
(160,320,l),
(153,280,l),
(133,280,l)
);
},
{
closed = 1;
nodes = (
(158,420,l),
(165,460,l),
(185,460,l),
(188,480,l),
(268,480,l),
(265,460,l),
(285,460,l),
(278,420,l),
(274,400,l),
(154,400,l)
);
},
{
closed = 1;
nodes = (
(258,420,l),
(265,460,l),
(185,460,l),
(178,420,l)
);
},
{
closed = 1;
nodes = (
(195,520,l),
(175,520,l),
(186,580,l),
(206,580,l),
(195,520,l),
(225,520,l),
(232,560,l),
(252,560,l),
(245,520,l),
(275,520,l),
(286,580,l),
(306,580,l),
(295,520,l),
(275,520,l),
(272,500,l),
(192,500,l)
);
},
{
closed = 1;
nodes = (
(213,620,l),
(193,620,l),
(202,670,l),
(222,670,l),
(213,620,l),
(243,620,l),
(250,660,l),
(270,660,l),
(263,620,l),
(313,620,l),
(309,600,l),
(259,600,l),
(263,620,l),
(243,620,l),
(239,600,l),
(209,600,l)
);
}
);
width = 381;
}
);
},
{
glyphname = period;
kernLeft = period;
kernRight = period;
lastChange = "2025-12-29 20:22:39 +0000";
layers = (
{
hints = (
{
horizontal = 1;
origin = (0,5);
target = (0,11);
type = Stem;
},
{
origin = (0,8);
target = (0,2);
type = Stem;
}
);
layerId = "05246BF3-0764-4143-87C4-5D2B296D3790";
shapes = (
{
closed = 1;
nodes = (
(113,-10,o),
(147,19,o),
(154,55,cs),
(160,91,o),
(136,120,o),
(100,120,cs),
(64,120,o),
(30,91,o),
(24,55,cs),
(17,19,o),
(41,-10,o),
(77,-10,cs)
);
}
);
width = 250;
},
{
hints = (
{
horizontal = 1;
origin = (0,11);
target = (0,5);
type = Stem;
},
{
origin = (0,8);
target = (0,2);
type = Stem;
}
);
layerId = "B51EB05F-9FBB-4087-814F-400611B2D4B0";
shapes = (
{
closed = 1;
nodes = (
(142,-15,o),
(188,24,o),
(196,70,cs),
(204,116,o),
(172,155,o),
(126,155,cs),
(80,155,o),
(34,116,o),
(26,70,cs),
(18,24,o),
(50,-15,o),
(96,-15,cs)
);
}
);
width = 290;
}
);
unicode = 46;
},
{
glyphname = comma;
kernLeft = period;
kernRight = period;
lastChange = "2025-12-29 20:22:52 +0000";
layers = (
{
hints = (
{
origin = (0,3);
target = (0,1);
type = Stem;
}
);
layerId = "05246BF3-0764-4143-87C4-5D2B296D3790";
shapes = (
{
closed = 1;
nodes = (
(40,-165,l),
(157,100,l),
(62,100,l),
(-35,-165,l)
);
}
);
width = 245;
},
{
hints = (
{
horizontal = 1;
origin = (0,3);
target = (0,2);
type = Stem;
},
{
origin = (0,3);
target = (0,1);
type = Stem;
}
);
layerId = "B51EB05F-9FBB-4087-814F-400611B2D4B0";
shapes = (
{
closed = 1;
nodes = (
(94,-140,l),
(203,135,l),
(48,135,l),
(-31,-140,l)
);
}
);
width = 286;
}
);
unicode = 44;
},
{
glyphname = colon;
kernLeft = colon;
kernRight = colon;
lastChange = "2025-12-29 20:23:02 +0000";
layers = (
{
hints = (
{
horizontal = 1;
origin = (1,5);
target = (1,11);
type = Stem;
},
{
horizontal = 1;
origin = (0,5);
target = (0,11);
type = Stem;
},
{
origin = (1,8);
target = (1,2);
type = Stem;
}
);
layerId = "05246BF3-0764-4143-87C4-5D2B296D3790";
shapes = (
{
closed = 1;
nodes = (
(184,390,o),
(218,419,o),
(224,455,cs),
(231,491,o),
(207,520,o),
(171,520,cs),
(135,520,o),
(101,491,o),
(94,455,cs),
(88,419,o),
(112,390,o),
(148,390,cs)
);
},
{
closed = 1;
nodes = (
(113,-10,o),
(147,18,o),
(154,55,cs),
(160,91,o),
(136,120,o),
(100,120,cs),
(63,120,o),
(30,91,o),
(24,55,cs),
(17,18,o),
(40,-10,o),
(77,-10,cs)
);
}
);
width = 250;
},
{
hints = (
{
horizontal = 1;
origin = (1,11);
target = (1,5);
type = Stem;
},
{
horizontal = 1;
origin = (0,5);
target = (0,11);
type = Stem;
},
{
origin = (1,8);
target = (1,2);
type = Stem;
}
);
layerId = "B51EB05F-9FBB-4087-814F-400611B2D4B0";
shapes = (
{
closed = 1;
nodes = (
(210,360,o),
(254,398,o),
(263,445,cs),
(271,492,o),
(239,530,o),
(192,530,cs),
(145,530,o),
(101,492,o),
(93,445,cs),
(84,398,o),
(116,360,o),
(163,360,cs)
);
},
{
closed = 1;
nodes = (
(143,-15,o),
(188,22,o),
(196,70,cs),
(205,117,o),
(173,155,o),
(126,155,cs),
(78,155,o),
(35,117,o),
(26,70,cs),
(18,22,o),
(48,-15,o),
(96,-15,cs)
);
}
);
width = 291;
}
);
unicode = 58;
},
{
glyphname = semicolon;
kernLeft = colon;
kernRight = colon;
lastChange = "2025-12-29 20:23:14 +0000";
layers = (
{
hints = (
{
horizontal = 1;
origin = (0,5);
target = (0,11);
type = Stem;
},
{
origin = (0,8);
target = (0,2);
type = Stem;
}
);
layerId = "05246BF3-0764-4143-87C4-5D2B296D3790";
shapes = (
{
closed = 1;
nodes = (
(195,390,o),
(228,418,o),
(234,455,cs),
(241,492,o),
(218,520,o),
(181,520,cs),
(144,520,o),
(111,492,o),
(104,455,cs),
(98,418,o),
(121,390,o),
(158,390,cs)
);
},
{
closed = 1;
nodes = (
(40,-165,l),
(157,100,l),
(62,100,l),
(-35,-165,l)
);
}
);
width = 260;
},
{
hints = (
{
horizontal = 1;
origin = (1,3);
target = (1,2);
type = Stem;
},
{
horizontal = 1;
origin = (0,5);
target = (0,11);
type = Stem;
},
{
origin = (0,8);
target = (0,2);
type = Stem;
}
);
layerId = "B51EB05F-9FBB-4087-814F-400611B2D4B0";
shapes = (
{
closed = 1;
nodes = (
(206,360,o),
(250,398,o),
(259,445,cs),
(267,492,o),
(235,530,o),
(188,530,cs),
(141,530,o),
(97,492,o),
(89,445,cs),
(80,398,o),
(112,360,o),
(159,360,cs)
);
},
{
closed = 1;
nodes = (
(94,-140,l),
(203,135,l),
(48,135,l),
(-31,-140,l)
);
}
);
width = 287;
}
);
unicode = 59;
},
{
glyphname = ellipsis;
kernLeft = period;
kernRight = period;
lastChange = "2025-12-29 20:23:22 +0000";
layers = (
{
hints = (
{
horizontal = 1;
origin = (1,5);
target = (1,11);
type = Stem;
},
{
origin = (1,8);
target = (1,2);
type = Stem;
},
{
origin = (2,8);
target = (2,2);
type = Stem;
},
{
origin = (0,8);
target = (0,2);
type = Stem;
}
);
layerId = "05246BF3-0764-4143-87C4-5D2B296D3790";
shapes = (
{
closed = 1;
nodes = (
(543,-10,o),
(577,19,o),
(584,55,cs),
(590,91,o),
(566,120,o),
(530,120,cs),
(494,120,o),
(460,91,o),
(454,55,cs),
(447,19,o),
(471,-10,o),
(507,-10,cs)
);
},
{
closed = 1;
nodes = (
(103,-10,o),
(137,19,o),
(144,55,cs),
(150,91,o),
(126,120,o),
(90,120,cs),
(54,120,o),
(20,91,o),
(14,55,cs),
(7,19,o),
(31,-10,o),
(67,-10,cs)
);
},
{
closed = 1;
nodes = (
(323,-10,o),
(357,19,o),
(364,55,cs),
(370,91,o),
(346,120,o),
(310,120,cs),
(274,120,o),
(240,91,o),
(234,55,cs),
(227,19,o),
(251,-10,o),
(287,-10,cs)
);
}
);
width = 670;
},
{
hints = (
{
horizontal = 1;
origin = (1,11);
target = (1,5);
type = Stem;
},
{
origin = (1,8);
target = (1,2);
type = Stem;
},
{
origin = (2,8);
target = (2,2);
type = Stem;
},
{
origin = (0,8);
target = (0,2);
type = Stem;
}
);
layerId = "B51EB05F-9FBB-4087-814F-400611B2D4B0";
shapes = (
{
closed = 1;
nodes = (
(552,-10,o),
(598,29,o),
(606,75,cs),
(614,121,o),
(582,160,o),
(536,160,cs),
(490,160,o),
(444,121,o),
(436,75,cs),
(428,29,o),
(460,-10,o),
(506,-10,cs)
);
},
{
closed = 1;
nodes = (
(112,-10,o),
(158,29,o),
(166,75,cs),
(174,121,o),
(142,160,o),
(96,160,cs),
(50,160,o),
(4,121,o),
(-4,75,cs),
(-12,29,o),
(20,-10,o),
(66,-10,cs)
);
},
{
closed = 1;
nodes = (
(332,-10,o),
(378,29,o),
(386,75,cs),
(394,121,o),
(362,160,o),
(316,160,cs),
(270,160,o),
(224,121,o),
(216,75,cs),
(208,29,o),
(240,-10,o),
(286,-10,cs)
);
}
);
width = 670;
}
);
unicode = 8230;
},
{
glyphname = exclam;
kernLeft = exclam;
lastChange = "2025-12-29 20:23:37 +0000";
layers = (
{
hints = (
{
horizontal = 1;
origin = (1,5);
target = (1,11);
type = Stem;
},
{
horizontal = 1;
origin = (0,2);
target = down;
type = TopGhost;
},
{
place = (-37,-37);
type = Stem;
},
{
origin = (1,8);
target = (1,2);
type = Stem;
}
);
layerId = "05246BF3-0764-4143-87C4-5D2B296D3790";
shapes = (
{
closed = 1;
nodes = (
(169,225,l),
(266,720,l),
(166,720,l),
(89,225,l)
);
},
{
closed = 1;
nodes = (
(123,-10,o),
(157,19,o),
(164,55,cs),
(170,91,o),
(146,120,o),
(110,120,cs),
(74,120,o),
(40,91,o),
(34,55,cs),
(27,19,o),
(51,-10,o),
(87,-10,cs)
);
}
);
width = 270;
},
{
hints = (
{
horizontal = 1;
origin = (1,11);
target = (1,5);
type = Stem;
},
{
horizontal = 1;
origin = (0,2);
target = down;
type = TopGhost;
},
{
place = (-53,8);
type = Stem;
},
{
origin = (1,8);
target = (1,2);
type = Stem;
}
);
layerId = "B51EB05F-9FBB-4087-814F-400611B2D4B0";
shapes = (
{
closed = 1;
nodes = (
(187,215,l),
(291,720,l),
(141,720,l),
(67,215,l)
);
},
{
closed = 1;
nodes = (
(134,-15,o),
(178,22,o),
(186,70,cs),
(195,118,o),
(164,155,o),
(116,155,cs),
(68,155,o),
(25,118,o),
(16,70,cs),
(8,22,o),
(38,-15,o),
(86,-15,cs)
);
}
);
width = 270;
}
);
unicode = 33;
},
{
glyphname = exclamdown;
kernRight = exclamdown;
lastChange = "2025-12-29 20:23:50 +0000";
layers = (
{
hints = (
{
horizontal = 1;
origin = (1,5);
target = (1,11);
type = Stem;
},
{
origin = (1,8);
target = (1,2);
type = Stem;
},
{
place = (-37,-37);
type = Stem;
}
);
layerId = "05246BF3-0764-4143-87C4-5D2B296D3790";
shapes = (
{
closed = 1;
nodes = (
(104,-200,l),
(181,295,l),
(101,295,l),
(4,-200,l)
);
},
{
closed = 1;
nodes = (
(196,400,o),
(230,429,o),
(236,465,cs),
(242,501,o),
(218,530,o),
(182,530,cs),
(146,530,o),
(112,501,o),
(106,465,cs),
(100,429,o),
(124,400,o),
(160,400,cs)
);
}
);
width = 270;
},
{
hints = (
{
horizontal = 1;
origin = (1,5);
target = (1,11);
type = Stem;
},
{
origin = (1,8);
target = (1,2);
type = Stem;
},
{
place = (-53,8);
type = Stem;
}
);
layerId = "B51EB05F-9FBB-4087-814F-400611B2D4B0";
shapes = (
{
closed = 1;
nodes = (
(129,-200,l),
(203,305,l),
(83,305,l),
(-21,-200,l)
);
},
{
closed = 1;
nodes = (
(201,365,o),
(245,402,o),
(253,450,cs),
(262,498,o),
(231,535,o),
(183,535,cs),
(135,535,o),
(92,498,o),
(83,450,cs),
(75,402,o),
(105,365,o),
(153,365,cs)
);
}
);
width = 270;
}
);
unicode = 161;
},
{
glyphname = question;
kernLeft = question;
kernRight = question;
lastChange = "2025-12-29 20:24:28 +0000";
layers = (
{
hints = (
{
horizontal = 1;
origin = (1,5);
target = (1,11);
type = Stem;
},
{
horizontal = 1;
origin = (0,10);
target = (0,17);
type = Stem;
},
{
origin = (0,13);
target = (0,14);
type = Stem;
},
{
origin = (0,27);
target = (0,0);
type = Stem;
},
{
origin = (0,20);
target = (0,7);
type = Stem;
},
{
origin = (1,8);
target = (1,2);
type = Stem;
}
);
layerId = "05246BF3-0764-4143-87C4-5D2B296D3790";
shapes = (
{
closed = 1;
nodes = (
(307,225,l),
(310,245,l),
(321,305,o),
(367,327,o),
(412,357,c),
(503,417,o),
(528,478,o),
(539,540,cs),
(559,650,o),
(481,730,o),
(351,730,cs),
(221,730,o),
(119,650,o),
(99,540,c),
(189,540,l),
(200,600,o),
(257,650,o),
(337,650,cs),
(417,650,o),
(460,600,o),
(449,540,cs),
(442,496,o),
(434,454,o),
(355,404,c),
(276,354,o),
(233,315,o),
(220,245,c),
(217,225,l)
);
},
{
closed = 1;
nodes = (
(257,-10,o),
(290,18,o),
(297,55,cs),
(303,92,o),
(280,120,o),
(243,120,cs),
(206,120,o),
(173,92,o),
(167,55,cs),
(160,18,o),
(183,-10,o),
(220,-10,cs)
);
}
);
width = 540;
},
{
hints = (
{
horizontal = 1;
origin = (1,11);
target = (1,5);
type = Stem;
},
{
horizontal = 1;
origin = (0,10);
target = (0,17);
type = Stem;
},
{
origin = (0,27);
target = (0,0);
type = Stem;
},
{
origin = (0,13);
target = (0,14);
type = Stem;
},
{
origin = (0,20);
target = (0,7);
type = Stem;
},
{
origin = (1,8);
target = (1,2);
type = Stem;
}
);
layerId = "B51EB05F-9FBB-4087-814F-400611B2D4B0";
shapes = (
{
closed = 1;
nodes = (
(329,215,l),
(334,245,l),
(346,310,o),
(376,316,o),
(437,360,cs),
(517,418,o),
(546,468,o),
(556,525,cs),
(579,655,o),
(475,730,o),
(350,730,cs),
(215,730,o),
(99,655,o),
(76,525,c),
(226,525,l),
(234,575,o),
(260,620,o),
(330,620,cs),
(400,620,o),
(415,580,o),
(406,525,cs),
(401,501,o),
(400,463,o),
(319,405,cs),
(232,342,o),
(197,320,o),
(184,245,c),
(179,215,l)
);
},
{
closed = 1;
nodes = (
(262,-10,o),
(306,27,o),
(314,75,cs),
(323,123,o),
(292,160,o),
(244,160,cs),
(196,160,o),
(153,123,o),
(144,75,cs),
(136,27,o),
(166,-10,o),
(214,-10,cs)
);
}
);
width = 540;
}
);
unicode = 63;
},
{
glyphname = questiondown;
kernLeft = questiondown;
kernRight = questiondown;
lastChange = "2025-12-29 20:24:33 +0000";
layers = (
{
hints = (
{
horizontal = 1;
origin = (0,17);
target = (0,10);
type = Stem;
},
{
horizontal = 1;
origin = (1,11);
target = (1,5);
type = Stem;
},
{
origin = (0,7);
target = (0,20);
type = Stem;
},
{
origin = (1,2);
target = (1,8);
type = Stem;
},
{
origin = (0,14);
target = (0,13);
type = Stem;
},
{
origin = (0,1);
target = (0,26);
type = Stem;
}
);
layerId = "05246BF3-0764-4143-87C4-5D2B296D3790";
shapes = (
{
closed = 1;
nodes = (
(233,295,l),
(230,275,l),
(219,215,o),
(173,193,o),
(128,163,c),
(37,103,o),
(11,42,o),
(1,-20,cs),
(-19,-130,o),
(59,-210,o),
(189,-210,cs),
(319,-210,o),
(421,-130,o),
(441,-20,c),
(351,-20,l),
(340,-80,o),
(283,-130,o),
(203,-130,cs),
(123,-130,o),
(80,-80,o),
(91,-20,cs),
(98,24,o),
(106,66,o),
(184,116,c),
(263,166,o),
(307,205,o),
(320,275,c),
(323,295,l)
);
},
{
closed = 1;
nodes = (
(282,530,o),
(250,502,o),
(243,465,cs),
(237,428,o),
(260,400,o),
(297,400,cs),
(334,400,o),
(367,428,o),
(373,465,cs),
(380,502,o),
(356,530,o),
(319,530,cs)
);
}
);
width = 540;
},
{
hints = (
{
horizontal = 1;
origin = (0,10);
target = (0,17);
type = Stem;
},
{
horizontal = 1;
origin = (1,11);
target = (1,5);
type = Stem;
},
{
origin = (1,2);
target = (1,8);
type = Stem;
},
{
origin = (0,1);
target = (0,26);
type = Stem;
},
{
origin = (0,7);
target = (0,20);
type = Stem;
},
{
origin = (0,14);
target = (0,13);
type = Stem;
}
);
layerId = "B51EB05F-9FBB-4087-814F-400611B2D4B0";
shapes = (
{
closed = 1;
nodes = (
(211,315,l),
(205,285,l),
(194,220,o),
(164,214,o),
(103,170,cs),
(23,112,o),
(-6,62,o),
(-16,5,cs),
(-39,-125,o),
(65,-200,o),
(190,-200,cs),
(325,-200,o),
(441,-125,o),
(464,5,c),
(314,5,l),
(305,-45,o),
(279,-90,o),
(209,-90,cs),
(139,-90,o),
(124,-50,o),
(134,5,cs),
(138,29,o),
(140,67,o),
(220,125,cs),
(307,188,o),
(342,210,o),
(355,285,c),
(361,315,l)
);
},
{
closed = 1;
nodes = (
(277,540,o),
(234,503,o),
(225,455,cs),
(217,407,o),
(247,370,o),
(295,370,cs),
(343,370,o),
(387,407,o),
(395,455,cs),
(404,503,o),
(373,540,o),
(325,540,cs)
);
}
);
width = 540;
}
);
unicode = 191;
},
{
glyphname = periodcentered;
lastChange = "2025-12-29 20:25:12 +0000";
layers = (
{
hints = (
{
horizontal = 1;
origin = (0,5);
target = (0,11);
type = Stem;
},
{
origin = (0,8);
target = (0,2);
type = Stem;
}
);
layerId = "05246BF3-0764-4143-87C4-5D2B296D3790";
shapes = (
{
closed = 1;
nodes = (
(188,195,o),
(224,225,o),
(230,260,cs),
(236,295,o),
(211,325,o),
(176,325,cs),
(141,325,o),
(106,295,o),
(100,260,cs),
(94,225,o),
(118,195,o),
(153,195,cs)
);
}
);
width = 330;
},
{
hints = (
{
horizontal = 1;
origin = (0,11);
target = (0,5);
type = Stem;
},
{
origin = (0,8);
target = (0,2);
type = Stem;
}
);
layerId = "B51EB05F-9FBB-4087-814F-400611B2D4B0";
shapes = (
{
closed = 1;
nodes = (
(215,175,o),
(261,214,o),
(269,260,cs),
(277,306,o),
(245,345,o),
(199,345,cs),
(153,345,o),
(107,306,o),
(99,260,cs),
(91,214,o),
(123,175,o),
(169,175,cs)
);
}
);
width = 370;
}
);
unicode = 183;
},
{
glyphname = bullet;
lastChange = "2025-12-29 20:25:19 +0000";
layers = (
{
layerId = "05246BF3-0764-4143-87C4-5D2B296D3790";
shapes = (
{
closed = 1;
nodes = (
(292,120,o),
(366,183,o),
(380,260,cs),
(393,337,o),
(342,400,o),
(265,400,cs),
(188,400,o),
(113,337,o),
(100,260,cs),
(86,183,o),
(138,120,o),
(215,120,cs)
);
}
);
width = 480;
},
{
hints = (
{
origin = (0,8);
target = (0,2);
type = Stem;
}
);
layerId = "B51EB05F-9FBB-4087-814F-400611B2D4B0";
shapes = (
{
closed = 1;
nodes = (
(333,90,o),
(422,166,o),
(439,260,cs),
(455,354,o),
(393,430,o),
(299,430,cs),
(205,430,o),
(115,354,o),
(99,260,cs),
(82,166,o),
(145,90,o),
(239,90,cs)
);
}
);
width = 540;
}
);
unicode = 8226;
},
{
glyphname = asterisk;
kernLeft = quotesingle;
kernRight = quotesingle;
lastChange = "2025-12-29 20:26:01 +0000";
layers = (
{
hints = (
{
horizontal = 1;
origin = (0,9);
target = down;
type = TopGhost;
},
{
origin = (0,17);
target = (0,0);
type = Stem;
}
);
layerId = "05246BF3-0764-4143-87C4-5D2B296D3790";
shapes = (
{
closed = 1;
nodes = (
(281,390,l),
(301,502,l),
(388,446,l),
(428,500,l),
(342,555,l),
(448,611,l),
(426,664,l),
(319,608,l),
(339,720,l),
(279,720,l),
(259,608,l),
(172,664,l),
(132,610,l),
(218,555,l),
(112,499,l),
(134,446,l),
(241,502,l),
(221,390,l)
);
}
);
width = 456;
},
{
hints = (
{
horizontal = 1;
origin = (0,9);
target = down;
type = TopGhost;
},
{
origin = (0,17);
target = (0,0);
type = Stem;
}
);
layerId = "B51EB05F-9FBB-4087-814F-400611B2D4B0";
shapes = (
{
closed = 1;
nodes = (
(283,390,l),
(298,478,l),
(367,434,l),
(424,512,l),
(357,555,l),
(440,599,l),
(408,676,l),
(326,633,l),
(341,720,l),
(251,720,l),
(235,632,l),
(167,676,l),
(109,598,l),
(177,555,l),
(94,511,l),
(126,434,l),
(208,477,l),
(193,390,l)
);
}
);
width = 431;
}
);
unicode = 42;
},
